<?xml version="1.0"?>
<!-- Generated by SVGo and Plotinum VG -->
<svg width="5690pt" height="2845pt" viewBox="0 0 5690 2845"
	xmlns="http://www.w3.org/2000/svg"
	xmlns:xlink="http://www.w3.org/1999/xlink">
<g transform="scale(1, -1) translate(0, -2845)">
<path d="M0,0L5690,0L5690,2845L0,2845Z" style="fill:#FFFFFF" />
<text x="2724.3" y="-2833.4" transform="scale(1, -1)"
	style="font-family:Times;font-weight:normal;font-style:normal;font-size:12px">BenchmarkCorrectness/size=1000000/digest=caio</text>
<text x="2876.9" y="-3.8613" transform="scale(1, -1)"
	style="font-family:Times;font-weight:normal;font-style:normal;font-size:12px">quant</text>
<text x="506.67" y="-15.602" transform="scale(1, -1)"
	style="font-family:Times;font-weight:normal;font-style:normal;font-size:10px">0.000000</text>
<text x="1452.6" y="-15.602" transform="scale(1, -1)"
	style="font-family:Times;font-weight:normal;font-style:normal;font-size:10px">0.100000</text>
<text x="2398.5" y="-15.602" transform="scale(1, -1)"
	style="font-family:Times;font-weight:normal;font-style:normal;font-size:10px">0.500000</text>
<text x="3344.4" y="-15.602" transform="scale(1, -1)"
	style="font-family:Times;font-weight:normal;font-style:normal;font-size:10px">0.900000</text>
<text x="4290.3" y="-15.602" transform="scale(1, -1)"
	style="font-family:Times;font-weight:normal;font-style:normal;font-size:10px">0.990000</text>
<text x="5236.2" y="-15.602" transform="scale(1, -1)"
	style="font-family:Times;font-weight:normal;font-style:normal;font-size:10px">0.999000</text>
<g transform="rotate(90)">
<text x="1405.8" y="11.555" transform="scale(1, -1)"
	style="font-family:Times;font-weight:normal;font-style:normal;font-size:12px">%correct</text>
</g>
<text x="25.416" y="-25.509" transform="scale(1, -1)"
	style="font-family:Times;font-weight:normal;font-style:normal;font-size:10px">0</text>
<text x="20.416" y="-1422.7" transform="scale(1, -1)"
	style="font-family:Times;font-weight:normal;font-style:normal;font-size:10px">50</text>
<text x="15.416" y="-2820" transform="scale(1, -1)"
	style="font-family:Times;font-weight:normal;font-style:normal;font-size:10px">100</text>
<path d="M32.916,30.23L40.916,30.23" style="fill:none;stroke:#000000;stroke-width:0.5" />
<path d="M32.916,1427.5L40.916,1427.5" style="fill:none;stroke:#000000;stroke-width:0.5" />
<path d="M32.916,2824.7L40.916,2824.7" style="fill:none;stroke:#000000;stroke-width:0.5" />
<path d="M36.916,309.68L40.916,309.68" style="fill:none;stroke:#000000;stroke-width:0.5" />
<path d="M36.916,589.12L40.916,589.12" style="fill:none;stroke:#000000;stroke-width:0.5" />
<path d="M36.916,868.56L40.916,868.56" style="fill:none;stroke:#000000;stroke-width:0.5" />
<path d="M36.916,1148L40.916,1148" style="fill:none;stroke:#000000;stroke-width:0.5" />
<path d="M36.916,1706.9L40.916,1706.9" style="fill:none;stroke:#000000;stroke-width:0.5" />
<path d="M36.916,1986.3L40.916,1986.3" style="fill:none;stroke:#000000;stroke-width:0.5" />
<path d="M36.916,2265.8L40.916,2265.8" style="fill:none;stroke:#000000;stroke-width:0.5" />
<path d="M36.916,2545.2L40.916,2545.2" style="fill:none;stroke:#000000;stroke-width:0.5" />
<path d="M40.916,30.23L40.916,2824.7" style="fill:none;stroke:#000000;stroke-width:0.5" />
<path d="M60.416,30.23L60.416,2824.7L90.416,2824.7L90.416,30.23Z" style="fill:#F15A60" />
<path d="M1006.3,30.23L1006.3,30.23L1036.3,30.23L1036.3,30.23Z" style="fill:#F15A60" />
<path d="M1952.2,30.23L1952.2,30.23L1982.2,30.23L1982.2,30.23Z" style="fill:#F15A60" />
<path d="M2898.2,30.23L2898.2,30.23L2928.2,30.23L2928.2,30.23Z" style="fill:#F15A60" />
<path d="M3844.1,30.23L3844.1,30.23L3874.1,30.23L3874.1,30.23Z" style="fill:#F15A60" />
<path d="M4790,30.23L4790,30.23L4820,30.23L4820,30.23Z" style="fill:#F15A60" />
<path d="M90.416,30.23L90.416,30.23L120.42,30.23L120.42,30.23Z" style="fill:#7AC36A" />
<path d="M1036.3,30.23L1036.3,2824.7L1066.3,2824.7L1066.3,30.23Z" style="fill:#7AC36A" />
<path d="M1982.2,30.23L1982.2,30.23L2012.2,30.23L2012.2,30.23Z" style="fill:#7AC36A" />
<path d="M2928.2,30.23L2928.2,30.23L2958.2,30.23L2958.2,30.23Z" style="fill:#7AC36A" />
<path d="M3874.1,30.23L3874.1,30.23L3904.1,30.23L3904.1,30.23Z" style="fill:#7AC36A" />
<path d="M4820,30.23L4820,30.23L4850,30.23L4850,30.23Z" style="fill:#7AC36A" />
<path d="M120.42,30.23L120.42,30.23L150.42,30.23L150.42,30.23Z" style="fill:#5A9BD4" />
<path d="M1066.3,30.23L1066.3,30.23L1096.3,30.23L1096.3,30.23Z" style="fill:#5A9BD4" />
<path d="M2012.2,30.23L2012.2,2824.7L2042.2,2824.7L2042.2,30.23Z" style="fill:#5A9BD4" />
<path d="M2958.2,30.23L2958.2,30.23L2988.2,30.23L2988.2,30.23Z" style="fill:#5A9BD4" />
<path d="M3904.1,30.23L3904.1,30.23L3934.1,30.23L3934.1,30.23Z" style="fill:#5A9BD4" />
<path d="M4850,30.23L4850,30.23L4880,30.23L4880,30.23Z" style="fill:#5A9BD4" />
<path d="M150.42,30.23L150.42,30.23L180.42,30.23L180.42,30.23Z" style="fill:#FAA75B" />
<path d="M1096.3,30.23L1096.3,30.23L1126.3,30.23L1126.3,30.23Z" style="fill:#FAA75B" />
<path d="M2042.2,30.23L2042.2,30.23L2072.2,30.23L2072.2,30.23Z" style="fill:#FAA75B" />
<path d="M2988.2,30.23L2988.2,2824.7L3018.2,2824.7L3018.2,30.23Z" style="fill:#FAA75B" />
<path d="M3934.1,30.23L3934.1,30.23L3964.1,30.23L3964.1,30.23Z" style="fill:#FAA75B" />
<path d="M4880,30.23L4880,30.23L4910,30.23L4910,30.23Z" style="fill:#FAA75B" />
<path d="M180.42,30.23L180.42,30.23L210.42,30.23L210.42,30.23Z" style="fill:#9E67AB" />
<path d="M1126.3,30.23L1126.3,30.23L1156.3,30.23L1156.3,30.23Z" style="fill:#9E67AB" />
<path d="M2072.2,30.23L2072.2,30.23L2102.2,30.23L2102.2,30.23Z" style="fill:#9E67AB" />
<path d="M3018.2,30.23L3018.2,30.23L3048.2,30.23L3048.2,30.23Z" style="fill:#9E67AB" />
<path d="M3964.1,30.23L3964.1,2824.7L3994.1,2824.7L3994.1,30.23Z" style="fill:#9E67AB" />
<path d="M4910,30.23L4910,30.23L4940,30.23L4940,30.23Z" style="fill:#9E67AB" />
<path d="M210.42,30.23L210.42,30.23L240.42,30.23L240.42,30.23Z" style="fill:#CE7058" />
<path d="M1156.3,30.23L1156.3,30.23L1186.3,30.23L1186.3,30.23Z" style="fill:#CE7058" />
<path d="M2102.2,30.23L2102.2,30.23L2132.2,30.23L2132.2,30.23Z" style="fill:#CE7058" />
<path d="M3048.2,30.23L3048.2,30.23L3078.2,30.23L3078.2,30.23Z" style="fill:#CE7058" />
<path d="M3994.1,30.23L3994.1,30.23L4024.1,30.23L4024.1,30.23Z" style="fill:#CE7058" />
<path d="M4940,30.23L4940,2824.7L4970,2824.7L4970,30.23Z" style="fill:#CE7058" />
<path d="M240.42,30.23L240.42,2824.7L270.42,2824.7L270.42,30.23Z" style="fill:#D77FB4" />
<path d="M1186.3,30.23L1186.3,30.23L1216.3,30.23L1216.3,30.23Z" style="fill:#D77FB4" />
<path d="M2132.2,30.23L2132.2,30.23L2162.2,30.23L2162.2,30.23Z" style="fill:#D77FB4" />
<path d="M3078.2,30.23L3078.2,30.23L3108.2,30.23L3108.2,30.23Z" style="fill:#D77FB4" />
<path d="M4024.1,30.23L4024.1,30.23L4054.1,30.23L4054.1,30.23Z" style="fill:#D77FB4" />
<path d="M4970,30.23L4970,30.23L5000,30.23L5000,30.23Z" style="fill:#D77FB4" />
<path d="M270.42,30.23L270.42,30.23L300.42,30.23L300.42,30.23Z" style="fill:#F15A60" />
<path d="M1216.3,30.23L1216.3,2824.7L1246.3,2824.7L1246.3,30.23Z" style="fill:#F15A60" />
<path d="M2162.2,30.23L2162.2,30.23L2192.2,30.23L2192.2,30.23Z" style="fill:#F15A60" />
<path d="M3108.2,30.23L3108.2,30.23L3138.2,30.23L3138.2,30.23Z" style="fill:#F15A60" />
<path d="M4054.1,30.23L4054.1,30.23L4084.1,30.23L4084.1,30.23Z" style="fill:#F15A60" />
<path d="M5000,30.23L5000,30.23L5030,30.23L5030,30.23Z" style="fill:#F15A60" />
<path d="M300.42,30.23L300.42,30.23L330.42,30.23L330.42,30.23Z" style="fill:#7AC36A" />
<path d="M1246.3,30.23L1246.3,30.23L1276.3,30.23L1276.3,30.23Z" style="fill:#7AC36A" />
<path d="M2192.2,30.23L2192.2,2824.7L2222.2,2824.7L2222.2,30.23Z" style="fill:#7AC36A" />
<path d="M3138.2,30.23L3138.2,30.23L3168.2,30.23L3168.2,30.23Z" style="fill:#7AC36A" />
<path d="M4084.1,30.23L4084.1,30.23L4114.1,30.23L4114.1,30.23Z" style="fill:#7AC36A" />
<path d="M5030,30.23L5030,30.23L5060,30.23L5060,30.23Z" style="fill:#7AC36A" />
<path d="M330.42,30.23L330.42,30.23L360.42,30.23L360.42,30.23Z" style="fill:#5A9BD4" />
<path d="M1276.3,30.23L1276.3,30.23L1306.3,30.23L1306.3,30.23Z" style="fill:#5A9BD4" />
<path d="M2222.2,30.23L2222.2,30.23L2252.2,30.23L2252.2,30.23Z" style="fill:#5A9BD4" />
<path d="M3168.2,30.23L3168.2,2824.7L3198.2,2824.7L3198.2,30.23Z" style="fill:#5A9BD4" />
<path d="M4114.1,30.23L4114.1,30.23L4144.1,30.23L4144.1,30.23Z" style="fill:#5A9BD4" />
<path d="M5060,30.23L5060,30.23L5090,30.23L5090,30.23Z" style="fill:#5A9BD4" />
<path d="M360.42,30.23L360.42,30.23L390.42,30.23L390.42,30.23Z" style="fill:#FAA75B" />
<path d="M1306.3,30.23L1306.3,30.23L1336.3,30.23L1336.3,30.23Z" style="fill:#FAA75B" />
<path d="M2252.2,30.23L2252.2,30.23L2282.2,30.23L2282.2,30.23Z" style="fill:#FAA75B" />
<path d="M3198.2,30.23L3198.2,30.23L3228.2,30.23L3228.2,30.23Z" style="fill:#FAA75B" />
<path d="M4144.1,30.23L4144.1,2824.7L4174.1,2824.7L4174.1,30.23Z" style="fill:#FAA75B" />
<path d="M5090,30.23L5090,30.23L5120,30.23L5120,30.23Z" style="fill:#FAA75B" />
<path d="M390.42,30.23L390.42,30.23L420.42,30.23L420.42,30.23Z" style="fill:#9E67AB" />
<path d="M1336.3,30.23L1336.3,30.23L1366.3,30.23L1366.3,30.23Z" style="fill:#9E67AB" />
<path d="M2282.2,30.23L2282.2,30.23L2312.2,30.23L2312.2,30.23Z" style="fill:#9E67AB" />
<path d="M3228.2,30.23L3228.2,30.23L3258.2,30.23L3258.2,30.23Z" style="fill:#9E67AB" />
<path d="M4174.1,30.23L4174.1,30.23L4204.1,30.23L4204.1,30.23Z" style="fill:#9E67AB" />
<path d="M5120,30.23L5120,2824.7L5150,2824.7L5150,30.23Z" style="fill:#9E67AB" />
<path d="M420.42,30.23L420.42,2824.7L450.42,2824.7L450.42,30.23Z" style="fill:#CE7058" />
<path d="M1366.3,30.23L1366.3,30.23L1396.3,30.23L1396.3,30.23Z" style="fill:#CE7058" />
<path d="M2312.2,30.23L2312.2,30.23L2342.2,30.23L2342.2,30.23Z" style="fill:#CE7058" />
<path d="M3258.2,30.23L3258.2,30.23L3288.2,30.23L3288.2,30.23Z" style="fill:#CE7058" />
<path d="M4204.1,30.23L4204.1,30.23L4234.1,30.23L4234.1,30.23Z" style="fill:#CE7058" />
<path d="M5150,30.23L5150,30.23L5180,30.23L5180,30.23Z" style="fill:#CE7058" />
<path d="M450.42,30.23L450.42,30.23L480.42,30.23L480.42,30.23Z" style="fill:#D77FB4" />
<path d="M1396.3,30.23L1396.3,2824.7L1426.3,2824.7L1426.3,30.23Z" style="fill:#D77FB4" />
<path d="M2342.2,30.23L2342.2,30.23L2372.2,30.23L2372.2,30.23Z" style="fill:#D77FB4" />
<path d="M3288.2,30.23L3288.2,30.23L3318.2,30.23L3318.2,30.23Z" style="fill:#D77FB4" />
<path d="M4234.1,30.23L4234.1,30.23L4264.1,30.23L4264.1,30.23Z" style="fill:#D77FB4" />
<path d="M5180,30.23L5180,30.23L5210,30.23L5210,30.23Z" style="fill:#D77FB4" />
<path d="M480.42,30.23L480.42,30.23L510.42,30.23L510.42,30.23Z" style="fill:#F15A60" />
<path d="M1426.3,30.23L1426.3,30.23L1456.3,30.23L1456.3,30.23Z" style="fill:#F15A60" />
<path d="M2372.2,30.23L2372.2,2824.7L2402.2,2824.7L2402.2,30.23Z" style="fill:#F15A60" />
<path d="M3318.2,30.23L3318.2,30.23L3348.2,30.23L3348.2,30.23Z" style="fill:#F15A60" />
<path d="M4264.1,30.23L4264.1,30.23L4294.1,30.23L4294.1,30.23Z" style="fill:#F15A60" />
<path d="M5210,30.23L5210,30.23L5240,30.23L5240,30.23Z" style="fill:#F15A60" />
<path d="M510.42,30.23L510.42,30.23L540.42,30.23L540.42,30.23Z" style="fill:#7AC36A" />
<path d="M1456.3,30.23L1456.3,30.23L1486.3,30.23L1486.3,30.23Z" style="fill:#7AC36A" />
<path d="M2402.2,30.23L2402.2,30.23L2432.2,30.23L2432.2,30.23Z" style="fill:#7AC36A" />
<path d="M3348.2,30.23L3348.2,2824.7L3378.2,2824.7L3378.2,30.23Z" style="fill:#7AC36A" />
<path d="M4294.1,30.23L4294.1,30.23L4324.1,30.23L4324.1,30.23Z" style="fill:#7AC36A" />
<path d="M5240,30.23L5240,30.23L5270,30.23L5270,30.23Z" style="fill:#7AC36A" />
<path d="M540.42,30.23L540.42,30.23L570.42,30.23L570.42,30.23Z" style="fill:#5A9BD4" />
<path d="M1486.3,30.23L1486.3,30.23L1516.3,30.23L1516.3,30.23Z" style="fill:#5A9BD4" />
<path d="M2432.2,30.23L2432.2,30.23L2462.2,30.23L2462.2,30.23Z" style="fill:#5A9BD4" />
<path d="M3378.2,30.23L3378.2,30.23L3408.2,30.23L3408.2,30.23Z" style="fill:#5A9BD4" />
<path d="M4324.1,30.23L4324.1,2824.7L4354.1,2824.7L4354.1,30.23Z" style="fill:#5A9BD4" />
<path d="M5270,30.23L5270,30.23L5300,30.23L5300,30.23Z" style="fill:#5A9BD4" />
<path d="M570.42,30.23L570.42,30.23L600.42,30.23L600.42,30.23Z" style="fill:#FAA75B" />
<path d="M1516.3,30.23L1516.3,30.23L1546.3,30.23L1546.3,30.23Z" style="fill:#FAA75B" />
<path d="M2462.2,30.23L2462.2,30.23L2492.2,30.23L2492.2,30.23Z" style="fill:#FAA75B" />
<path d="M3408.2,30.23L3408.2,30.23L3438.2,30.23L3438.2,30.23Z" style="fill:#FAA75B" />
<path d="M4354.1,30.23L4354.1,30.23L4384.1,30.23L4384.1,30.23Z" style="fill:#FAA75B" />
<path d="M5300,30.23L5300,2824.7L5330,2824.7L5330,30.23Z" style="fill:#FAA75B" />
<path d="M600.42,30.23L600.42,2824.7L630.42,2824.7L630.42,30.23Z" style="fill:#9E67AB" />
<path d="M1546.3,30.23L1546.3,30.23L1576.3,30.23L1576.3,30.23Z" style="fill:#9E67AB" />
<path d="M2492.2,30.23L2492.2,30.23L2522.2,30.23L2522.2,30.23Z" style="fill:#9E67AB" />
<path d="M3438.2,30.23L3438.2,30.23L3468.2,30.23L3468.2,30.23Z" style="fill:#9E67AB" />
<path d="M4384.1,30.23L4384.1,30.23L4414.1,30.23L4414.1,30.23Z" style="fill:#9E67AB" />
<path d="M5330,30.23L5330,30.23L5360,30.23L5360,30.23Z" style="fill:#9E67AB" />
<path d="M630.42,30.23L630.42,30.23L660.42,30.23L660.42,30.23Z" style="fill:#CE7058" />
<path d="M1576.3,30.23L1576.3,2824.7L1606.3,2824.7L1606.3,30.23Z" style="fill:#CE7058" />
<path d="M2522.2,30.23L2522.2,30.23L2552.2,30.23L2552.2,30.23Z" style="fill:#CE7058" />
<path d="M3468.2,30.23L3468.2,30.23L3498.2,30.23L3498.2,30.23Z" style="fill:#CE7058" />
<path d="M4414.1,30.23L4414.1,30.23L4444.1,30.23L4444.1,30.23Z" style="fill:#CE7058" />
<path d="M5360,30.23L5360,30.23L5390,30.23L5390,30.23Z" style="fill:#CE7058" />
<path d="M660.42,30.23L660.42,30.23L690.42,30.23L690.42,30.23Z" style="fill:#D77FB4" />
<path d="M1606.3,30.23L1606.3,30.23L1636.3,30.23L1636.3,30.23Z" style="fill:#D77FB4" />
<path d="M2552.2,30.23L2552.2,2693.3L2582.2,2693.3L2582.2,30.23Z" style="fill:#D77FB4" />
<path d="M3498.2,30.23L3498.2,30.23L3528.2,30.23L3528.2,30.23Z" style="fill:#D77FB4" />
<path d="M4444.1,30.23L4444.1,30.23L4474.1,30.23L4474.1,30.23Z" style="fill:#D77FB4" />
<path d="M5390,30.23L5390,30.23L5420,30.23L5420,30.23Z" style="fill:#D77FB4" />
<path d="M690.42,30.23L690.42,30.23L720.42,30.23L720.42,30.23Z" style="fill:#F15A60" />
<path d="M1636.3,30.23L1636.3,30.23L1666.3,30.23L1666.3,30.23Z" style="fill:#F15A60" />
<path d="M2582.2,30.23L2582.2,30.23L2612.2,30.23L2612.2,30.23Z" style="fill:#F15A60" />
<path d="M3528.2,30.23L3528.2,2824.7L3558.2,2824.7L3558.2,30.23Z" style="fill:#F15A60" />
<path d="M4474.1,30.23L4474.1,30.23L4504.1,30.23L4504.1,30.23Z" style="fill:#F15A60" />
<path d="M5420,30.23L5420,30.23L5450,30.23L5450,30.23Z" style="fill:#F15A60" />
<path d="M720.42,30.23L720.42,30.23L750.42,30.23L750.42,30.23Z" style="fill:#7AC36A" />
<path d="M1666.3,30.23L1666.3,30.23L1696.3,30.23L1696.3,30.23Z" style="fill:#7AC36A" />
<path d="M2612.2,30.23L2612.2,30.23L2642.2,30.23L2642.2,30.23Z" style="fill:#7AC36A" />
<path d="M3558.2,30.23L3558.2,30.23L3588.2,30.23L3588.2,30.23Z" style="fill:#7AC36A" />
<path d="M4504.1,30.23L4504.1,2824.7L4534.1,2824.7L4534.1,30.23Z" style="fill:#7AC36A" />
<path d="M5450,30.23L5450,30.23L5480,30.23L5480,30.23Z" style="fill:#7AC36A" />
<path d="M750.42,30.23L750.42,30.23L780.42,30.23L780.42,30.23Z" style="fill:#5A9BD4" />
<path d="M1696.3,30.23L1696.3,30.23L1726.3,30.23L1726.3,30.23Z" style="fill:#5A9BD4" />
<path d="M2642.2,30.23L2642.2,30.23L2672.2,30.23L2672.2,30.23Z" style="fill:#5A9BD4" />
<path d="M3588.2,30.23L3588.2,30.23L3618.2,30.23L3618.2,30.23Z" style="fill:#5A9BD4" />
<path d="M4534.1,30.23L4534.1,30.23L4564.1,30.23L4564.1,30.23Z" style="fill:#5A9BD4" />
<path d="M5480,30.23L5480,2824.7L5510,2824.7L5510,30.23Z" style="fill:#5A9BD4" />
<path d="M780.42,30.23L780.42,2824.7L810.42,2824.7L810.42,30.23Z" style="fill:#FAA75B" />
<path d="M1726.3,30.23L1726.3,30.23L1756.3,30.23L1756.3,30.23Z" style="fill:#FAA75B" />
<path d="M2672.2,30.23L2672.2,30.23L2702.2,30.23L2702.2,30.23Z" style="fill:#FAA75B" />
<path d="M3618.2,30.23L3618.2,30.23L3648.2,30.23L3648.2,30.23Z" style="fill:#FAA75B" />
<path d="M4564.1,30.23L4564.1,30.23L4594.1,30.23L4594.1,30.23Z" style="fill:#FAA75B" />
<path d="M5510,30.23L5510,30.23L5540,30.23L5540,30.23Z" style="fill:#FAA75B" />
<path d="M810.42,30.23L810.42,30.23L840.42,30.23L840.42,30.23Z" style="fill:#9E67AB" />
<path d="M1756.3,30.23L1756.3,2824.7L1786.3,2824.7L1786.3,30.23Z" style="fill:#9E67AB" />
<path d="M2702.2,30.23L2702.2,30.23L2732.2,30.23L2732.2,30.23Z" style="fill:#9E67AB" />
<path d="M3648.2,30.23L3648.2,30.23L3678.2,30.23L3678.2,30.23Z" style="fill:#9E67AB" />
<path d="M4594.1,30.23L4594.1,30.23L4624.1,30.23L4624.1,30.23Z" style="fill:#9E67AB" />
<path d="M5540,30.23L5540,30.23L5570,30.23L5570,30.23Z" style="fill:#9E67AB" />
<path d="M840.42,30.23L840.42,30.23L870.42,30.23L870.42,30.23Z" style="fill:#CE7058" />
<path d="M1786.3,30.23L1786.3,30.23L1816.3,30.23L1816.3,30.23Z" style="fill:#CE7058" />
<path d="M2732.2,30.23L2732.2,2824.7L2762.2,2824.7L2762.2,30.23Z" style="fill:#CE7058" />
<path d="M3678.2,30.23L3678.2,30.23L3708.2,30.23L3708.2,30.23Z" style="fill:#CE7058" />
<path d="M4624.1,30.23L4624.1,30.23L4654.1,30.23L4654.1,30.23Z" style="fill:#CE7058" />
<path d="M5570,30.23L5570,30.23L5600,30.23L5600,30.23Z" style="fill:#CE7058" />
<path d="M870.42,30.23L870.42,30.23L900.42,30.23L900.42,30.23Z" style="fill:#D77FB4" />
<path d="M1816.3,30.23L1816.3,30.23L1846.3,30.23L1846.3,30.23Z" style="fill:#D77FB4" />
<path d="M2762.2,30.23L2762.2,30.23L2792.2,30.23L2792.2,30.23Z" style="fill:#D77FB4" />
<path d="M3708.2,30.23L3708.2,1645.4L3738.2,1645.4L3738.2,30.23Z" style="fill:#D77FB4" />
<path d="M4654.1,30.23L4654.1,30.23L4684.1,30.23L4684.1,30.23Z" style="fill:#D77FB4" />
<path d="M5600,30.23L5600,30.23L5630,30.23L5630,30.23Z" style="fill:#D77FB4" />
<path d="M900.42,30.23L900.42,30.23L930.42,30.23L930.42,30.23Z" style="fill:#F15A60" />
<path d="M1846.3,30.23L1846.3,30.23L1876.3,30.23L1876.3,30.23Z" style="fill:#F15A60" />
<path d="M2792.2,30.23L2792.2,30.23L2822.2,30.23L2822.2,30.23Z" style="fill:#F15A60" />
<path d="M3738.2,30.23L3738.2,30.23L3768.2,30.23L3768.2,30.23Z" style="fill:#F15A60" />
<path d="M4684.1,30.23L4684.1,2824.7L4714.1,2824.7L4714.1,30.23Z" style="fill:#F15A60" />
<path d="M5630,30.23L5630,30.23L5660,30.23L5660,30.23Z" style="fill:#F15A60" />
<path d="M930.42,30.23L930.42,30.23L960.42,30.23L960.42,30.23Z" style="fill:#7AC36A" />
<path d="M1876.3,30.23L1876.3,30.23L1906.3,30.23L1906.3,30.23Z" style="fill:#7AC36A" />
<path d="M2822.2,30.23L2822.2,30.23L2852.2,30.23L2852.2,30.23Z" style="fill:#7AC36A" />
<path d="M3768.2,30.23L3768.2,30.23L3798.2,30.23L3798.2,30.23Z" style="fill:#7AC36A" />
<path d="M4714.1,30.23L4714.1,30.23L4744.1,30.23L4744.1,30.23Z" style="fill:#7AC36A" />
<path d="M5660,30.23L5660,2824.7L5690,2824.7L5690,30.23Z" style="fill:#7AC36A" />
<path d="M5670,2817.8L5670,2829.6L5690,2829.6L5690,2817.8Z" style="fill:#F15A60" />
<text x="5512.7" y="-2818" transform="scale(1, -1)"
	style="font-family:Times;font-weight:normal;font-style:normal;font-size:12px">[source=linear,quant=0.000000]</text>
<path d="M5670,2806L5670,2817.8L5690,2817.8L5690,2806Z" style="fill:#7AC36A" />
<text x="5512.7" y="-2806.3" transform="scale(1, -1)"
	style="font-family:Times;font-weight:normal;font-style:normal;font-size:12px">[source=linear,quant=0.100000]</text>
<path d="M5670,2794.3L5670,2806L5690,2806L5690,2794.3Z" style="fill:#5A9BD4" />
<text x="5512.7" y="-2794.5" transform="scale(1, -1)"
	style="font-family:Times;font-weight:normal;font-style:normal;font-size:12px">[source=linear,quant=0.500000]</text>
<path d="M5670,2782.5L5670,2794.3L5690,2794.3L5690,2782.5Z" style="fill:#FAA75B" />
<text x="5512.7" y="-2782.7" transform="scale(1, -1)"
	style="font-family:Times;font-weight:normal;font-style:normal;font-size:12px">[source=linear,quant=0.900000]</text>
<path d="M5670,2770.7L5670,2782.5L5690,2782.5L5690,2770.7Z" style="fill:#9E67AB" />
<text x="5512.7" y="-2770.9" transform="scale(1, -1)"
	style="font-family:Times;font-weight:normal;font-style:normal;font-size:12px">[source=linear,quant=0.990000]</text>
<path d="M5670,2758.9L5670,2770.7L5690,2770.7L5690,2758.9Z" style="fill:#CE7058" />
<text x="5512.7" y="-2759.1" transform="scale(1, -1)"
	style="font-family:Times;font-weight:normal;font-style:normal;font-size:12px">[source=linear,quant=0.999000]</text>
<path d="M5670,2747.1L5670,2758.9L5690,2758.9L5690,2747.1Z" style="fill:#D77FB4" />
<text x="5518.2" y="-2747.4" transform="scale(1, -1)"
	style="font-family:Times;font-weight:normal;font-style:normal;font-size:12px">[source=rand,quant=0.000000]</text>
<path d="M5670,2735.4L5670,2747.1L5690,2747.1L5690,2735.4Z" style="fill:#F15A60" />
<text x="5518.2" y="-2735.6" transform="scale(1, -1)"
	style="font-family:Times;font-weight:normal;font-style:normal;font-size:12px">[source=rand,quant=0.100000]</text>
<path d="M5670,2723.6L5670,2735.4L5690,2735.4L5690,2723.6Z" style="fill:#7AC36A" />
<text x="5518.2" y="-2723.8" transform="scale(1, -1)"
	style="font-family:Times;font-weight:normal;font-style:normal;font-size:12px">[source=rand,quant=0.500000]</text>
<path d="M5670,2711.8L5670,2723.6L5690,2723.6L5690,2711.8Z" style="fill:#5A9BD4" />
<text x="5518.2" y="-2712" transform="scale(1, -1)"
	style="font-family:Times;font-weight:normal;font-style:normal;font-size:12px">[source=rand,quant=0.900000]</text>
<path d="M5670,2700L5670,2711.8L5690,2711.8L5690,2700Z" style="fill:#FAA75B" />
<text x="5518.2" y="-2700.3" transform="scale(1, -1)"
	style="font-family:Times;font-weight:normal;font-style:normal;font-size:12px">[source=rand,quant=0.990000]</text>
<path d="M5670,2688.3L5670,2700L5690,2700L5690,2688.3Z" style="fill:#9E67AB" />
<text x="5518.2" y="-2688.5" transform="scale(1, -1)"
	style="font-family:Times;font-weight:normal;font-style:normal;font-size:12px">[source=rand,quant=0.999000]</text>
<path d="M5670,2676.5L5670,2688.3L5690,2688.3L5690,2676.5Z" style="fill:#CE7058" />
<text x="5488.2" y="-2676.7" transform="scale(1, -1)"
	style="font-family:Times;font-weight:normal;font-style:normal;font-size:12px">[source=alternating,quant=0.000000]</text>
<path d="M5670,2664.7L5670,2676.5L5690,2676.5L5690,2664.7Z" style="fill:#D77FB4" />
<text x="5488.2" y="-2664.9" transform="scale(1, -1)"
	style="font-family:Times;font-weight:normal;font-style:normal;font-size:12px">[source=alternating,quant=0.100000]</text>
<path d="M5670,2652.9L5670,2664.7L5690,2664.7L5690,2652.9Z" style="fill:#F15A60" />
<text x="5488.2" y="-2653.1" transform="scale(1, -1)"
	style="font-family:Times;font-weight:normal;font-style:normal;font-size:12px">[source=alternating,quant=0.500000]</text>
<path d="M5670,2641.1L5670,2652.9L5690,2652.9L5690,2641.1Z" style="fill:#7AC36A" />
<text x="5488.2" y="-2641.4" transform="scale(1, -1)"
	style="font-family:Times;font-weight:normal;font-style:normal;font-size:12px">[source=alternating,quant=0.900000]</text>
<path d="M5670,2629.4L5670,2641.1L5690,2641.1L5690,2629.4Z" style="fill:#5A9BD4" />
<text x="5488.2" y="-2629.6" transform="scale(1, -1)"
	style="font-family:Times;font-weight:normal;font-style:normal;font-size:12px">[source=alternating,quant=0.990000]</text>
<path d="M5670,2617.6L5670,2629.4L5690,2629.4L5690,2617.6Z" style="fill:#FAA75B" />
<text x="5488.2" y="-2617.8" transform="scale(1, -1)"
	style="font-family:Times;font-weight:normal;font-style:normal;font-size:12px">[source=alternating,quant=0.999000]</text>
<path d="M5670,2605.8L5670,2617.6L5690,2617.6L5690,2605.8Z" style="fill:#9E67AB" />
<text x="5505.5" y="-2606" transform="scale(1, -1)"
	style="font-family:Times;font-weight:normal;font-style:normal;font-size:12px">[source=normal,quant=0.000000]</text>
<path d="M5670,2594L5670,2605.8L5690,2605.8L5690,2594Z" style="fill:#CE7058" />
<text x="5505.5" y="-2594.3" transform="scale(1, -1)"
	style="font-family:Times;font-weight:normal;font-style:normal;font-size:12px">[source=normal,quant=0.100000]</text>
<path d="M5670,2582.3L5670,2594L5690,2594L5690,2582.3Z" style="fill:#D77FB4" />
<text x="5505.5" y="-2582.5" transform="scale(1, -1)"
	style="font-family:Times;font-weight:normal;font-style:normal;font-size:12px">[source=normal,quant=0.500000]</text>
<path d="M5670,2570.5L5670,2582.3L5690,2582.3L5690,2570.5Z" style="fill:#F15A60" />
<text x="5505.5" y="-2570.7" transform="scale(1, -1)"
	style="font-family:Times;font-weight:normal;font-style:normal;font-size:12px">[source=normal,quant=0.900000]</text>
<path d="M5670,2558.7L5670,2570.5L5690,2570.5L5690,2558.7Z" style="fill:#7AC36A" />
<text x="5505.5" y="-2558.9" transform="scale(1, -1)"
	style="font-family:Times;font-weight:normal;font-style:normal;font-size:12px">[source=normal,quant=0.990000]</text>
<path d="M5670,2546.9L5670,2558.7L5690,2558.7L5690,2546.9Z" style="fill:#5A9BD4" />
<text x="5505.5" y="-2547.2" transform="scale(1, -1)"
	style="font-family:Times;font-weight:normal;font-style:normal;font-size:12px">[source=normal,quant=0.999000]</text>
<path d="M5670,2535.2L5670,2546.9L5690,2546.9L5690,2535.2Z" style="fill:#FAA75B" />
<text x="5498.8" y="-2535.4" transform="scale(1, -1)"
	style="font-family:Times;font-weight:normal;font-style:normal;font-size:12px">[source=tailspike,quant=0.000000]</text>
<path d="M5670,2523.4L5670,2535.2L5690,2535.2L5690,2523.4Z" style="fill:#9E67AB" />
<text x="5498.8" y="-2523.6" transform="scale(1, -1)"
	style="font-family:Times;font-weight:normal;font-style:normal;font-size:12px">[source=tailspike,quant=0.100000]</text>
<path d="M5670,2511.6L5670,2523.4L5690,2523.4L5690,2511.6Z" style="fill:#CE7058" />
<text x="5498.8" y="-2511.8" transform="scale(1, -1)"
	style="font-family:Times;font-weight:normal;font-style:normal;font-size:12px">[source=tailspike,quant=0.500000]</text>
<path d="M5670,2499.8L5670,2511.6L5690,2511.6L5690,2499.8Z" style="fill:#D77FB4" />
<text x="5498.8" y="-2500" transform="scale(1, -1)"
	style="font-family:Times;font-weight:normal;font-style:normal;font-size:12px">[source=tailspike,quant=0.900000]</text>
<path d="M5670,2488L5670,2499.8L5690,2499.8L5690,2488Z" style="fill:#F15A60" />
<text x="5498.8" y="-2488.3" transform="scale(1, -1)"
	style="font-family:Times;font-weight:normal;font-style:normal;font-size:12px">[source=tailspike,quant=0.990000]</text>
<path d="M5670,2476.3L5670,2488L5690,2488L5690,2476.3Z" style="fill:#7AC36A" />
<text x="5498.8" y="-2476.5" transform="scale(1, -1)"
	style="font-family:Times;font-weight:normal;font-style:normal;font-size:12px">[source=tailspike,quant=0.999000]</text>
</g>
</svg>
