<?xml version="1.0"?>
<!-- Generated by SVGo and Plotinum VG -->
<svg width="440pt" height="220pt" viewBox="0 0 440 220"
	xmlns="http://www.w3.org/2000/svg"
	xmlns:xlink="http://www.w3.org/1999/xlink">
<g transform="scale(1, -1) translate(0, -220)">
<path d="M0,0L440,0L440,220L0,220Z" style="fill:#FFFFFF" />
<text x="174.02" y="-208.45" transform="scale(1, -1)"
	style="font-family:Times;font-weight:normal;font-style:normal;font-size:12px">BenchmarkDecode</text>
<text x="230.14" y="-3.8613" transform="scale(1, -1)"
	style="font-family:Times;font-weight:normal;font-style:normal;font-size:12px">commit</text>
<text x="56.666" y="-15.602" transform="scale(1, -1)"
	style="font-family:Times;font-weight:normal;font-style:normal;font-size:10px">7cd9055</text>
<text x="144.8" y="-15.602" transform="scale(1, -1)"
	style="font-family:Times;font-weight:normal;font-style:normal;font-size:10px">3ab3ace</text>
<text x="232.65" y="-15.602" transform="scale(1, -1)"
	style="font-family:Times;font-weight:normal;font-style:normal;font-size:10px">92ae1af</text>
<text x="319.38" y="-15.602" transform="scale(1, -1)"
	style="font-family:Times;font-weight:normal;font-style:normal;font-size:10px">920af9b</text>
<text x="406.12" y="-15.602" transform="scale(1, -1)"
	style="font-family:Times;font-weight:normal;font-style:normal;font-size:10px">a1b93a0</text>
<g transform="rotate(90)">
<text x="104.41" y="11.555" transform="scale(1, -1)"
	style="font-family:Times;font-weight:normal;font-style:normal;font-size:12px">ns/op</text>
</g>
<text x="15.416" y="-55.861" transform="scale(1, -1)"
	style="font-family:Times;font-weight:normal;font-style:normal;font-size:10px">145000</text>
<text x="15.416" y="-118.12" transform="scale(1, -1)"
	style="font-family:Times;font-weight:normal;font-style:normal;font-size:10px">155000</text>
<text x="15.416" y="-180.38" transform="scale(1, -1)"
	style="font-family:Times;font-weight:normal;font-style:normal;font-size:10px">165000</text>
<path d="M47.916,60.582L55.916,60.582" style="fill:none;stroke:#000000;stroke-width:0.5" />
<path d="M47.916,122.84L55.916,122.84" style="fill:none;stroke:#000000;stroke-width:0.5" />
<path d="M47.916,185.1L55.916,185.1" style="fill:none;stroke:#000000;stroke-width:0.5" />
<path d="M51.916,91.712L55.916,91.712" style="fill:none;stroke:#000000;stroke-width:0.5" />
<path d="M51.916,153.97L55.916,153.97" style="fill:none;stroke:#000000;stroke-width:0.5" />
<path d="M55.916,30.23L55.916,204.58" style="fill:none;stroke:#000000;stroke-width:0.5" />
<path d="M73.885,117.39L161.18,117.39L248.47,198.71L335.77,204.58L423.06,30.23" style="fill:none;stroke:#F15A60" />
<path d="M420,204.58L440,204.58" style="fill:none;stroke:#F15A60" />
</g>
</svg>
