<?xml version="1.0"?>
<!-- Generated by SVGo and Plotinum VG -->
<svg width="1040pt" height="520pt" viewBox="0 0 1040 520"
	xmlns="http://www.w3.org/2000/svg"
	xmlns:xlink="http://www.w3.org/1999/xlink">
<g transform="scale(1, -1) translate(0, -520)">
<path d="M0,0L1040,0L1040,520L0,520Z" style="fill:#FFFFFF" />
<text x="474.02" y="-508.45" transform="scale(1, -1)"
	style="font-family:Times;font-weight:normal;font-style:normal;font-size:12px">BenchmarkDecode</text>
<text x="530.14" y="-3.8613" transform="scale(1, -1)"
	style="font-family:Times;font-weight:normal;font-style:normal;font-size:12px">commit</text>
<text x="56.666" y="-15.602" transform="scale(1, -1)"
	style="font-family:Times;font-weight:normal;font-style:normal;font-size:10px">7cd9055</text>
<text x="294.8" y="-15.602" transform="scale(1, -1)"
	style="font-family:Times;font-weight:normal;font-style:normal;font-size:10px">3ab3ace</text>
<text x="532.65" y="-15.602" transform="scale(1, -1)"
	style="font-family:Times;font-weight:normal;font-style:normal;font-size:10px">92ae1af</text>
<text x="769.38" y="-15.602" transform="scale(1, -1)"
	style="font-family:Times;font-weight:normal;font-style:normal;font-size:10px">920af9b</text>
<text x="1006.1" y="-15.602" transform="scale(1, -1)"
	style="font-family:Times;font-weight:normal;font-style:normal;font-size:10px">a1b93a0</text>
<g transform="rotate(90)">
<text x="254.41" y="11.555" transform="scale(1, -1)"
	style="font-family:Times;font-weight:normal;font-style:normal;font-size:12px">ns/op</text>
</g>
<text x="40.416" y="-25.509" transform="scale(1, -1)"
	style="font-family:Times;font-weight:normal;font-style:normal;font-size:10px">0</text>
<text x="20.416" y="-251.22" transform="scale(1, -1)"
	style="font-family:Times;font-weight:normal;font-style:normal;font-size:10px">80000</text>
<text x="15.416" y="-476.93" transform="scale(1, -1)"
	style="font-family:Times;font-weight:normal;font-style:normal;font-size:10px">160000</text>
<path d="M47.916,30.23L55.916,30.23" style="fill:none;stroke:#000000;stroke-width:0.5" />
<path d="M47.916,255.94L55.916,255.94" style="fill:none;stroke:#000000;stroke-width:0.5" />
<path d="M47.916,481.65L55.916,481.65" style="fill:none;stroke:#000000;stroke-width:0.5" />
<path d="M51.916,143.09L55.916,143.09" style="fill:none;stroke:#000000;stroke-width:0.5" />
<path d="M51.916,368.79L55.916,368.79" style="fill:none;stroke:#000000;stroke-width:0.5" />
<path d="M55.916,30.23L55.916,504.58" style="fill:none;stroke:#000000;stroke-width:0.5" />
<path d="M73.885,465.07L311.18,30.23L548.47,30.23L785.77,30.23L1023.1,30.23" style="fill:none;stroke:#F15A60" />
<path d="M73.885,30.23L311.18,465.07L548.47,30.23L785.77,30.23L1023.1,30.23" style="fill:none;stroke:#7AC36A" />
<path d="M73.885,30.23L311.18,30.23L548.47,501.92L785.77,30.23L1023.1,30.23" style="fill:none;stroke:#5A9BD4" />
<path d="M73.885,30.23L311.18,30.23L548.47,30.23L785.77,504.58L1023.1,30.23" style="fill:none;stroke:#FAA75B" />
<path d="M73.885,30.23L311.18,30.23L548.47,30.23L785.77,30.23L1023.1,425.57" style="fill:none;stroke:#9E67AB" />
<path d="M1020,498.7L1040,498.7" style="fill:none;stroke:#F15A60" />
<text x="975.67" y="-493.03" transform="scale(1, -1)"
	style="font-family:Times;font-weight:normal;font-style:normal;font-size:12px">7cd9055</text>
<path d="M1020,486.92L1040,486.92" style="fill:none;stroke:#7AC36A" />
<text x="977.7" y="-481.25" transform="scale(1, -1)"
	style="font-family:Times;font-weight:normal;font-style:normal;font-size:12px">3ab3ace</text>
<path d="M1020,475.14L1040,475.14" style="fill:none;stroke:#5A9BD4" />
<text x="979.03" y="-469.47" transform="scale(1, -1)"
	style="font-family:Times;font-weight:normal;font-style:normal;font-size:12px">92ae1af</text>
<path d="M1020,463.36L1040,463.36" style="fill:none;stroke:#FAA75B" />
<text x="977.68" y="-457.7" transform="scale(1, -1)"
	style="font-family:Times;font-weight:normal;font-style:normal;font-size:12px">920af9b</text>
<path d="M1020,451.59L1040,451.59" style="fill:none;stroke:#9E67AB" />
<text x="976.35" y="-445.92" transform="scale(1, -1)"
	style="font-family:Times;font-weight:normal;font-style:normal;font-size:12px">a1b93a0</text>
</g>
</svg>
