<?xml version="1.0"?>
<!-- Generated by SVGo and Plotinum VG -->
<svg width="380pt" height="190pt" viewBox="0 0 380 190"
	xmlns="http://www.w3.org/2000/svg"
	xmlns:xlink="http://www.w3.org/1999/xlink">
<g transform="scale(1, -1) translate(0, -190)">
<path d="M0,0L380,0L380,190L0,190Z" style="fill:#FFFFFF" />
<text x="93.602" y="-178.45" transform="scale(1, -1)"
	style="font-family:Times;font-weight:normal;font-style:normal;font-size:12px">BenchmarkDecode/size=1e6/text=twain</text>
<text x="200.84" y="-3.8613" transform="scale(1, -1)"
	style="font-family:Times;font-weight:normal;font-style:normal;font-size:12px">level</text>
<text x="41.666" y="-15.602" transform="scale(1, -1)"
	style="font-family:Times;font-weight:normal;font-style:normal;font-size:10px">speed</text>
<text x="198.62" y="-15.602" transform="scale(1, -1)"
	style="font-family:Times;font-weight:normal;font-style:normal;font-size:10px">default</text>
<text x="363.89" y="-15.602" transform="scale(1, -1)"
	style="font-family:Times;font-weight:normal;font-style:normal;font-size:10px">best</text>
<g transform="rotate(90)">
<text x="79.744" y="11.555" transform="scale(1, -1)"
	style="font-family:Times;font-weight:normal;font-style:normal;font-size:12px">allocs/op</text>
</g>
<text x="15.416" y="-48.75" transform="scale(1, -1)"
	style="font-family:Times;font-weight:normal;font-style:normal;font-size:10px">180</text>
<text x="15.416" y="-106.85" transform="scale(1, -1)"
	style="font-family:Times;font-weight:normal;font-style:normal;font-size:10px">200</text>
<text x="15.416" y="-164.96" transform="scale(1, -1)"
	style="font-family:Times;font-weight:normal;font-style:normal;font-size:10px">220</text>
<path d="M32.916,53.472L40.916,53.472" style="fill:none;stroke:#000000;stroke-width:0.5" />
<path d="M32.916,111.57L40.916,111.57" style="fill:none;stroke:#000000;stroke-width:0.5" />
<path d="M32.916,169.68L40.916,169.68" style="fill:none;stroke:#000000;stroke-width:0.5" />
<path d="M36.916,82.523L40.916,82.523" style="fill:none;stroke:#000000;stroke-width:0.5" />
<path d="M36.916,140.63L40.916,140.63" style="fill:none;stroke:#000000;stroke-width:0.5" />
<path d="M40.916,30.23L40.916,172.58" style="fill:none;stroke:#000000;stroke-width:0.5" />
<path d="M53.05,172.58L212.5,30.23L371.95,33.136" style="fill:none;stroke:#F15A60" />
<path d="M360,174.58L380,174.58" style="fill:none;stroke:#F15A60" />
</g>
</svg>
