<?xml version="1.0"?>
<!-- Generated by SVGo and Plotinum VG -->
<svg width="1100pt" height="550pt" viewBox="0 0 1100 550"
	xmlns="http://www.w3.org/2000/svg"
	xmlns:xlink="http://www.w3.org/1999/xlink">
<g transform="scale(1, -1) translate(0, -550)">
<path d="M0,0L1100,0L1100,550L0,550Z" style="fill:#FFFFFF" />
<text x="476.64" y="-538.45" transform="scale(1, -1)"
	style="font-family:Times;font-weight:normal;font-style:normal;font-size:12px">BenchmarkDecode/text=twain</text>
<text x="560.84" y="-3.8613" transform="scale(1, -1)"
	style="font-family:Times;font-weight:normal;font-style:normal;font-size:12px">level</text>
<text x="41.666" y="-15.602" transform="scale(1, -1)"
	style="font-family:Times;font-weight:normal;font-style:normal;font-size:10px">speed</text>
<text x="558.62" y="-15.602" transform="scale(1, -1)"
	style="font-family:Times;font-weight:normal;font-style:normal;font-size:10px">default</text>
<text x="1083.9" y="-15.602" transform="scale(1, -1)"
	style="font-family:Times;font-weight:normal;font-style:normal;font-size:10px">best</text>
<g transform="rotate(90)">
<text x="260.75" y="11.555" transform="scale(1, -1)"
	style="font-family:Times;font-weight:normal;font-style:normal;font-size:12px">allocs/op</text>
</g>
<text x="25.416" y="-25.509" transform="scale(1, -1)"
	style="font-family:Times;font-weight:normal;font-style:normal;font-size:10px">0</text>
<text x="15.416" y="-253.72" transform="scale(1, -1)"
	style="font-family:Times;font-weight:normal;font-style:normal;font-size:10px">100</text>
<text x="15.416" y="-481.94" transform="scale(1, -1)"
	style="font-family:Times;font-weight:normal;font-style:normal;font-size:10px">200</text>
<path d="M32.916,30.23L40.916,30.23" style="fill:none;stroke:#000000;stroke-width:0.5" />
<path d="M32.916,258.44L40.916,258.44" style="fill:none;stroke:#000000;stroke-width:0.5" />
<path d="M32.916,486.66L40.916,486.66" style="fill:none;stroke:#000000;stroke-width:0.5" />
<path d="M36.916,75.873L40.916,75.873" style="fill:none;stroke:#000000;stroke-width:0.5" />
<path d="M36.916,121.52L40.916,121.52" style="fill:none;stroke:#000000;stroke-width:0.5" />
<path d="M36.916,167.16L40.916,167.16" style="fill:none;stroke:#000000;stroke-width:0.5" />
<path d="M36.916,212.8L40.916,212.8" style="fill:none;stroke:#000000;stroke-width:0.5" />
<path d="M36.916,304.09L40.916,304.09" style="fill:none;stroke:#000000;stroke-width:0.5" />
<path d="M36.916,349.73L40.916,349.73" style="fill:none;stroke:#000000;stroke-width:0.5" />
<path d="M36.916,395.37L40.916,395.37" style="fill:none;stroke:#000000;stroke-width:0.5" />
<path d="M36.916,441.02L40.916,441.02" style="fill:none;stroke:#000000;stroke-width:0.5" />
<path d="M36.916,532.3L40.916,532.3" style="fill:none;stroke:#000000;stroke-width:0.5" />
<path d="M40.916,30.23L40.916,534.58" style="fill:none;stroke:#000000;stroke-width:0.5" />
<path d="M53.05,64.463L572.5,30.23L1091.9,30.23" style="fill:none;stroke:#F15A60" />
<path d="M53.05,100.98L572.5,30.23L1091.9,30.23" style="fill:none;stroke:#7AC36A" />
<path d="M53.05,534.58L572.5,30.23L1091.9,30.23" style="fill:none;stroke:#5A9BD4" />
<path d="M53.05,30.23L572.5,64.463L1091.9,30.23" style="fill:none;stroke:#FAA75B" />
<path d="M53.05,30.23L572.5,94.13L1091.9,30.23" style="fill:none;stroke:#9E67AB" />
<path d="M53.05,30.23L572.5,422.76L1091.9,30.23" style="fill:none;stroke:#CE7058" />
<path d="M53.05,30.23L572.5,30.23L1091.9,64.463" style="fill:none;stroke:#D77FB4" />
<path d="M53.05,30.23L572.5,30.23L1091.9,87.284" style="fill:none;stroke:#F15A60" />
<path d="M53.05,30.23L572.5,30.23L1091.9,425.04" style="fill:none;stroke:#7AC36A" />
<path d="M1080,528.7L1100,528.7" style="fill:none;stroke:#F15A60" />
<text x="965.85" y="-523.03" transform="scale(1, -1)"
	style="font-family:Times;font-weight:normal;font-style:normal;font-size:12px">[level=speed,size=1e4]</text>
<path d="M1080,516.92L1100,516.92" style="fill:none;stroke:#7AC36A" />
<text x="965.85" y="-511.25" transform="scale(1, -1)"
	style="font-family:Times;font-weight:normal;font-style:normal;font-size:12px">[level=speed,size=1e5]</text>
<path d="M1080,505.14L1100,505.14" style="fill:none;stroke:#5A9BD4" />
<text x="965.85" y="-499.47" transform="scale(1, -1)"
	style="font-family:Times;font-weight:normal;font-style:normal;font-size:12px">[level=speed,size=1e6]</text>
<path d="M1080,493.36L1100,493.36" style="fill:none;stroke:#FAA75B" />
<text x="959.85" y="-487.7" transform="scale(1, -1)"
	style="font-family:Times;font-weight:normal;font-style:normal;font-size:12px">[level=default,size=1e4]</text>
<path d="M1080,481.59L1100,481.59" style="fill:none;stroke:#9E67AB" />
<text x="959.85" y="-475.92" transform="scale(1, -1)"
	style="font-family:Times;font-weight:normal;font-style:normal;font-size:12px">[level=default,size=1e5]</text>
<path d="M1080,469.81L1100,469.81" style="fill:none;stroke:#CE7058" />
<text x="959.85" y="-464.14" transform="scale(1, -1)"
	style="font-family:Times;font-weight:normal;font-style:normal;font-size:12px">[level=default,size=1e6]</text>
<path d="M1080,458.03L1100,458.03" style="fill:none;stroke:#D77FB4" />
<text x="973.84" y="-452.37" transform="scale(1, -1)"
	style="font-family:Times;font-weight:normal;font-style:normal;font-size:12px">[level=best,size=1e4]</text>
<path d="M1080,446.25L1100,446.25" style="fill:none;stroke:#F15A60" />
<text x="973.84" y="-440.59" transform="scale(1, -1)"
	style="font-family:Times;font-weight:normal;font-style:normal;font-size:12px">[level=best,size=1e5]</text>
<path d="M1080,434.48L1100,434.48" style="fill:none;stroke:#7AC36A" />
<text x="973.84" y="-428.81" transform="scale(1, -1)"
	style="font-family:Times;font-weight:normal;font-style:normal;font-size:12px">[level=best,size=1e6]</text>
</g>
</svg>
