<?xml version="1.0"?>
<!-- Generated by SVGo and Plotinum VG -->
<svg width="560pt" height="280pt" viewBox="0 0 560 280"
	xmlns="http://www.w3.org/2000/svg"
	xmlns:xlink="http://www.w3.org/1999/xlink">
<g transform="scale(1, -1) translate(0, -280)">
<path d="M0,0L560,0L560,280L0,280Z" style="fill:#FFFFFF" />
<text x="206.64" y="-268.45" transform="scale(1, -1)"
	style="font-family:Times;font-weight:normal;font-style:normal;font-size:12px">BenchmarkDecode/text=twain</text>
<text x="290.84" y="-3.8613" transform="scale(1, -1)"
	style="font-family:Times;font-weight:normal;font-style:normal;font-size:12px">level</text>
<text x="41.666" y="-15.602" transform="scale(1, -1)"
	style="font-family:Times;font-weight:normal;font-style:normal;font-size:10px">speed</text>
<text x="288.62" y="-15.602" transform="scale(1, -1)"
	style="font-family:Times;font-weight:normal;font-style:normal;font-size:10px">default</text>
<text x="543.89" y="-15.602" transform="scale(1, -1)"
	style="font-family:Times;font-weight:normal;font-style:normal;font-size:10px">best</text>
<g transform="rotate(90)">
<text x="125.75" y="11.555" transform="scale(1, -1)"
	style="font-family:Times;font-weight:normal;font-style:normal;font-size:12px">allocs/op</text>
</g>
<text x="20.416" y="-53.95" transform="scale(1, -1)"
	style="font-family:Times;font-weight:normal;font-style:normal;font-size:10px">40</text>
<text x="15.416" y="-144.96" transform="scale(1, -1)"
	style="font-family:Times;font-weight:normal;font-style:normal;font-size:10px">120</text>
<text x="15.416" y="-235.97" transform="scale(1, -1)"
	style="font-family:Times;font-weight:normal;font-style:normal;font-size:10px">200</text>
<path d="M32.916,58.671L40.916,58.671" style="fill:none;stroke:#000000;stroke-width:0.5" />
<path d="M32.916,149.68L40.916,149.68" style="fill:none;stroke:#000000;stroke-width:0.5" />
<path d="M32.916,240.69L40.916,240.69" style="fill:none;stroke:#000000;stroke-width:0.5" />
<path d="M36.916,104.18L40.916,104.18" style="fill:none;stroke:#000000;stroke-width:0.5" />
<path d="M36.916,195.19L40.916,195.19" style="fill:none;stroke:#000000;stroke-width:0.5" />
<path d="M40.916,30.23L40.916,264.58" style="fill:none;stroke:#000000;stroke-width:0.5" />
<path d="M53.05,30.23L302.5,30.23L551.95,30.23" style="fill:none;stroke:#F15A60" />
<path d="M53.05,48.433L302.5,45.02L551.95,41.607" style="fill:none;stroke:#7AC36A" />
<path d="M53.05,264.58L302.5,208.84L551.95,209.98" style="fill:none;stroke:#5A9BD4" />
<path d="M540,258.7L560,258.7" style="fill:none;stroke:#F15A60" />
<text x="519.67" y="-253.03" transform="scale(1, -1)"
	style="font-family:Times;font-weight:normal;font-style:normal;font-size:12px">1e4</text>
<path d="M540,246.92L560,246.92" style="fill:none;stroke:#7AC36A" />
<text x="519.67" y="-241.25" transform="scale(1, -1)"
	style="font-family:Times;font-weight:normal;font-style:normal;font-size:12px">1e5</text>
<path d="M540,235.14L560,235.14" style="fill:none;stroke:#5A9BD4" />
<text x="519.67" y="-229.47" transform="scale(1, -1)"
	style="font-family:Times;font-weight:normal;font-style:normal;font-size:12px">1e6</text>
</g>
</svg>
