<?xml version="1.0"?>
<!-- Generated by SVGo and Plotinum VG -->
<svg width="590pt" height="295pt" viewBox="0 0 590 295"
	xmlns="http://www.w3.org/2000/svg"
	xmlns:xlink="http://www.w3.org/1999/xlink">
<g transform="scale(1, -1) translate(0, -295)">
<path d="M0,0L590,0L590,295L0,295Z" style="fill:#FFFFFF" />
<text x="236.01" y="-283.45" transform="scale(1, -1)"
	style="font-family:Times;font-weight:normal;font-style:normal;font-size:12px">BenchmarkTdigest_Add</text>
<text x="317.39" y="-3.8613" transform="scale(1, -1)"
	style="font-family:Times;font-weight:normal;font-style:normal;font-size:12px">source</text>
<text x="81.666" y="-15.602" transform="scale(1, -1)"
	style="font-family:Times;font-weight:normal;font-style:normal;font-size:10px">linear</text>
<text x="204.17" y="-15.602" transform="scale(1, -1)"
	style="font-family:Times;font-weight:normal;font-style:normal;font-size:10px">rand</text>
<text x="311.67" y="-15.602" transform="scale(1, -1)"
	style="font-family:Times;font-weight:normal;font-style:normal;font-size:10px">alternating</text>
<text x="438.89" y="-15.602" transform="scale(1, -1)"
	style="font-family:Times;font-weight:normal;font-style:normal;font-size:10px">normal</text>
<text x="556.12" y="-15.602" transform="scale(1, -1)"
	style="font-family:Times;font-weight:normal;font-style:normal;font-size:10px">tailspike</text>
<g transform="rotate(90)">
<text x="130.79" y="11.555" transform="scale(1, -1)"
	style="font-family:Times;font-weight:normal;font-style:normal;font-size:12px">allocs/op</text>
</g>
<text x="20.416" y="-25.509" transform="scale(1, -1)"
	style="font-family:Times;font-weight:normal;font-style:normal;font-size:10px">0</text>
<text x="20.416" y="-147.73" transform="scale(1, -1)"
	style="font-family:Times;font-weight:normal;font-style:normal;font-size:10px">5</text>
<text x="15.416" y="-269.96" transform="scale(1, -1)"
	style="font-family:Times;font-weight:normal;font-style:normal;font-size:10px">10</text>
<path d="M27.916,30.23L35.916,30.23" style="fill:none;stroke:#000000;stroke-width:0.5" />
<path d="M27.916,152.45L35.916,152.45" style="fill:none;stroke:#000000;stroke-width:0.5" />
<path d="M27.916,274.68L35.916,274.68" style="fill:none;stroke:#000000;stroke-width:0.5" />
<path d="M31.916,54.675L35.916,54.675" style="fill:none;stroke:#000000;stroke-width:0.5" />
<path d="M31.916,79.12L35.916,79.12" style="fill:none;stroke:#000000;stroke-width:0.5" />
<path d="M31.916,103.56L35.916,103.56" style="fill:none;stroke:#000000;stroke-width:0.5" />
<path d="M31.916,128.01L35.916,128.01" style="fill:none;stroke:#000000;stroke-width:0.5" />
<path d="M31.916,176.9L35.916,176.9" style="fill:none;stroke:#000000;stroke-width:0.5" />
<path d="M31.916,201.34L35.916,201.34" style="fill:none;stroke:#000000;stroke-width:0.5" />
<path d="M31.916,225.79L35.916,225.79" style="fill:none;stroke:#000000;stroke-width:0.5" />
<path d="M31.916,250.23L35.916,250.23" style="fill:none;stroke:#000000;stroke-width:0.5" />
<path d="M35.916,30.23L35.916,274.68" style="fill:none;stroke:#000000;stroke-width:0.5" />
<path d="M48.048,30.23L48.048,30.23L78.048,30.23L78.048,30.23Z" style="fill:#F15A60" />
<path d="M168.05,30.23L168.05,30.23L198.05,30.23L198.05,30.23Z" style="fill:#F15A60" />
<path d="M288.05,30.23L288.05,30.23L318.05,30.23L318.05,30.23Z" style="fill:#F15A60" />
<path d="M408.06,30.23L408.06,30.23L438.06,30.23L438.06,30.23Z" style="fill:#F15A60" />
<path d="M528.06,30.23L528.06,30.23L558.06,30.23L558.06,30.23Z" style="fill:#F15A60" />
<path d="M78.048,30.23L78.048,54.675L108.05,54.675L108.05,30.23Z" style="fill:#7AC36A" />
<path d="M198.05,30.23L198.05,54.675L228.05,54.675L228.05,30.23Z" style="fill:#7AC36A" />
<path d="M318.05,30.23L318.05,274.68L348.05,274.68L348.05,30.23Z" style="fill:#7AC36A" />
<path d="M438.06,30.23L438.06,54.675L468.06,54.675L468.06,30.23Z" style="fill:#7AC36A" />
<path d="M558.06,30.23L558.06,54.675L588.06,54.675L588.06,30.23Z" style="fill:#7AC36A" />
<path d="M570,267.81L570,279.58L590,279.58L590,267.81Z" style="fill:#F15A60" />
<text x="547.01" y="-268.03" transform="scale(1, -1)"
	style="font-family:Times;font-weight:normal;font-style:normal;font-size:12px">caio</text>
<path d="M570,256.03L570,267.81L590,267.81L590,256.03Z" style="fill:#7AC36A" />
<text x="517.68" y="-256.25" transform="scale(1, -1)"
	style="font-family:Times;font-weight:normal;font-style:normal;font-size:12px">segmentio</text>
</g>
</svg>
