<?xml version="1.0"?>
<!-- Generated by SVGo and Plotinum VG -->
<svg width="1190pt" height="595pt" viewBox="0 0 1190 595"
	xmlns="http://www.w3.org/2000/svg"
	xmlns:xlink="http://www.w3.org/1999/xlink">
<g transform="scale(1, -1) translate(0, -595)">
<path d="M0,0L1190,0L1190,595L0,595Z" style="fill:#FFFFFF" />
<text x="474.26" y="-583.45" transform="scale(1, -1)"
	style="font-family:Times;font-weight:normal;font-style:normal;font-size:12px">BenchmarkCorrectness/size=1000000/digest=caio</text>
<text x="603.75" y="-3.8613" transform="scale(1, -1)"
	style="font-family:Times;font-weight:normal;font-style:normal;font-size:12px">quant</text>
<text x="44.166" y="-15.602" transform="scale(1, -1)"
	style="font-family:Times;font-weight:normal;font-style:normal;font-size:10px">0.000000</text>
<text x="265.83" y="-15.602" transform="scale(1, -1)"
	style="font-family:Times;font-weight:normal;font-style:normal;font-size:10px">0.100000</text>
<text x="487.5" y="-15.602" transform="scale(1, -1)"
	style="font-family:Times;font-weight:normal;font-style:normal;font-size:10px">0.500000</text>
<text x="709.17" y="-15.602" transform="scale(1, -1)"
	style="font-family:Times;font-weight:normal;font-style:normal;font-size:10px">0.900000</text>
<text x="930.83" y="-15.602" transform="scale(1, -1)"
	style="font-family:Times;font-weight:normal;font-style:normal;font-size:10px">0.990000</text>
<text x="1152.5" y="-15.602" transform="scale(1, -1)"
	style="font-family:Times;font-weight:normal;font-style:normal;font-size:10px">0.999000</text>
<g transform="rotate(90)">
<text x="291.91" y="11.555" transform="scale(1, -1)"
	style="font-family:Times;font-weight:normal;font-style:normal;font-size:12px">ns/op</text>
</g>
<text x="15.416" y="-114.51" transform="scale(1, -1)"
	style="font-family:Times;font-weight:normal;font-style:normal;font-size:10px">0.02</text>
<text x="15.416" y="-319.11" transform="scale(1, -1)"
	style="font-family:Times;font-weight:normal;font-style:normal;font-size:10px">0.04</text>
<text x="15.416" y="-523.71" transform="scale(1, -1)"
	style="font-family:Times;font-weight:normal;font-style:normal;font-size:10px">0.06</text>
<path d="M35.416,119.23L43.416,119.23" style="fill:none;stroke:#000000;stroke-width:0.5" />
<path d="M35.416,323.83L43.416,323.83" style="fill:none;stroke:#000000;stroke-width:0.5" />
<path d="M35.416,528.43L43.416,528.43" style="fill:none;stroke:#000000;stroke-width:0.5" />
<path d="M39.416,221.53L43.416,221.53" style="fill:none;stroke:#000000;stroke-width:0.5" />
<path d="M39.416,426.13L43.416,426.13" style="fill:none;stroke:#000000;stroke-width:0.5" />
<path d="M43.416,30.23L43.416,579.58" style="fill:none;stroke:#000000;stroke-width:0.5" />
<path d="M62.916,563.22L284.58,536.62L506.25,538.66L727.92,579.58L949.58,537.64L1171.2,536.62" style="fill:none;stroke:#F15A60" />
<path d="M62.916,578.56L284.58,578.56L506.25,544.8L727.92,535.59L949.58,566.28L1171.2,537.64" style="fill:none;stroke:#7AC36A" />
<path d="M62.916,30.23L284.58,30.23L506.25,33.299L727.92,31.253L949.58,34.322L1171.2,32.276" style="fill:none;stroke:#5A9BD4" />
<path d="M62.916,540.71L284.58,549.92L506.25,556.05L727.92,579.58L949.58,537.64L1171.2,535.59" style="fill:none;stroke:#FAA75B" />
<path d="M62.916,538.66L284.58,536.62L506.25,537.64L727.92,551.96L949.58,575.49L1171.2,566.28" style="fill:none;stroke:#9E67AB" />
<path d="M1170,573.7L1190,573.7" style="fill:none;stroke:#F15A60" />
<text x="1139.7" y="-568.03" transform="scale(1, -1)"
	style="font-family:Times;font-weight:normal;font-style:normal;font-size:12px">linear</text>
<path d="M1170,561.92L1190,561.92" style="fill:none;stroke:#7AC36A" />
<text x="1145.7" y="-556.25" transform="scale(1, -1)"
	style="font-family:Times;font-weight:normal;font-style:normal;font-size:12px">rand</text>
<path d="M1170,550.14L1190,550.14" style="fill:none;stroke:#5A9BD4" />
<text x="1115.7" y="-544.47" transform="scale(1, -1)"
	style="font-family:Times;font-weight:normal;font-style:normal;font-size:12px">alternating</text>
<path d="M1170,538.36L1190,538.36" style="fill:none;stroke:#FAA75B" />
<text x="1133" y="-532.7" transform="scale(1, -1)"
	style="font-family:Times;font-weight:normal;font-style:normal;font-size:12px">normal</text>
<path d="M1170,526.59L1190,526.59" style="fill:none;stroke:#9E67AB" />
<text x="1126.3" y="-520.92" transform="scale(1, -1)"
	style="font-family:Times;font-weight:normal;font-style:normal;font-size:12px">tailspike</text>
</g>
</svg>
