<?xml version="1.0"?>
<!-- Generated by SVGo and Plotinum VG -->
<svg width="830pt" height="415pt" viewBox="0 0 830 415"
	xmlns="http://www.w3.org/2000/svg"
	xmlns:xlink="http://www.w3.org/1999/xlink">
<g transform="scale(1, -1) translate(0, -415)">
<path d="M0,0L830,0L830,415L0,415Z" style="fill:#FFFFFF" />
<text x="345.98" y="-403.45" transform="scale(1, -1)"
	style="font-family:Times;font-weight:normal;font-style:normal;font-size:12px">BenchmarkDecode/size=1e6</text>
<text x="457.36" y="-3.8613" transform="scale(1, -1)"
	style="font-family:Times;font-weight:normal;font-style:normal;font-size:12px">level</text>
<text x="171.67" y="-15.602" transform="scale(1, -1)"
	style="font-family:Times;font-weight:normal;font-style:normal;font-size:10px">speed</text>
<text x="455.14" y="-15.602" transform="scale(1, -1)"
	style="font-family:Times;font-weight:normal;font-style:normal;font-size:10px">default</text>
<text x="746.95" y="-15.602" transform="scale(1, -1)"
	style="font-family:Times;font-weight:normal;font-style:normal;font-size:10px">best</text>
<g transform="rotate(90)">
<text x="201.91" y="11.555" transform="scale(1, -1)"
	style="font-family:Times;font-weight:normal;font-style:normal;font-size:12px">ns/op</text>
</g>
<text x="50.416" y="-25.509" transform="scale(1, -1)"
	style="font-family:Times;font-weight:normal;font-style:normal;font-size:10px">0</text>
<text x="20.416" y="-131.95" transform="scale(1, -1)"
	style="font-family:Times;font-weight:normal;font-style:normal;font-size:10px">4000000</text>
<text x="20.416" y="-238.4" transform="scale(1, -1)"
	style="font-family:Times;font-weight:normal;font-style:normal;font-size:10px">8000000</text>
<text x="15.416" y="-344.84" transform="scale(1, -1)"
	style="font-family:Times;font-weight:normal;font-style:normal;font-size:10px">12000000</text>
<path d="M57.916,30.23L65.916,30.23" style="fill:none;stroke:#000000;stroke-width:0.5" />
<path d="M57.916,136.67L65.916,136.67" style="fill:none;stroke:#000000;stroke-width:0.5" />
<path d="M57.916,243.12L65.916,243.12" style="fill:none;stroke:#000000;stroke-width:0.5" />
<path d="M57.916,349.56L65.916,349.56" style="fill:none;stroke:#000000;stroke-width:0.5" />
<path d="M61.916,56.841L65.916,56.841" style="fill:none;stroke:#000000;stroke-width:0.5" />
<path d="M61.916,83.452L65.916,83.452" style="fill:none;stroke:#000000;stroke-width:0.5" />
<path d="M61.916,110.06L65.916,110.06" style="fill:none;stroke:#000000;stroke-width:0.5" />
<path d="M61.916,163.28L65.916,163.28" style="fill:none;stroke:#000000;stroke-width:0.5" />
<path d="M61.916,189.9L65.916,189.9" style="fill:none;stroke:#000000;stroke-width:0.5" />
<path d="M61.916,216.51L65.916,216.51" style="fill:none;stroke:#000000;stroke-width:0.5" />
<path d="M61.916,269.73L65.916,269.73" style="fill:none;stroke:#000000;stroke-width:0.5" />
<path d="M61.916,296.34L65.916,296.34" style="fill:none;stroke:#000000;stroke-width:0.5" />
<path d="M61.916,322.95L65.916,322.95" style="fill:none;stroke:#000000;stroke-width:0.5" />
<path d="M61.916,376.17L65.916,376.17" style="fill:none;stroke:#000000;stroke-width:0.5" />
<path d="M65.916,30.23L65.916,399.58" style="fill:none;stroke:#000000;stroke-width:0.5" />
<path d="M78.05,30.23L78.05,399.58L108.05,399.58L108.05,30.23Z" style="fill:#F15A60" />
<path d="M364.03,30.23L364.03,30.23L394.03,30.23L394.03,30.23Z" style="fill:#F15A60" />
<path d="M650,30.23L650,30.23L680,30.23L680,30.23Z" style="fill:#F15A60" />
<path d="M108.05,30.23L108.05,30.23L138.05,30.23L138.05,30.23Z" style="fill:#7AC36A" />
<path d="M394.03,30.23L394.03,344.47L424.03,344.47L424.03,30.23Z" style="fill:#7AC36A" />
<path d="M680,30.23L680,30.23L710,30.23L710,30.23Z" style="fill:#7AC36A" />
<path d="M138.05,30.23L138.05,30.23L168.05,30.23L168.05,30.23Z" style="fill:#5A9BD4" />
<path d="M424.03,30.23L424.03,30.23L454.03,30.23L454.03,30.23Z" style="fill:#5A9BD4" />
<path d="M710,30.23L710,342.65L740,342.65L740,30.23Z" style="fill:#5A9BD4" />
<path d="M168.05,30.23L168.05,352.98L198.05,352.98L198.05,30.23Z" style="fill:#FAA75B" />
<path d="M454.03,30.23L454.03,30.23L484.03,30.23L484.03,30.23Z" style="fill:#FAA75B" />
<path d="M740,30.23L740,30.23L770,30.23L770,30.23Z" style="fill:#FAA75B" />
<path d="M198.05,30.23L198.05,30.23L228.05,30.23L228.05,30.23Z" style="fill:#9E67AB" />
<path d="M484.03,30.23L484.03,299.17L514.03,299.17L514.03,30.23Z" style="fill:#9E67AB" />
<path d="M770,30.23L770,30.23L800,30.23L800,30.23Z" style="fill:#9E67AB" />
<path d="M228.05,30.23L228.05,30.23L258.05,30.23L258.05,30.23Z" style="fill:#CE7058" />
<path d="M514.03,30.23L514.03,30.23L544.03,30.23L544.03,30.23Z" style="fill:#CE7058" />
<path d="M800,30.23L800,297.41L830,297.41L830,30.23Z" style="fill:#CE7058" />
<path d="M810,387.81L810,399.58L830,399.58L830,387.81Z" style="fill:#F15A60" />
<text x="687.16" y="-388.03" transform="scale(1, -1)"
	style="font-family:Times;font-weight:normal;font-style:normal;font-size:12px">[text=digits,level=speed]</text>
<path d="M810,376.03L810,387.81L830,387.81L830,376.03Z" style="fill:#7AC36A" />
<text x="681.17" y="-376.25" transform="scale(1, -1)"
	style="font-family:Times;font-weight:normal;font-style:normal;font-size:12px">[text=digits,level=default]</text>
<path d="M810,364.25L810,376.03L830,376.03L830,364.25Z" style="fill:#5A9BD4" />
<text x="695.16" y="-364.47" transform="scale(1, -1)"
	style="font-family:Times;font-weight:normal;font-style:normal;font-size:12px">[text=digits,level=best]</text>
<path d="M810,352.47L810,364.25L830,364.25L830,352.47Z" style="fill:#FAA75B" />
<text x="687.18" y="-352.7" transform="scale(1, -1)"
	style="font-family:Times;font-weight:normal;font-style:normal;font-size:12px">[text=twain,level=speed]</text>
<path d="M810,340.7L810,352.47L830,352.47L830,340.7Z" style="fill:#9E67AB" />
<text x="681.18" y="-340.92" transform="scale(1, -1)"
	style="font-family:Times;font-weight:normal;font-style:normal;font-size:12px">[text=twain,level=default]</text>
<path d="M810,328.92L810,340.7L830,340.7L830,328.92Z" style="fill:#CE7058" />
<text x="695.17" y="-329.14" transform="scale(1, -1)"
	style="font-family:Times;font-weight:normal;font-style:normal;font-size:12px">[text=twain,level=best]</text>
</g>
</svg>
