<?xml version="1.0"?>
<!-- Generated by SVGo and Plotinum VG -->
<svg width="470pt" height="235pt" viewBox="0 0 470 235"
	xmlns="http://www.w3.org/2000/svg"
	xmlns:xlink="http://www.w3.org/1999/xlink">
<g transform="scale(1, -1) translate(0, -235)">
<path d="M0,0L470,0L470,235L0,235Z" style="fill:#FFFFFF" />
<text x="165.98" y="-223.45" transform="scale(1, -1)"
	style="font-family:Times;font-weight:normal;font-style:normal;font-size:12px">BenchmarkDecode/size=1e6</text>
<text x="277.36" y="-3.8613" transform="scale(1, -1)"
	style="font-family:Times;font-weight:normal;font-style:normal;font-size:12px">level</text>
<text x="111.67" y="-15.602" transform="scale(1, -1)"
	style="font-family:Times;font-weight:normal;font-style:normal;font-size:10px">speed</text>
<text x="275.14" y="-15.602" transform="scale(1, -1)"
	style="font-family:Times;font-weight:normal;font-style:normal;font-size:10px">default</text>
<text x="446.95" y="-15.602" transform="scale(1, -1)"
	style="font-family:Times;font-weight:normal;font-style:normal;font-size:10px">best</text>
<g transform="rotate(90)">
<text x="111.91" y="11.555" transform="scale(1, -1)"
	style="font-family:Times;font-weight:normal;font-style:normal;font-size:12px">ns/op</text>
</g>
<text x="50.416" y="-25.509" transform="scale(1, -1)"
	style="font-family:Times;font-weight:normal;font-style:normal;font-size:10px">0</text>
<text x="20.416" y="-80.078" transform="scale(1, -1)"
	style="font-family:Times;font-weight:normal;font-style:normal;font-size:10px">4000000</text>
<text x="20.416" y="-134.65" transform="scale(1, -1)"
	style="font-family:Times;font-weight:normal;font-style:normal;font-size:10px">8000000</text>
<text x="15.416" y="-189.22" transform="scale(1, -1)"
	style="font-family:Times;font-weight:normal;font-style:normal;font-size:10px">12000000</text>
<path d="M57.916,30.23L65.916,30.23" style="fill:none;stroke:#000000;stroke-width:0.5" />
<path d="M57.916,84.8L65.916,84.8" style="fill:none;stroke:#000000;stroke-width:0.5" />
<path d="M57.916,139.37L65.916,139.37" style="fill:none;stroke:#000000;stroke-width:0.5" />
<path d="M57.916,193.94L65.916,193.94" style="fill:none;stroke:#000000;stroke-width:0.5" />
<path d="M61.916,43.873L65.916,43.873" style="fill:none;stroke:#000000;stroke-width:0.5" />
<path d="M61.916,57.515L65.916,57.515" style="fill:none;stroke:#000000;stroke-width:0.5" />
<path d="M61.916,71.158L65.916,71.158" style="fill:none;stroke:#000000;stroke-width:0.5" />
<path d="M61.916,98.442L65.916,98.442" style="fill:none;stroke:#000000;stroke-width:0.5" />
<path d="M61.916,112.08L65.916,112.08" style="fill:none;stroke:#000000;stroke-width:0.5" />
<path d="M61.916,125.73L65.916,125.73" style="fill:none;stroke:#000000;stroke-width:0.5" />
<path d="M61.916,153.01L65.916,153.01" style="fill:none;stroke:#000000;stroke-width:0.5" />
<path d="M61.916,166.65L65.916,166.65" style="fill:none;stroke:#000000;stroke-width:0.5" />
<path d="M61.916,180.3L65.916,180.3" style="fill:none;stroke:#000000;stroke-width:0.5" />
<path d="M61.916,207.58L65.916,207.58" style="fill:none;stroke:#000000;stroke-width:0.5" />
<path d="M65.916,30.23L65.916,219.58" style="fill:none;stroke:#000000;stroke-width:0.5" />
<path d="M78.05,30.23L78.05,219.58L108.05,219.58L108.05,30.23Z" style="fill:#F15A60" />
<path d="M244.03,30.23L244.03,191.33L274.03,191.33L274.03,30.23Z" style="fill:#F15A60" />
<path d="M410,30.23L410,190.4L440,190.4L440,30.23Z" style="fill:#F15A60" />
<path d="M108.05,30.23L108.05,195.69L138.05,195.69L138.05,30.23Z" style="fill:#7AC36A" />
<path d="M274.03,30.23L274.03,168.11L304.03,168.11L304.03,30.23Z" style="fill:#7AC36A" />
<path d="M440,30.23L440,167.2L470,167.2L470,30.23Z" style="fill:#7AC36A" />
<path d="M450,207.81L450,219.58L470,219.58L470,207.81Z" style="fill:#F15A60" />
<text x="420.33" y="-208.03" transform="scale(1, -1)"
	style="font-family:Times;font-weight:normal;font-style:normal;font-size:12px">digits</text>
<path d="M450,196.03L450,207.81L470,207.81L470,196.03Z" style="fill:#7AC36A" />
<text x="420.34" y="-196.25" transform="scale(1, -1)"
	style="font-family:Times;font-weight:normal;font-style:normal;font-size:12px">twain</text>
</g>
</svg>
