<?xml version="1.0"?>
<!-- Generated by SVGo and Plotinum VG -->
<svg width="470pt" height="235pt" viewBox="0 0 470 235"
	xmlns="http://www.w3.org/2000/svg"
	xmlns:xlink="http://www.w3.org/1999/xlink">
<g transform="scale(1, -1) translate(0, -235)">
<path d="M0,0L470,0L470,235L0,235Z" style="fill:#FFFFFF" />
<text x="165.98" y="-223.45" transform="scale(1, -1)"
	style="font-family:Times;font-weight:normal;font-style:normal;font-size:12px">BenchmarkDecode/size=1e6</text>
<text x="264.86" y="-3.8613" transform="scale(1, -1)"
	style="font-family:Times;font-weight:normal;font-style:normal;font-size:12px">level</text>
<text x="86.666" y="-15.602" transform="scale(1, -1)"
	style="font-family:Times;font-weight:normal;font-style:normal;font-size:10px">speed</text>
<text x="262.64" y="-15.602" transform="scale(1, -1)"
	style="font-family:Times;font-weight:normal;font-style:normal;font-size:10px">default</text>
<text x="446.95" y="-15.602" transform="scale(1, -1)"
	style="font-family:Times;font-weight:normal;font-style:normal;font-size:10px">best</text>
<g transform="rotate(90)">
<text x="103.25" y="11.555" transform="scale(1, -1)"
	style="font-family:Times;font-weight:normal;font-style:normal;font-size:12px">allocs/op</text>
</g>
<text x="25.416" y="-25.509" transform="scale(1, -1)"
	style="font-family:Times;font-weight:normal;font-style:normal;font-size:10px">0</text>
<text x="15.416" y="-111.19" transform="scale(1, -1)"
	style="font-family:Times;font-weight:normal;font-style:normal;font-size:10px">100</text>
<text x="15.416" y="-196.87" transform="scale(1, -1)"
	style="font-family:Times;font-weight:normal;font-style:normal;font-size:10px">200</text>
<path d="M32.916,30.23L40.916,30.23" style="fill:none;stroke:#000000;stroke-width:0.5" />
<path d="M32.916,115.91L40.916,115.91" style="fill:none;stroke:#000000;stroke-width:0.5" />
<path d="M32.916,201.59L40.916,201.59" style="fill:none;stroke:#000000;stroke-width:0.5" />
<path d="M36.916,47.367L40.916,47.367" style="fill:none;stroke:#000000;stroke-width:0.5" />
<path d="M36.916,64.503L40.916,64.503" style="fill:none;stroke:#000000;stroke-width:0.5" />
<path d="M36.916,81.639L40.916,81.639" style="fill:none;stroke:#000000;stroke-width:0.5" />
<path d="M36.916,98.775L40.916,98.775" style="fill:none;stroke:#000000;stroke-width:0.5" />
<path d="M36.916,133.05L40.916,133.05" style="fill:none;stroke:#000000;stroke-width:0.5" />
<path d="M36.916,150.18L40.916,150.18" style="fill:none;stroke:#000000;stroke-width:0.5" />
<path d="M36.916,167.32L40.916,167.32" style="fill:none;stroke:#000000;stroke-width:0.5" />
<path d="M36.916,184.46L40.916,184.46" style="fill:none;stroke:#000000;stroke-width:0.5" />
<path d="M36.916,218.73L40.916,218.73" style="fill:none;stroke:#000000;stroke-width:0.5" />
<path d="M40.916,30.23L40.916,219.58" style="fill:none;stroke:#000000;stroke-width:0.5" />
<path d="M53.05,30.23L53.05,110.77L83.05,110.77L83.05,30.23Z" style="fill:#F15A60" />
<path d="M231.53,30.23L231.53,98.775L261.53,98.775L261.53,30.23Z" style="fill:#F15A60" />
<path d="M410,30.23L410,98.775L440,98.775L440,30.23Z" style="fill:#F15A60" />
<path d="M83.05,30.23L83.05,219.58L113.05,219.58L113.05,30.23Z" style="fill:#7AC36A" />
<path d="M261.53,30.23L261.53,177.6L291.53,177.6L291.53,30.23Z" style="fill:#7AC36A" />
<path d="M440,30.23L440,178.46L470,178.46L470,30.23Z" style="fill:#7AC36A" />
<path d="M450,207.81L450,219.58L470,219.58L470,207.81Z" style="fill:#F15A60" />
<text x="420.33" y="-208.03" transform="scale(1, -1)"
	style="font-family:Times;font-weight:normal;font-style:normal;font-size:12px">digits</text>
<path d="M450,196.03L450,207.81L470,207.81L470,196.03Z" style="fill:#7AC36A" />
<text x="420.34" y="-196.25" transform="scale(1, -1)"
	style="font-family:Times;font-weight:normal;font-style:normal;font-size:12px">twain</text>
</g>
</svg>
