<?xml version="1.0"?>
<!-- Generated by SVGo and Plotinum VG -->
<svg width="1790pt" height="895pt" viewBox="0 0 1790 895"
	xmlns="http://www.w3.org/2000/svg"
	xmlns:xlink="http://www.w3.org/1999/xlink">
<g transform="scale(1, -1) translate(0, -895)">
<path d="M0,0L1790,0L1790,895L0,895Z" style="fill:#FFFFFF" />
<text x="836.01" y="-883.45" transform="scale(1, -1)"
	style="font-family:Times;font-weight:normal;font-style:normal;font-size:12px">BenchmarkTdigest_Add</text>
<text x="929.61" y="-3.8613" transform="scale(1, -1)"
	style="font-family:Times;font-weight:normal;font-style:normal;font-size:12px">source</text>
<text x="224.17" y="-15.602" transform="scale(1, -1)"
	style="font-family:Times;font-weight:normal;font-style:normal;font-size:10px">linear</text>
<text x="581.53" y="-15.602" transform="scale(1, -1)"
	style="font-family:Times;font-weight:normal;font-style:normal;font-size:10px">rand</text>
<text x="923.89" y="-15.602" transform="scale(1, -1)"
	style="font-family:Times;font-weight:normal;font-style:normal;font-size:10px">alternating</text>
<text x="1286" y="-15.602" transform="scale(1, -1)"
	style="font-family:Times;font-weight:normal;font-style:normal;font-size:10px">normal</text>
<text x="1638.1" y="-15.602" transform="scale(1, -1)"
	style="font-family:Times;font-weight:normal;font-style:normal;font-size:10px">tailspike</text>
<g transform="rotate(90)">
<text x="441.91" y="11.555" transform="scale(1, -1)"
	style="font-family:Times;font-weight:normal;font-style:normal;font-size:12px">ns/op</text>
</g>
<text x="30.416" y="-25.509" transform="scale(1, -1)"
	style="font-family:Times;font-weight:normal;font-style:normal;font-size:10px">0.00</text>
<text x="15.416" y="-399.74" transform="scale(1, -1)"
	style="font-family:Times;font-weight:normal;font-style:normal;font-size:10px">2500.00</text>
<text x="15.416" y="-773.97" transform="scale(1, -1)"
	style="font-family:Times;font-weight:normal;font-style:normal;font-size:10px">5000.00</text>
<path d="M50.416,30.23L58.416,30.23" style="fill:none;stroke:#000000;stroke-width:0.5" />
<path d="M50.416,404.46L58.416,404.46" style="fill:none;stroke:#000000;stroke-width:0.5" />
<path d="M50.416,778.69L58.416,778.69" style="fill:none;stroke:#000000;stroke-width:0.5" />
<path d="M54.416,105.08L58.416,105.08" style="fill:none;stroke:#000000;stroke-width:0.5" />
<path d="M54.416,179.92L58.416,179.92" style="fill:none;stroke:#000000;stroke-width:0.5" />
<path d="M54.416,254.77L58.416,254.77" style="fill:none;stroke:#000000;stroke-width:0.5" />
<path d="M54.416,329.61L58.416,329.61" style="fill:none;stroke:#000000;stroke-width:0.5" />
<path d="M54.416,479.31L58.416,479.31" style="fill:none;stroke:#000000;stroke-width:0.5" />
<path d="M54.416,554.15L58.416,554.15" style="fill:none;stroke:#000000;stroke-width:0.5" />
<path d="M54.416,629L58.416,629" style="fill:none;stroke:#000000;stroke-width:0.5" />
<path d="M54.416,703.85L58.416,703.85" style="fill:none;stroke:#000000;stroke-width:0.5" />
<path d="M54.416,853.54L58.416,853.54" style="fill:none;stroke:#000000;stroke-width:0.5" />
<path d="M58.416,30.23L58.416,879.58" style="fill:none;stroke:#000000;stroke-width:0.5" />
<path d="M70.548,30.23L70.548,169.74L100.55,169.74L100.55,30.23Z" style="fill:#F15A60" />
<path d="M425.41,30.23L425.41,30.23L455.41,30.23L455.41,30.23Z" style="fill:#F15A60" />
<path d="M780.27,30.23L780.27,30.23L810.27,30.23L810.27,30.23Z" style="fill:#F15A60" />
<path d="M1135.1,30.23L1135.1,30.23L1165.1,30.23L1165.1,30.23Z" style="fill:#F15A60" />
<path d="M1490,30.23L1490,30.23L1520,30.23L1520,30.23Z" style="fill:#F15A60" />
<path d="M100.55,30.23L100.55,879.58L130.55,879.58L130.55,30.23Z" style="fill:#7AC36A" />
<path d="M455.41,30.23L455.41,30.23L485.41,30.23L485.41,30.23Z" style="fill:#7AC36A" />
<path d="M810.27,30.23L810.27,30.23L840.27,30.23L840.27,30.23Z" style="fill:#7AC36A" />
<path d="M1165.1,30.23L1165.1,30.23L1195.1,30.23L1195.1,30.23Z" style="fill:#7AC36A" />
<path d="M1520,30.23L1520,30.23L1550,30.23L1550,30.23Z" style="fill:#7AC36A" />
<path d="M130.55,30.23L130.55,30.23L160.55,30.23L160.55,30.23Z" style="fill:#5A9BD4" />
<path d="M485.41,30.23L485.41,79.18L515.41,79.18L515.41,30.23Z" style="fill:#5A9BD4" />
<path d="M840.27,30.23L840.27,30.23L870.27,30.23L870.27,30.23Z" style="fill:#5A9BD4" />
<path d="M1195.1,30.23L1195.1,30.23L1225.1,30.23L1225.1,30.23Z" style="fill:#5A9BD4" />
<path d="M1550,30.23L1550,30.23L1580,30.23L1580,30.23Z" style="fill:#5A9BD4" />
<path d="M160.55,30.23L160.55,30.23L190.55,30.23L190.55,30.23Z" style="fill:#FAA75B" />
<path d="M515.41,30.23L515.41,154.03L545.41,154.03L545.41,30.23Z" style="fill:#FAA75B" />
<path d="M870.27,30.23L870.27,30.23L900.27,30.23L900.27,30.23Z" style="fill:#FAA75B" />
<path d="M1225.1,30.23L1225.1,30.23L1255.1,30.23L1255.1,30.23Z" style="fill:#FAA75B" />
<path d="M1580,30.23L1580,30.23L1610,30.23L1610,30.23Z" style="fill:#FAA75B" />
<path d="M190.55,30.23L190.55,30.23L220.55,30.23L220.55,30.23Z" style="fill:#9E67AB" />
<path d="M545.41,30.23L545.41,30.23L575.41,30.23L575.41,30.23Z" style="fill:#9E67AB" />
<path d="M900.27,30.23L900.27,295.49L930.27,295.49L930.27,30.23Z" style="fill:#9E67AB" />
<path d="M1255.1,30.23L1255.1,30.23L1285.1,30.23L1285.1,30.23Z" style="fill:#9E67AB" />
<path d="M1610,30.23L1610,30.23L1640,30.23L1640,30.23Z" style="fill:#9E67AB" />
<path d="M220.55,30.23L220.55,30.23L250.55,30.23L250.55,30.23Z" style="fill:#CE7058" />
<path d="M575.41,30.23L575.41,30.23L605.41,30.23L605.41,30.23Z" style="fill:#CE7058" />
<path d="M930.27,30.23L930.27,487.24L960.27,487.24L960.27,30.23Z" style="fill:#CE7058" />
<path d="M1285.1,30.23L1285.1,30.23L1315.1,30.23L1315.1,30.23Z" style="fill:#CE7058" />
<path d="M1640,30.23L1640,30.23L1670,30.23L1670,30.23Z" style="fill:#CE7058" />
<path d="M250.55,30.23L250.55,30.23L280.55,30.23L280.55,30.23Z" style="fill:#D77FB4" />
<path d="M605.41,30.23L605.41,30.23L635.41,30.23L635.41,30.23Z" style="fill:#D77FB4" />
<path d="M960.27,30.23L960.27,30.23L990.27,30.23L990.27,30.23Z" style="fill:#D77FB4" />
<path d="M1315.1,30.23L1315.1,78.132L1345.1,78.132L1345.1,30.23Z" style="fill:#D77FB4" />
<path d="M1670,30.23L1670,30.23L1700,30.23L1700,30.23Z" style="fill:#D77FB4" />
<path d="M280.55,30.23L280.55,30.23L310.55,30.23L310.55,30.23Z" style="fill:#F15A60" />
<path d="M635.41,30.23L635.41,30.23L665.41,30.23L665.41,30.23Z" style="fill:#F15A60" />
<path d="M990.27,30.23L990.27,30.23L1020.3,30.23L1020.3,30.23Z" style="fill:#F15A60" />
<path d="M1345.1,30.23L1345.1,159.71L1375.1,159.71L1375.1,30.23Z" style="fill:#F15A60" />
<path d="M1700,30.23L1700,30.23L1730,30.23L1730,30.23Z" style="fill:#F15A60" />
<path d="M310.55,30.23L310.55,30.23L340.55,30.23L340.55,30.23Z" style="fill:#7AC36A" />
<path d="M665.41,30.23L665.41,30.23L695.41,30.23L695.41,30.23Z" style="fill:#7AC36A" />
<path d="M1020.3,30.23L1020.3,30.23L1050.3,30.23L1050.3,30.23Z" style="fill:#7AC36A" />
<path d="M1375.1,30.23L1375.1,30.23L1405.1,30.23L1405.1,30.23Z" style="fill:#7AC36A" />
<path d="M1730,30.23L1730,78.581L1760,78.581L1760,30.23Z" style="fill:#7AC36A" />
<path d="M340.55,30.23L340.55,30.23L370.55,30.23L370.55,30.23Z" style="fill:#5A9BD4" />
<path d="M695.41,30.23L695.41,30.23L725.41,30.23L725.41,30.23Z" style="fill:#5A9BD4" />
<path d="M1050.3,30.23L1050.3,30.23L1080.3,30.23L1080.3,30.23Z" style="fill:#5A9BD4" />
<path d="M1405.1,30.23L1405.1,30.23L1435.1,30.23L1435.1,30.23Z" style="fill:#5A9BD4" />
<path d="M1760,30.23L1760,151.93L1790,151.93L1790,30.23Z" style="fill:#5A9BD4" />
<path d="M1770,867.81L1770,879.58L1790,879.58L1790,867.81Z" style="fill:#F15A60" />
<text x="1635.7" y="-868.03" transform="scale(1, -1)"
	style="font-family:Times;font-weight:normal;font-style:normal;font-size:12px">[source=linear,digest=caio]</text>
<path d="M1770,856.03L1770,867.81L1790,867.81L1790,856.03Z" style="fill:#7AC36A" />
<text x="1606.3" y="-856.25" transform="scale(1, -1)"
	style="font-family:Times;font-weight:normal;font-style:normal;font-size:12px">[source=linear,digest=segmentio]</text>
<path d="M1770,844.25L1770,856.03L1790,856.03L1790,844.25Z" style="fill:#5A9BD4" />
<text x="1641.2" y="-844.47" transform="scale(1, -1)"
	style="font-family:Times;font-weight:normal;font-style:normal;font-size:12px">[source=rand,digest=caio]</text>
<path d="M1770,832.47L1770,844.25L1790,844.25L1790,832.47Z" style="fill:#FAA75B" />
<text x="1611.8" y="-832.7" transform="scale(1, -1)"
	style="font-family:Times;font-weight:normal;font-style:normal;font-size:12px">[source=rand,digest=segmentio]</text>
<path d="M1770,820.7L1770,832.47L1790,832.47L1790,820.7Z" style="fill:#9E67AB" />
<text x="1611.2" y="-820.92" transform="scale(1, -1)"
	style="font-family:Times;font-weight:normal;font-style:normal;font-size:12px">[source=alternating,digest=caio]</text>
<path d="M1770,808.92L1770,820.7L1790,820.7L1790,808.92Z" style="fill:#CE7058" />
<text x="1581.9" y="-809.14" transform="scale(1, -1)"
	style="font-family:Times;font-weight:normal;font-style:normal;font-size:12px">[source=alternating,digest=segmentio]</text>
<path d="M1770,797.14L1770,808.92L1790,808.92L1790,797.14Z" style="fill:#D77FB4" />
<text x="1628.5" y="-797.37" transform="scale(1, -1)"
	style="font-family:Times;font-weight:normal;font-style:normal;font-size:12px">[source=normal,digest=caio]</text>
<path d="M1770,785.37L1770,797.14L1790,797.14L1790,785.37Z" style="fill:#F15A60" />
<text x="1599.2" y="-785.59" transform="scale(1, -1)"
	style="font-family:Times;font-weight:normal;font-style:normal;font-size:12px">[source=normal,digest=segmentio]</text>
<path d="M1770,773.59L1770,785.37L1790,785.37L1790,773.59Z" style="fill:#7AC36A" />
<text x="1621.8" y="-773.81" transform="scale(1, -1)"
	style="font-family:Times;font-weight:normal;font-style:normal;font-size:12px">[source=tailspike,digest=caio]</text>
<path d="M1770,761.81L1770,773.59L1790,773.59L1790,761.81Z" style="fill:#5A9BD4" />
<text x="1592.5" y="-762.03" transform="scale(1, -1)"
	style="font-family:Times;font-weight:normal;font-style:normal;font-size:12px">[source=tailspike,digest=segmentio]</text>
</g>
</svg>
