<?xml version="1.0"?>
<!-- Generated by SVGo and Plotinum VG -->
<svg width="590pt" height="295pt" viewBox="0 0 590 295"
	xmlns="http://www.w3.org/2000/svg"
	xmlns:xlink="http://www.w3.org/1999/xlink">
<g transform="scale(1, -1) translate(0, -295)">
<path d="M0,0L590,0L590,295L0,295Z" style="fill:#FFFFFF" />
<text x="162.76" y="-283.45" transform="scale(1, -1)"
	style="font-family:Times;font-weight:normal;font-style:normal;font-size:12px">BenchmarkCorrectness/size=1000000/quant=0.000000</text>
<text x="303.64" y="-3.8613" transform="scale(1, -1)"
	style="font-family:Times;font-weight:normal;font-style:normal;font-size:12px">source</text>
<text x="54.166" y="-15.602" transform="scale(1, -1)"
	style="font-family:Times;font-weight:normal;font-style:normal;font-size:10px">linear</text>
<text x="183.54" y="-15.602" transform="scale(1, -1)"
	style="font-family:Times;font-weight:normal;font-style:normal;font-size:10px">rand</text>
<text x="297.92" y="-15.602" transform="scale(1, -1)"
	style="font-family:Times;font-weight:normal;font-style:normal;font-size:10px">alternating</text>
<text x="432.02" y="-15.602" transform="scale(1, -1)"
	style="font-family:Times;font-weight:normal;font-style:normal;font-size:10px">normal</text>
<text x="556.12" y="-15.602" transform="scale(1, -1)"
	style="font-family:Times;font-weight:normal;font-style:normal;font-size:10px">tailspike</text>
<g transform="rotate(90)">
<text x="133.26" y="11.555" transform="scale(1, -1)"
	style="font-family:Times;font-weight:normal;font-style:normal;font-size:12px">%correct</text>
</g>
<text x="20.416" y="-25.509" transform="scale(1, -1)"
	style="font-family:Times;font-weight:normal;font-style:normal;font-size:10px">50.00</text>
<text x="20.416" y="-145.39" transform="scale(1, -1)"
	style="font-family:Times;font-weight:normal;font-style:normal;font-size:10px">75.00</text>
<text x="15.416" y="-265.27" transform="scale(1, -1)"
	style="font-family:Times;font-weight:normal;font-style:normal;font-size:10px">100.00</text>
<path d="M45.416,30.23L53.416,30.23" style="fill:none;stroke:#000000;stroke-width:0.5" />
<path d="M45.416,150.11L53.416,150.11" style="fill:none;stroke:#000000;stroke-width:0.5" />
<path d="M45.416,269.99L53.416,269.99" style="fill:none;stroke:#000000;stroke-width:0.5" />
<path d="M49.416,54.207L53.416,54.207" style="fill:none;stroke:#000000;stroke-width:0.5" />
<path d="M49.416,78.183L53.416,78.183" style="fill:none;stroke:#000000;stroke-width:0.5" />
<path d="M49.416,102.16L53.416,102.16" style="fill:none;stroke:#000000;stroke-width:0.5" />
<path d="M49.416,126.14L53.416,126.14" style="fill:none;stroke:#000000;stroke-width:0.5" />
<path d="M49.416,174.09L53.416,174.09" style="fill:none;stroke:#000000;stroke-width:0.5" />
<path d="M49.416,198.06L53.416,198.06" style="fill:none;stroke:#000000;stroke-width:0.5" />
<path d="M49.416,222.04L53.416,222.04" style="fill:none;stroke:#000000;stroke-width:0.5" />
<path d="M49.416,246.02L53.416,246.02" style="fill:none;stroke:#000000;stroke-width:0.5" />
<path d="M53.416,30.23L53.416,279.58" style="fill:none;stroke:#000000;stroke-width:0.5" />
<path d="M65.548,269.99L192.43,269.99L319.3,269.99L446.18,269.99L573.06,269.99" style="fill:none;stroke:#F15A60" />
<path d="M65.548,30.23L192.43,252.73L319.3,269.99L446.18,279.58L573.06,242.18" style="fill:none;stroke:#7AC36A" />
<path d="M570,273.7L590,273.7" style="fill:none;stroke:#F15A60" />
<text x="547.01" y="-268.03" transform="scale(1, -1)"
	style="font-family:Times;font-weight:normal;font-style:normal;font-size:12px">caio</text>
<path d="M570,261.92L590,261.92" style="fill:none;stroke:#7AC36A" />
<text x="517.68" y="-256.25" transform="scale(1, -1)"
	style="font-family:Times;font-weight:normal;font-style:normal;font-size:12px">segmentio</text>
</g>
</svg>
