<?xml version="1.0"?>
<!-- Generated by SVGo and Plotinum VG -->
<svg width="830pt" height="415pt" viewBox="0 0 830 415"
	xmlns="http://www.w3.org/2000/svg"
	xmlns:xlink="http://www.w3.org/1999/xlink">
<g transform="scale(1, -1) translate(0, -415)">
<path d="M0,0L830,0L830,415L0,415Z" style="fill:#FFFFFF" />
<text x="342.65" y="-403.45" transform="scale(1, -1)"
	style="font-family:Times;font-weight:normal;font-style:normal;font-size:12px">BenchmarkDecode/level=best</text>
<text x="426.5" y="-3.8613" transform="scale(1, -1)"
	style="font-family:Times;font-weight:normal;font-style:normal;font-size:12px">size</text>
<text x="41.666" y="-15.602" transform="scale(1, -1)"
	style="font-family:Times;font-weight:normal;font-style:normal;font-size:10px">1e4</text>
<text x="428.61" y="-15.602" transform="scale(1, -1)"
	style="font-family:Times;font-weight:normal;font-style:normal;font-size:10px">1e5</text>
<text x="815.56" y="-15.602" transform="scale(1, -1)"
	style="font-family:Times;font-weight:normal;font-style:normal;font-size:10px">1e6</text>
<g transform="rotate(90)">
<text x="193.25" y="11.555" transform="scale(1, -1)"
	style="font-family:Times;font-weight:normal;font-style:normal;font-size:12px">allocs/op</text>
</g>
<text x="25.416" y="-25.509" transform="scale(1, -1)"
	style="font-family:Times;font-weight:normal;font-style:normal;font-size:10px">0</text>
<text x="20.416" y="-196.31" transform="scale(1, -1)"
	style="font-family:Times;font-weight:normal;font-style:normal;font-size:10px">80</text>
<text x="15.416" y="-367.11" transform="scale(1, -1)"
	style="font-family:Times;font-weight:normal;font-style:normal;font-size:10px">160</text>
<path d="M32.916,30.23L40.916,30.23" style="fill:none;stroke:#000000;stroke-width:0.5" />
<path d="M32.916,201.03L40.916,201.03" style="fill:none;stroke:#000000;stroke-width:0.5" />
<path d="M32.916,371.83L40.916,371.83" style="fill:none;stroke:#000000;stroke-width:0.5" />
<path d="M36.916,115.63L40.916,115.63" style="fill:none;stroke:#000000;stroke-width:0.5" />
<path d="M36.916,286.43L40.916,286.43" style="fill:none;stroke:#000000;stroke-width:0.5" />
<path d="M40.916,30.23L40.916,399.58" style="fill:none;stroke:#000000;stroke-width:0.5" />
<path d="M48.885,47.31L435.83,30.23L822.78,30.23" style="fill:none;stroke:#F15A60" />
<path d="M48.885,30.23L435.83,57.985L822.78,30.23" style="fill:none;stroke:#7AC36A" />
<path d="M48.885,30.23L435.83,30.23L822.78,201.03" style="fill:none;stroke:#5A9BD4" />
<path d="M48.885,62.255L435.83,30.23L822.78,30.23" style="fill:none;stroke:#FAA75B" />
<path d="M48.885,30.23L435.83,83.605L822.78,30.23" style="fill:none;stroke:#9E67AB" />
<path d="M48.885,30.23L435.83,30.23L822.78,399.58" style="fill:none;stroke:#CE7058" />
<path d="M810,393.7L830,393.7" style="fill:none;stroke:#F15A60" />
<text x="701.82" y="-388.03" transform="scale(1, -1)"
	style="font-family:Times;font-weight:normal;font-style:normal;font-size:12px">[text=digits,size=1e4]</text>
<path d="M810,381.92L830,381.92" style="fill:none;stroke:#7AC36A" />
<text x="701.82" y="-376.25" transform="scale(1, -1)"
	style="font-family:Times;font-weight:normal;font-style:normal;font-size:12px">[text=digits,size=1e5]</text>
<path d="M810,370.14L830,370.14" style="fill:none;stroke:#5A9BD4" />
<text x="701.82" y="-364.47" transform="scale(1, -1)"
	style="font-family:Times;font-weight:normal;font-style:normal;font-size:12px">[text=digits,size=1e6]</text>
<path d="M810,358.36L830,358.36" style="fill:none;stroke:#FAA75B" />
<text x="701.84" y="-352.7" transform="scale(1, -1)"
	style="font-family:Times;font-weight:normal;font-style:normal;font-size:12px">[text=twain,size=1e4]</text>
<path d="M810,346.59L830,346.59" style="fill:none;stroke:#9E67AB" />
<text x="701.84" y="-340.92" transform="scale(1, -1)"
	style="font-family:Times;font-weight:normal;font-style:normal;font-size:12px">[text=twain,size=1e5]</text>
<path d="M810,334.81L830,334.81" style="fill:none;stroke:#CE7058" />
<text x="701.84" y="-329.14" transform="scale(1, -1)"
	style="font-family:Times;font-weight:normal;font-style:normal;font-size:12px">[text=twain,size=1e6]</text>
</g>
</svg>
