<?xml version="1.0"?>
<!-- Generated by SVGo and Plotinum VG -->
<svg width="470pt" height="235pt" viewBox="0 0 470 235"
	xmlns="http://www.w3.org/2000/svg"
	xmlns:xlink="http://www.w3.org/1999/xlink">
<g transform="scale(1, -1) translate(0, -235)">
<path d="M0,0L470,0L470,235L0,235Z" style="fill:#FFFFFF" />
<text x="162.65" y="-223.45" transform="scale(1, -1)"
	style="font-family:Times;font-weight:normal;font-style:normal;font-size:12px">BenchmarkDecode/level=best</text>
<text x="265.11" y="-3.8613" transform="scale(1, -1)"
	style="font-family:Times;font-weight:normal;font-style:normal;font-size:12px">size</text>
<text x="86.666" y="-15.602" transform="scale(1, -1)"
	style="font-family:Times;font-weight:normal;font-style:normal;font-size:10px">1e4</text>
<text x="267.22" y="-15.602" transform="scale(1, -1)"
	style="font-family:Times;font-weight:normal;font-style:normal;font-size:10px">1e5</text>
<text x="447.78" y="-15.602" transform="scale(1, -1)"
	style="font-family:Times;font-weight:normal;font-style:normal;font-size:10px">1e6</text>
<g transform="rotate(90)">
<text x="103.25" y="11.555" transform="scale(1, -1)"
	style="font-family:Times;font-weight:normal;font-style:normal;font-size:12px">allocs/op</text>
</g>
<text x="25.416" y="-25.509" transform="scale(1, -1)"
	style="font-family:Times;font-weight:normal;font-style:normal;font-size:10px">0</text>
<text x="20.416" y="-113.07" transform="scale(1, -1)"
	style="font-family:Times;font-weight:normal;font-style:normal;font-size:10px">80</text>
<text x="15.416" y="-200.63" transform="scale(1, -1)"
	style="font-family:Times;font-weight:normal;font-style:normal;font-size:10px">160</text>
<path d="M32.916,30.23L40.916,30.23" style="fill:none;stroke:#000000;stroke-width:0.5" />
<path d="M32.916,117.79L40.916,117.79" style="fill:none;stroke:#000000;stroke-width:0.5" />
<path d="M32.916,205.36L40.916,205.36" style="fill:none;stroke:#000000;stroke-width:0.5" />
<path d="M36.916,74.012L40.916,74.012" style="fill:none;stroke:#000000;stroke-width:0.5" />
<path d="M36.916,161.57L40.916,161.57" style="fill:none;stroke:#000000;stroke-width:0.5" />
<path d="M40.916,30.23L40.916,219.58" style="fill:none;stroke:#000000;stroke-width:0.5" />
<path d="M48.885,30.23L48.885,38.987L78.885,38.987L78.885,30.23Z" style="fill:#F15A60" />
<path d="M229.44,30.23L229.44,44.459L259.44,44.459L259.44,30.23Z" style="fill:#F15A60" />
<path d="M410,30.23L410,117.79L440,117.79L440,30.23Z" style="fill:#F15A60" />
<path d="M78.885,30.23L78.885,46.648L108.89,46.648L108.89,30.23Z" style="fill:#7AC36A" />
<path d="M259.44,30.23L259.44,57.594L289.44,57.594L289.44,30.23Z" style="fill:#7AC36A" />
<path d="M440,30.23L440,219.58L470,219.58L470,30.23Z" style="fill:#7AC36A" />
<path d="M450,207.81L450,219.58L470,219.58L470,207.81Z" style="fill:#F15A60" />
<text x="420.33" y="-208.03" transform="scale(1, -1)"
	style="font-family:Times;font-weight:normal;font-style:normal;font-size:12px">digits</text>
<path d="M450,196.03L450,207.81L470,207.81L470,196.03Z" style="fill:#7AC36A" />
<text x="420.34" y="-196.25" transform="scale(1, -1)"
	style="font-family:Times;font-weight:normal;font-style:normal;font-size:12px">twain</text>
</g>
</svg>
