<?xml version="1.0"?>
<!-- Generated by SVGo and Plotinum VG -->
<svg width="590pt" height="295pt" viewBox="0 0 590 295"
	xmlns="http://www.w3.org/2000/svg"
	xmlns:xlink="http://www.w3.org/1999/xlink">
<g transform="scale(1, -1) translate(0, -295)">
<path d="M0,0L590,0L590,295L0,295Z" style="fill:#FFFFFF" />
<text x="162.76" y="-283.45" transform="scale(1, -1)"
	style="font-family:Times;font-weight:normal;font-style:normal;font-size:12px">BenchmarkCorrectness/size=1000000/quant=0.999000</text>
<text x="302.43" y="-3.8613" transform="scale(1, -1)"
	style="font-family:Times;font-weight:normal;font-style:normal;font-size:12px">source</text>
<text x="51.744" y="-15.602" transform="scale(1, -1)"
	style="font-family:Times;font-weight:normal;font-style:normal;font-size:10px">linear</text>
<text x="181.72" y="-15.602" transform="scale(1, -1)"
	style="font-family:Times;font-weight:normal;font-style:normal;font-size:10px">rand</text>
<text x="296.71" y="-15.602" transform="scale(1, -1)"
	style="font-family:Times;font-weight:normal;font-style:normal;font-size:10px">alternating</text>
<text x="431.41" y="-15.602" transform="scale(1, -1)"
	style="font-family:Times;font-weight:normal;font-style:normal;font-size:10px">normal</text>
<text x="556.12" y="-15.602" transform="scale(1, -1)"
	style="font-family:Times;font-weight:normal;font-style:normal;font-size:10px">tailspike</text>
<g transform="rotate(90)">
<text x="130.8" y="11.555" transform="scale(1, -1)"
	style="font-family:Times;font-weight:normal;font-style:normal;font-size:12px">%correct</text>
</g>
<text x="15.416" y="-25.509" transform="scale(1, -1)"
	style="font-family:Times;font-weight:normal;font-style:normal;font-size:10px">1e+02</text>
<text x="15.416" y="-147.73" transform="scale(1, -1)"
	style="font-family:Times;font-weight:normal;font-style:normal;font-size:10px">1e+02</text>
<text x="15.416" y="-269.96" transform="scale(1, -1)"
	style="font-family:Times;font-weight:normal;font-style:normal;font-size:10px">1e+02</text>
<path d="M42.994,30.23L50.994,30.23" style="fill:none;stroke:#000000;stroke-width:0.5" />
<path d="M42.994,152.45L50.994,152.45" style="fill:none;stroke:#000000;stroke-width:0.5" />
<path d="M42.994,274.68L50.994,274.68" style="fill:none;stroke:#000000;stroke-width:0.5" />
<path d="M46.994,54.675L50.994,54.675" style="fill:none;stroke:#000000;stroke-width:0.5" />
<path d="M46.994,79.12L50.994,79.12" style="fill:none;stroke:#000000;stroke-width:0.5" />
<path d="M46.994,103.56L50.994,103.56" style="fill:none;stroke:#000000;stroke-width:0.5" />
<path d="M46.994,128.01L50.994,128.01" style="fill:none;stroke:#000000;stroke-width:0.5" />
<path d="M46.994,176.9L50.994,176.9" style="fill:none;stroke:#000000;stroke-width:0.5" />
<path d="M46.994,201.34L50.994,201.34" style="fill:none;stroke:#000000;stroke-width:0.5" />
<path d="M46.994,225.79L50.994,225.79" style="fill:none;stroke:#000000;stroke-width:0.5" />
<path d="M46.994,250.23L50.994,250.23" style="fill:none;stroke:#000000;stroke-width:0.5" />
<path d="M50.994,30.23L50.994,274.68" style="fill:none;stroke:#000000;stroke-width:0.5" />
<path d="M63.126,274.68L190.61,274.68L318.09,274.68L445.58,274.68L573.06,274.68" style="fill:none;stroke:#F15A60" />
<path d="M63.126,274.68L190.61,274.68L318.09,274.68L445.58,30.23L573.06,274.68" style="fill:none;stroke:#7AC36A" />
<path d="M570,273.7L590,273.7" style="fill:none;stroke:#F15A60" />
<text x="547.01" y="-268.03" transform="scale(1, -1)"
	style="font-family:Times;font-weight:normal;font-style:normal;font-size:12px">caio</text>
<path d="M570,261.92L590,261.92" style="fill:none;stroke:#7AC36A" />
<text x="517.68" y="-256.25" transform="scale(1, -1)"
	style="font-family:Times;font-weight:normal;font-style:normal;font-size:12px">segmentio</text>
</g>
</svg>
