<?xml version="1.0"?>
<!-- Generated by SVGo and Plotinum VG -->
<svg width="830pt" height="415pt" viewBox="0 0 830 415"
	xmlns="http://www.w3.org/2000/svg"
	xmlns:xlink="http://www.w3.org/1999/xlink">
<g transform="scale(1, -1) translate(0, -415)">
<path d="M0,0L830,0L830,415L0,415Z" style="fill:#FFFFFF" />
<text x="342.65" y="-403.45" transform="scale(1, -1)"
	style="font-family:Times;font-weight:normal;font-style:normal;font-size:12px">BenchmarkDecode/level=best</text>
<text x="445.11" y="-3.8613" transform="scale(1, -1)"
	style="font-family:Times;font-weight:normal;font-style:normal;font-size:12px">size</text>
<text x="146.67" y="-15.602" transform="scale(1, -1)"
	style="font-family:Times;font-weight:normal;font-style:normal;font-size:10px">1e4</text>
<text x="447.22" y="-15.602" transform="scale(1, -1)"
	style="font-family:Times;font-weight:normal;font-style:normal;font-size:10px">1e5</text>
<text x="747.78" y="-15.602" transform="scale(1, -1)"
	style="font-family:Times;font-weight:normal;font-style:normal;font-size:10px">1e6</text>
<g transform="rotate(90)">
<text x="193.25" y="11.555" transform="scale(1, -1)"
	style="font-family:Times;font-weight:normal;font-style:normal;font-size:12px">allocs/op</text>
</g>
<text x="25.416" y="-25.509" transform="scale(1, -1)"
	style="font-family:Times;font-weight:normal;font-style:normal;font-size:10px">0</text>
<text x="20.416" y="-196.31" transform="scale(1, -1)"
	style="font-family:Times;font-weight:normal;font-style:normal;font-size:10px">80</text>
<text x="15.416" y="-367.11" transform="scale(1, -1)"
	style="font-family:Times;font-weight:normal;font-style:normal;font-size:10px">160</text>
<path d="M32.916,30.23L40.916,30.23" style="fill:none;stroke:#000000;stroke-width:0.5" />
<path d="M32.916,201.03L40.916,201.03" style="fill:none;stroke:#000000;stroke-width:0.5" />
<path d="M32.916,371.83L40.916,371.83" style="fill:none;stroke:#000000;stroke-width:0.5" />
<path d="M36.916,115.63L40.916,115.63" style="fill:none;stroke:#000000;stroke-width:0.5" />
<path d="M36.916,286.43L40.916,286.43" style="fill:none;stroke:#000000;stroke-width:0.5" />
<path d="M40.916,30.23L40.916,399.58" style="fill:none;stroke:#000000;stroke-width:0.5" />
<path d="M48.885,30.23L48.885,47.31L78.885,47.31L78.885,30.23Z" style="fill:#F15A60" />
<path d="M349.44,30.23L349.44,30.23L379.44,30.23L379.44,30.23Z" style="fill:#F15A60" />
<path d="M650,30.23L650,30.23L680,30.23L680,30.23Z" style="fill:#F15A60" />
<path d="M78.885,30.23L78.885,30.23L108.89,30.23L108.89,30.23Z" style="fill:#7AC36A" />
<path d="M379.44,30.23L379.44,57.985L409.44,57.985L409.44,30.23Z" style="fill:#7AC36A" />
<path d="M680,30.23L680,30.23L710,30.23L710,30.23Z" style="fill:#7AC36A" />
<path d="M108.89,30.23L108.89,30.23L138.89,30.23L138.89,30.23Z" style="fill:#5A9BD4" />
<path d="M409.44,30.23L409.44,30.23L439.44,30.23L439.44,30.23Z" style="fill:#5A9BD4" />
<path d="M710,30.23L710,201.03L740,201.03L740,30.23Z" style="fill:#5A9BD4" />
<path d="M138.89,30.23L138.89,62.255L168.89,62.255L168.89,30.23Z" style="fill:#FAA75B" />
<path d="M439.44,30.23L439.44,30.23L469.44,30.23L469.44,30.23Z" style="fill:#FAA75B" />
<path d="M740,30.23L740,30.23L770,30.23L770,30.23Z" style="fill:#FAA75B" />
<path d="M168.89,30.23L168.89,30.23L198.89,30.23L198.89,30.23Z" style="fill:#9E67AB" />
<path d="M469.44,30.23L469.44,83.605L499.44,83.605L499.44,30.23Z" style="fill:#9E67AB" />
<path d="M770,30.23L770,30.23L800,30.23L800,30.23Z" style="fill:#9E67AB" />
<path d="M198.89,30.23L198.89,30.23L228.89,30.23L228.89,30.23Z" style="fill:#CE7058" />
<path d="M499.44,30.23L499.44,30.23L529.44,30.23L529.44,30.23Z" style="fill:#CE7058" />
<path d="M800,30.23L800,399.58L830,399.58L830,30.23Z" style="fill:#CE7058" />
<path d="M810,387.81L810,399.58L830,399.58L830,387.81Z" style="fill:#F15A60" />
<text x="701.82" y="-388.03" transform="scale(1, -1)"
	style="font-family:Times;font-weight:normal;font-style:normal;font-size:12px">[size=1e4,text=digits]</text>
<path d="M810,376.03L810,387.81L830,387.81L830,376.03Z" style="fill:#7AC36A" />
<text x="701.82" y="-376.25" transform="scale(1, -1)"
	style="font-family:Times;font-weight:normal;font-style:normal;font-size:12px">[size=1e5,text=digits]</text>
<path d="M810,364.25L810,376.03L830,376.03L830,364.25Z" style="fill:#5A9BD4" />
<text x="701.82" y="-364.47" transform="scale(1, -1)"
	style="font-family:Times;font-weight:normal;font-style:normal;font-size:12px">[size=1e6,text=digits]</text>
<path d="M810,352.47L810,364.25L830,364.25L830,352.47Z" style="fill:#FAA75B" />
<text x="701.84" y="-352.7" transform="scale(1, -1)"
	style="font-family:Times;font-weight:normal;font-style:normal;font-size:12px">[size=1e4,text=twain]</text>
<path d="M810,340.7L810,352.47L830,352.47L830,340.7Z" style="fill:#9E67AB" />
<text x="701.84" y="-340.92" transform="scale(1, -1)"
	style="font-family:Times;font-weight:normal;font-style:normal;font-size:12px">[size=1e5,text=twain]</text>
<path d="M810,328.92L810,340.7L830,340.7L830,328.92Z" style="fill:#CE7058" />
<text x="701.84" y="-329.14" transform="scale(1, -1)"
	style="font-family:Times;font-weight:normal;font-style:normal;font-size:12px">[size=1e6,text=twain]</text>
</g>
</svg>
