<?xml version="1.0"?>
<!-- Generated by SVGo and Plotinum VG -->
<svg width="1790pt" height="895pt" viewBox="0 0 1790 895"
	xmlns="http://www.w3.org/2000/svg"
	xmlns:xlink="http://www.w3.org/1999/xlink">
<g transform="scale(1, -1) translate(0, -895)">
<path d="M0,0L1790,0L1790,895L0,895Z" style="fill:#FFFFFF" />
<text x="762.76" y="-883.45" transform="scale(1, -1)"
	style="font-family:Times;font-weight:normal;font-style:normal;font-size:12px">BenchmarkCorrectness/size=1000000/quant=0.999000</text>
<text x="897.39" y="-3.8613" transform="scale(1, -1)"
	style="font-family:Times;font-weight:normal;font-style:normal;font-size:12px">source</text>
<text x="41.666" y="-15.602" transform="scale(1, -1)"
	style="font-family:Times;font-weight:normal;font-style:normal;font-size:10px">linear</text>
<text x="474.17" y="-15.602" transform="scale(1, -1)"
	style="font-family:Times;font-weight:normal;font-style:normal;font-size:10px">rand</text>
<text x="891.67" y="-15.602" transform="scale(1, -1)"
	style="font-family:Times;font-weight:normal;font-style:normal;font-size:10px">alternating</text>
<text x="1328.9" y="-15.602" transform="scale(1, -1)"
	style="font-family:Times;font-weight:normal;font-style:normal;font-size:10px">normal</text>
<text x="1756.1" y="-15.602" transform="scale(1, -1)"
	style="font-family:Times;font-weight:normal;font-style:normal;font-size:10px">tailspike</text>
<g transform="rotate(90)">
<text x="430.8" y="11.555" transform="scale(1, -1)"
	style="font-family:Times;font-weight:normal;font-style:normal;font-size:12px">%correct</text>
</g>
<text x="25.416" y="-25.509" transform="scale(1, -1)"
	style="font-family:Times;font-weight:normal;font-style:normal;font-size:10px">0</text>
<text x="20.416" y="-447.73" transform="scale(1, -1)"
	style="font-family:Times;font-weight:normal;font-style:normal;font-size:10px">50</text>
<text x="15.416" y="-869.96" transform="scale(1, -1)"
	style="font-family:Times;font-weight:normal;font-style:normal;font-size:10px">100</text>
<path d="M32.916,30.23L40.916,30.23" style="fill:none;stroke:#000000;stroke-width:0.5" />
<path d="M32.916,452.45L40.916,452.45" style="fill:none;stroke:#000000;stroke-width:0.5" />
<path d="M32.916,874.68L40.916,874.68" style="fill:none;stroke:#000000;stroke-width:0.5" />
<path d="M36.916,114.68L40.916,114.68" style="fill:none;stroke:#000000;stroke-width:0.5" />
<path d="M36.916,199.12L40.916,199.12" style="fill:none;stroke:#000000;stroke-width:0.5" />
<path d="M36.916,283.56L40.916,283.56" style="fill:none;stroke:#000000;stroke-width:0.5" />
<path d="M36.916,368.01L40.916,368.01" style="fill:none;stroke:#000000;stroke-width:0.5" />
<path d="M36.916,536.9L40.916,536.9" style="fill:none;stroke:#000000;stroke-width:0.5" />
<path d="M36.916,621.34L40.916,621.34" style="fill:none;stroke:#000000;stroke-width:0.5" />
<path d="M36.916,705.79L40.916,705.79" style="fill:none;stroke:#000000;stroke-width:0.5" />
<path d="M36.916,790.23L40.916,790.23" style="fill:none;stroke:#000000;stroke-width:0.5" />
<path d="M40.916,30.23L40.916,874.68" style="fill:none;stroke:#000000;stroke-width:0.5" />
<path d="M53.048,874.68L483.05,30.23L913.05,30.23L1343.1,30.23L1773.1,30.23" style="fill:none;stroke:#F15A60" />
<path d="M53.048,874.68L483.05,30.23L913.05,30.23L1343.1,30.23L1773.1,30.23" style="fill:none;stroke:#7AC36A" />
<path d="M53.048,30.23L483.05,874.68L913.05,30.23L1343.1,30.23L1773.1,30.23" style="fill:none;stroke:#5A9BD4" />
<path d="M53.048,30.23L483.05,874.68L913.05,30.23L1343.1,30.23L1773.1,30.23" style="fill:none;stroke:#FAA75B" />
<path d="M53.048,30.23L483.05,30.23L913.05,874.68L1343.1,30.23L1773.1,30.23" style="fill:none;stroke:#9E67AB" />
<path d="M53.048,30.23L483.05,30.23L913.05,874.68L1343.1,30.23L1773.1,30.23" style="fill:none;stroke:#CE7058" />
<path d="M53.048,30.23L483.05,30.23L913.05,30.23L1343.1,874.68L1773.1,30.23" style="fill:none;stroke:#D77FB4" />
<path d="M53.048,30.23L483.05,30.23L913.05,30.23L1343.1,873.83L1773.1,30.23" style="fill:none;stroke:#F15A60" />
<path d="M53.048,30.23L483.05,30.23L913.05,30.23L1343.1,30.23L1773.1,874.68" style="fill:none;stroke:#7AC36A" />
<path d="M53.048,30.23L483.05,30.23L913.05,30.23L1343.1,30.23L1773.1,874.68" style="fill:none;stroke:#5A9BD4" />
<path d="M1770,873.7L1790,873.7" style="fill:none;stroke:#F15A60" />
<text x="1635.7" y="-868.03" transform="scale(1, -1)"
	style="font-family:Times;font-weight:normal;font-style:normal;font-size:12px">[source=linear,digest=caio]</text>
<path d="M1770,861.92L1790,861.92" style="fill:none;stroke:#7AC36A" />
<text x="1606.3" y="-856.25" transform="scale(1, -1)"
	style="font-family:Times;font-weight:normal;font-style:normal;font-size:12px">[source=linear,digest=segmentio]</text>
<path d="M1770,850.14L1790,850.14" style="fill:none;stroke:#5A9BD4" />
<text x="1641.2" y="-844.47" transform="scale(1, -1)"
	style="font-family:Times;font-weight:normal;font-style:normal;font-size:12px">[source=rand,digest=caio]</text>
<path d="M1770,838.36L1790,838.36" style="fill:none;stroke:#FAA75B" />
<text x="1611.8" y="-832.7" transform="scale(1, -1)"
	style="font-family:Times;font-weight:normal;font-style:normal;font-size:12px">[source=rand,digest=segmentio]</text>
<path d="M1770,826.59L1790,826.59" style="fill:none;stroke:#9E67AB" />
<text x="1611.2" y="-820.92" transform="scale(1, -1)"
	style="font-family:Times;font-weight:normal;font-style:normal;font-size:12px">[source=alternating,digest=caio]</text>
<path d="M1770,814.81L1790,814.81" style="fill:none;stroke:#CE7058" />
<text x="1581.9" y="-809.14" transform="scale(1, -1)"
	style="font-family:Times;font-weight:normal;font-style:normal;font-size:12px">[source=alternating,digest=segmentio]</text>
<path d="M1770,803.03L1790,803.03" style="fill:none;stroke:#D77FB4" />
<text x="1628.5" y="-797.37" transform="scale(1, -1)"
	style="font-family:Times;font-weight:normal;font-style:normal;font-size:12px">[source=normal,digest=caio]</text>
<path d="M1770,791.25L1790,791.25" style="fill:none;stroke:#F15A60" />
<text x="1599.2" y="-785.59" transform="scale(1, -1)"
	style="font-family:Times;font-weight:normal;font-style:normal;font-size:12px">[source=normal,digest=segmentio]</text>
<path d="M1770,779.48L1790,779.48" style="fill:none;stroke:#7AC36A" />
<text x="1621.8" y="-773.81" transform="scale(1, -1)"
	style="font-family:Times;font-weight:normal;font-style:normal;font-size:12px">[source=tailspike,digest=caio]</text>
<path d="M1770,767.7L1790,767.7" style="fill:none;stroke:#5A9BD4" />
<text x="1592.5" y="-762.03" transform="scale(1, -1)"
	style="font-family:Times;font-weight:normal;font-style:normal;font-size:12px">[source=tailspike,digest=segmentio]</text>
</g>
</svg>
