<?xml version="1.0"?>
<!-- Generated by SVGo and Plotinum VG -->
<svg width="470pt" height="235pt" viewBox="0 0 470 235"
	xmlns="http://www.w3.org/2000/svg"
	xmlns:xlink="http://www.w3.org/1999/xlink">
<g transform="scale(1, -1) translate(0, -235)">
<path d="M0,0L470,0L470,235L0,235Z" style="fill:#FFFFFF" />
<text x="162.65" y="-223.45" transform="scale(1, -1)"
	style="font-family:Times;font-weight:normal;font-style:normal;font-size:12px">BenchmarkDecode/level=best</text>
<text x="246.5" y="-3.8613" transform="scale(1, -1)"
	style="font-family:Times;font-weight:normal;font-style:normal;font-size:12px">size</text>
<text x="41.666" y="-15.602" transform="scale(1, -1)"
	style="font-family:Times;font-weight:normal;font-style:normal;font-size:10px">1e4</text>
<text x="248.61" y="-15.602" transform="scale(1, -1)"
	style="font-family:Times;font-weight:normal;font-style:normal;font-size:10px">1e5</text>
<text x="455.56" y="-15.602" transform="scale(1, -1)"
	style="font-family:Times;font-weight:normal;font-style:normal;font-size:10px">1e6</text>
<g transform="rotate(90)">
<text x="103.25" y="11.555" transform="scale(1, -1)"
	style="font-family:Times;font-weight:normal;font-style:normal;font-size:12px">allocs/op</text>
</g>
<text x="20.416" y="-50.756" transform="scale(1, -1)"
	style="font-family:Times;font-weight:normal;font-style:normal;font-size:10px">30</text>
<text x="20.416" y="-119.61" transform="scale(1, -1)"
	style="font-family:Times;font-weight:normal;font-style:normal;font-size:10px">90</text>
<text x="15.416" y="-188.47" transform="scale(1, -1)"
	style="font-family:Times;font-weight:normal;font-style:normal;font-size:10px">150</text>
<path d="M32.916,55.478L40.916,55.478" style="fill:none;stroke:#000000;stroke-width:0.5" />
<path d="M32.916,124.33L40.916,124.33" style="fill:none;stroke:#000000;stroke-width:0.5" />
<path d="M32.916,193.19L40.916,193.19" style="fill:none;stroke:#000000;stroke-width:0.5" />
<path d="M36.916,89.906L40.916,89.906" style="fill:none;stroke:#000000;stroke-width:0.5" />
<path d="M36.916,158.76L40.916,158.76" style="fill:none;stroke:#000000;stroke-width:0.5" />
<path d="M40.916,30.23L40.916,219.58" style="fill:none;stroke:#000000;stroke-width:0.5" />
<path d="M48.885,30.23L255.83,35.968L462.78,112.86" style="fill:none;stroke:#F15A60" />
<path d="M48.885,38.264L255.83,49.74L462.78,219.58" style="fill:none;stroke:#7AC36A" />
<path d="M450,213.7L470,213.7" style="fill:none;stroke:#F15A60" />
<text x="420.33" y="-208.03" transform="scale(1, -1)"
	style="font-family:Times;font-weight:normal;font-style:normal;font-size:12px">digits</text>
<path d="M450,201.92L470,201.92" style="fill:none;stroke:#7AC36A" />
<text x="420.34" y="-196.25" transform="scale(1, -1)"
	style="font-family:Times;font-weight:normal;font-style:normal;font-size:12px">twain</text>
</g>
</svg>
