<?xml version="1.0"?>
<!-- Generated by SVGo and Plotinum VG -->
<svg width="1190pt" height="595pt" viewBox="0 0 1190 595"
	xmlns="http://www.w3.org/2000/svg"
	xmlns:xlink="http://www.w3.org/1999/xlink">
<g transform="scale(1, -1) translate(0, -595)">
<path d="M0,0L1190,0L1190,595L0,595Z" style="fill:#FFFFFF" />
<text x="459.6" y="-583.45" transform="scale(1, -1)"
	style="font-family:Times;font-weight:normal;font-style:normal;font-size:12px">BenchmarkCorrectness/size=1000000/digest=segmentio</text>
<text x="611.88" y="-3.8613" transform="scale(1, -1)"
	style="font-family:Times;font-weight:normal;font-style:normal;font-size:12px">quant</text>
<text x="116.67" y="-15.602" transform="scale(1, -1)"
	style="font-family:Times;font-weight:normal;font-style:normal;font-size:10px">0.000000</text>
<text x="312.58" y="-15.602" transform="scale(1, -1)"
	style="font-family:Times;font-weight:normal;font-style:normal;font-size:10px">0.100000</text>
<text x="508.5" y="-15.602" transform="scale(1, -1)"
	style="font-family:Times;font-weight:normal;font-style:normal;font-size:10px">0.500000</text>
<text x="704.42" y="-15.602" transform="scale(1, -1)"
	style="font-family:Times;font-weight:normal;font-style:normal;font-size:10px">0.900000</text>
<text x="900.33" y="-15.602" transform="scale(1, -1)"
	style="font-family:Times;font-weight:normal;font-style:normal;font-size:10px">0.990000</text>
<text x="1096.2" y="-15.602" transform="scale(1, -1)"
	style="font-family:Times;font-weight:normal;font-style:normal;font-size:10px">0.999000</text>
<g transform="rotate(90)">
<text x="283.26" y="11.555" transform="scale(1, -1)"
	style="font-family:Times;font-weight:normal;font-style:normal;font-size:12px">%correct</text>
</g>
<text x="25.416" y="-25.509" transform="scale(1, -1)"
	style="font-family:Times;font-weight:normal;font-style:normal;font-size:10px">0</text>
<text x="20.416" y="-294.8" transform="scale(1, -1)"
	style="font-family:Times;font-weight:normal;font-style:normal;font-size:10px">50</text>
<text x="15.416" y="-564.09" transform="scale(1, -1)"
	style="font-family:Times;font-weight:normal;font-style:normal;font-size:10px">100</text>
<path d="M32.916,30.23L40.916,30.23" style="fill:none;stroke:#000000;stroke-width:0.5" />
<path d="M32.916,299.52L40.916,299.52" style="fill:none;stroke:#000000;stroke-width:0.5" />
<path d="M32.916,568.81L40.916,568.81" style="fill:none;stroke:#000000;stroke-width:0.5" />
<path d="M36.916,84.089L40.916,84.089" style="fill:none;stroke:#000000;stroke-width:0.5" />
<path d="M36.916,137.95L40.916,137.95" style="fill:none;stroke:#000000;stroke-width:0.5" />
<path d="M36.916,191.81L40.916,191.81" style="fill:none;stroke:#000000;stroke-width:0.5" />
<path d="M36.916,245.66L40.916,245.66" style="fill:none;stroke:#000000;stroke-width:0.5" />
<path d="M36.916,353.38L40.916,353.38" style="fill:none;stroke:#000000;stroke-width:0.5" />
<path d="M36.916,407.24L40.916,407.24" style="fill:none;stroke:#000000;stroke-width:0.5" />
<path d="M36.916,461.1L40.916,461.1" style="fill:none;stroke:#000000;stroke-width:0.5" />
<path d="M36.916,514.95L40.916,514.95" style="fill:none;stroke:#000000;stroke-width:0.5" />
<path d="M40.916,30.23L40.916,579.58" style="fill:none;stroke:#000000;stroke-width:0.5" />
<path d="M60.416,30.23L60.416,299.52L90.416,299.52L90.416,30.23Z" style="fill:#F15A60" />
<path d="M256.33,30.23L256.33,568.81L286.33,568.81L286.33,30.23Z" style="fill:#F15A60" />
<path d="M452.25,30.23L452.25,568.81L482.25,568.81L482.25,30.23Z" style="fill:#F15A60" />
<path d="M648.17,30.23L648.17,568.81L678.17,568.81L678.17,30.23Z" style="fill:#F15A60" />
<path d="M844.08,30.23L844.08,568.81L874.08,568.81L874.08,30.23Z" style="fill:#F15A60" />
<path d="M1040,30.23L1040,568.81L1070,568.81L1070,30.23Z" style="fill:#F15A60" />
<path d="M90.416,30.23L90.416,549.42L120.42,549.42L120.42,30.23Z" style="fill:#7AC36A" />
<path d="M286.33,30.23L286.33,564.5L316.33,564.5L316.33,30.23Z" style="fill:#7AC36A" />
<path d="M482.25,30.23L482.25,565.04L512.25,565.04L512.25,30.23Z" style="fill:#7AC36A" />
<path d="M678.17,30.23L678.17,568.27L708.17,568.27L708.17,30.23Z" style="fill:#7AC36A" />
<path d="M874.08,30.23L874.08,568.81L904.08,568.81L904.08,30.23Z" style="fill:#7AC36A" />
<path d="M1070,30.23L1070,568.81L1100,568.81L1100,30.23Z" style="fill:#7AC36A" />
<path d="M120.42,30.23L120.42,568.81L150.42,568.81L150.42,30.23Z" style="fill:#5A9BD4" />
<path d="M316.33,30.23L316.33,568.81L346.33,568.81L346.33,30.23Z" style="fill:#5A9BD4" />
<path d="M512.25,30.23L512.25,568.81L542.25,568.81L542.25,30.23Z" style="fill:#5A9BD4" />
<path d="M708.17,30.23L708.17,568.81L738.17,568.81L738.17,30.23Z" style="fill:#5A9BD4" />
<path d="M904.08,30.23L904.08,568.81L934.08,568.81L934.08,30.23Z" style="fill:#5A9BD4" />
<path d="M1100,30.23L1100,568.81L1130,568.81L1130,30.23Z" style="fill:#5A9BD4" />
<path d="M150.42,30.23L150.42,579.58L180.42,579.58L180.42,30.23Z" style="fill:#FAA75B" />
<path d="M346.33,30.23L346.33,568.81L376.33,568.81L376.33,30.23Z" style="fill:#FAA75B" />
<path d="M542.25,30.23L542.25,43.641L572.25,43.641L572.25,30.23Z" style="fill:#FAA75B" />
<path d="M738.17,30.23L738.17,567.2L768.17,567.2L768.17,30.23Z" style="fill:#FAA75B" />
<path d="M934.08,30.23L934.08,565.58L964.08,565.58L964.08,30.23Z" style="fill:#FAA75B" />
<path d="M1130,30.23L1130,568.27L1160,568.27L1160,30.23Z" style="fill:#FAA75B" />
<path d="M180.42,30.23L180.42,537.57L210.42,537.57L210.42,30.23Z" style="fill:#9E67AB" />
<path d="M376.33,30.23L376.33,566.66L406.33,566.66L406.33,30.23Z" style="fill:#9E67AB" />
<path d="M572.25,30.23L572.25,567.74L602.25,567.74L602.25,30.23Z" style="fill:#9E67AB" />
<path d="M768.17,30.23L768.17,247.82L798.17,247.82L798.17,30.23Z" style="fill:#9E67AB" />
<path d="M964.08,30.23L964.08,568.81L994.08,568.81L994.08,30.23Z" style="fill:#9E67AB" />
<path d="M1160,30.23L1160,568.81L1190,568.81L1190,30.23Z" style="fill:#9E67AB" />
<path d="M1170,567.81L1170,579.58L1190,579.58L1190,567.81Z" style="fill:#F15A60" />
<text x="1139.7" y="-568.03" transform="scale(1, -1)"
	style="font-family:Times;font-weight:normal;font-style:normal;font-size:12px">linear</text>
<path d="M1170,556.03L1170,567.81L1190,567.81L1190,556.03Z" style="fill:#7AC36A" />
<text x="1145.7" y="-556.25" transform="scale(1, -1)"
	style="font-family:Times;font-weight:normal;font-style:normal;font-size:12px">rand</text>
<path d="M1170,544.25L1170,556.03L1190,556.03L1190,544.25Z" style="fill:#5A9BD4" />
<text x="1115.7" y="-544.47" transform="scale(1, -1)"
	style="font-family:Times;font-weight:normal;font-style:normal;font-size:12px">alternating</text>
<path d="M1170,532.47L1170,544.25L1190,544.25L1190,532.47Z" style="fill:#FAA75B" />
<text x="1133" y="-532.7" transform="scale(1, -1)"
	style="font-family:Times;font-weight:normal;font-style:normal;font-size:12px">normal</text>
<path d="M1170,520.7L1170,532.47L1190,532.47L1190,520.7Z" style="fill:#9E67AB" />
<text x="1126.3" y="-520.92" transform="scale(1, -1)"
	style="font-family:Times;font-weight:normal;font-style:normal;font-size:12px">tailspike</text>
</g>
</svg>
