<?xml version="1.0"?>
<!-- Generated by SVGo and Plotinum VG -->
<svg width="11090pt" height="5545pt" viewBox="0 0 11090 5545"
	xmlns="http://www.w3.org/2000/svg"
	xmlns:xlink="http://www.w3.org/1999/xlink">
<g transform="scale(1, -1) translate(0, -5545)">
<path d="M0,0L11090,0L11090,5545L0,5545Z" style="fill:#FFFFFF" />
<text x="5453.6" y="-5533.4" transform="scale(1, -1)"
	style="font-family:Times;font-weight:normal;font-style:normal;font-size:12px">BenchmarkCorrectness/size=1000000</text>
<text x="5576.9" y="-3.8613" transform="scale(1, -1)"
	style="font-family:Times;font-weight:normal;font-style:normal;font-size:12px">quant</text>
<text x="956.67" y="-15.602" transform="scale(1, -1)"
	style="font-family:Times;font-weight:normal;font-style:normal;font-size:10px">0.000000</text>
<text x="2802.6" y="-15.602" transform="scale(1, -1)"
	style="font-family:Times;font-weight:normal;font-style:normal;font-size:10px">0.100000</text>
<text x="4648.5" y="-15.602" transform="scale(1, -1)"
	style="font-family:Times;font-weight:normal;font-style:normal;font-size:10px">0.500000</text>
<text x="6494.4" y="-15.602" transform="scale(1, -1)"
	style="font-family:Times;font-weight:normal;font-style:normal;font-size:10px">0.900000</text>
<text x="8340.3" y="-15.602" transform="scale(1, -1)"
	style="font-family:Times;font-weight:normal;font-style:normal;font-size:10px">0.990000</text>
<text x="10186" y="-15.602" transform="scale(1, -1)"
	style="font-family:Times;font-weight:normal;font-style:normal;font-size:10px">0.999000</text>
<g transform="rotate(90)">
<text x="2758.3" y="11.555" transform="scale(1, -1)"
	style="font-family:Times;font-weight:normal;font-style:normal;font-size:12px">%correct</text>
</g>
<text x="25.416" y="-25.509" transform="scale(1, -1)"
	style="font-family:Times;font-weight:normal;font-style:normal;font-size:10px">0</text>
<text x="20.416" y="-2721.3" transform="scale(1, -1)"
	style="font-family:Times;font-weight:normal;font-style:normal;font-size:10px">50</text>
<text x="15.416" y="-5417" transform="scale(1, -1)"
	style="font-family:Times;font-weight:normal;font-style:normal;font-size:10px">100</text>
<path d="M32.916,30.23L40.916,30.23" style="fill:none;stroke:#000000;stroke-width:0.5" />
<path d="M32.916,2726L40.916,2726" style="fill:none;stroke:#000000;stroke-width:0.5" />
<path d="M32.916,5421.8L40.916,5421.8" style="fill:none;stroke:#000000;stroke-width:0.5" />
<path d="M36.916,569.38L40.916,569.38" style="fill:none;stroke:#000000;stroke-width:0.5" />
<path d="M36.916,1108.5L40.916,1108.5" style="fill:none;stroke:#000000;stroke-width:0.5" />
<path d="M36.916,1647.7L40.916,1647.7" style="fill:none;stroke:#000000;stroke-width:0.5" />
<path d="M36.916,2186.8L40.916,2186.8" style="fill:none;stroke:#000000;stroke-width:0.5" />
<path d="M36.916,3265.1L40.916,3265.1" style="fill:none;stroke:#000000;stroke-width:0.5" />
<path d="M36.916,3804.3L40.916,3804.3" style="fill:none;stroke:#000000;stroke-width:0.5" />
<path d="M36.916,4343.4L40.916,4343.4" style="fill:none;stroke:#000000;stroke-width:0.5" />
<path d="M36.916,4882.6L40.916,4882.6" style="fill:none;stroke:#000000;stroke-width:0.5" />
<path d="M40.916,30.23L40.916,5529.6" style="fill:none;stroke:#000000;stroke-width:0.5" />
<path d="M60.416,30.23L60.416,5421.8L90.416,5421.8L90.416,30.23Z" style="fill:#F15A60" />
<path d="M1906.3,30.23L1906.3,30.23L1936.3,30.23L1936.3,30.23Z" style="fill:#F15A60" />
<path d="M3752.2,30.23L3752.2,30.23L3782.2,30.23L3782.2,30.23Z" style="fill:#F15A60" />
<path d="M5598.2,30.23L5598.2,30.23L5628.2,30.23L5628.2,30.23Z" style="fill:#F15A60" />
<path d="M7444.1,30.23L7444.1,30.23L7474.1,30.23L7474.1,30.23Z" style="fill:#F15A60" />
<path d="M9290,30.23L9290,30.23L9320,30.23L9320,30.23Z" style="fill:#F15A60" />
<path d="M90.416,30.23L90.416,30.23L120.42,30.23L120.42,30.23Z" style="fill:#7AC36A" />
<path d="M1936.3,30.23L1936.3,5421.8L1966.3,5421.8L1966.3,30.23Z" style="fill:#7AC36A" />
<path d="M3782.2,30.23L3782.2,30.23L3812.2,30.23L3812.2,30.23Z" style="fill:#7AC36A" />
<path d="M5628.2,30.23L5628.2,30.23L5658.2,30.23L5658.2,30.23Z" style="fill:#7AC36A" />
<path d="M7474.1,30.23L7474.1,30.23L7504.1,30.23L7504.1,30.23Z" style="fill:#7AC36A" />
<path d="M9320,30.23L9320,30.23L9350,30.23L9350,30.23Z" style="fill:#7AC36A" />
<path d="M120.42,30.23L120.42,30.23L150.42,30.23L150.42,30.23Z" style="fill:#5A9BD4" />
<path d="M1966.3,30.23L1966.3,30.23L1996.3,30.23L1996.3,30.23Z" style="fill:#5A9BD4" />
<path d="M3812.2,30.23L3812.2,5421.8L3842.2,5421.8L3842.2,30.23Z" style="fill:#5A9BD4" />
<path d="M5658.2,30.23L5658.2,30.23L5688.2,30.23L5688.2,30.23Z" style="fill:#5A9BD4" />
<path d="M7504.1,30.23L7504.1,30.23L7534.1,30.23L7534.1,30.23Z" style="fill:#5A9BD4" />
<path d="M9350,30.23L9350,30.23L9380,30.23L9380,30.23Z" style="fill:#5A9BD4" />
<path d="M150.42,30.23L150.42,30.23L180.42,30.23L180.42,30.23Z" style="fill:#FAA75B" />
<path d="M1996.3,30.23L1996.3,30.23L2026.3,30.23L2026.3,30.23Z" style="fill:#FAA75B" />
<path d="M3842.2,30.23L3842.2,30.23L3872.2,30.23L3872.2,30.23Z" style="fill:#FAA75B" />
<path d="M5688.2,30.23L5688.2,5421.8L5718.2,5421.8L5718.2,30.23Z" style="fill:#FAA75B" />
<path d="M7534.1,30.23L7534.1,30.23L7564.1,30.23L7564.1,30.23Z" style="fill:#FAA75B" />
<path d="M9380,30.23L9380,30.23L9410,30.23L9410,30.23Z" style="fill:#FAA75B" />
<path d="M180.42,30.23L180.42,30.23L210.42,30.23L210.42,30.23Z" style="fill:#9E67AB" />
<path d="M2026.3,30.23L2026.3,30.23L2056.3,30.23L2056.3,30.23Z" style="fill:#9E67AB" />
<path d="M3872.2,30.23L3872.2,30.23L3902.2,30.23L3902.2,30.23Z" style="fill:#9E67AB" />
<path d="M5718.2,30.23L5718.2,30.23L5748.2,30.23L5748.2,30.23Z" style="fill:#9E67AB" />
<path d="M7564.1,30.23L7564.1,5421.8L7594.1,5421.8L7594.1,30.23Z" style="fill:#9E67AB" />
<path d="M9410,30.23L9410,30.23L9440,30.23L9440,30.23Z" style="fill:#9E67AB" />
<path d="M210.42,30.23L210.42,30.23L240.42,30.23L240.42,30.23Z" style="fill:#CE7058" />
<path d="M2056.3,30.23L2056.3,30.23L2086.3,30.23L2086.3,30.23Z" style="fill:#CE7058" />
<path d="M3902.2,30.23L3902.2,30.23L3932.2,30.23L3932.2,30.23Z" style="fill:#CE7058" />
<path d="M5748.2,30.23L5748.2,30.23L5778.2,30.23L5778.2,30.23Z" style="fill:#CE7058" />
<path d="M7594.1,30.23L7594.1,30.23L7624.1,30.23L7624.1,30.23Z" style="fill:#CE7058" />
<path d="M9440,30.23L9440,5421.8L9470,5421.8L9470,30.23Z" style="fill:#CE7058" />
<path d="M240.42,30.23L240.42,2726L270.42,2726L270.42,30.23Z" style="fill:#D77FB4" />
<path d="M2086.3,30.23L2086.3,30.23L2116.3,30.23L2116.3,30.23Z" style="fill:#D77FB4" />
<path d="M3932.2,30.23L3932.2,30.23L3962.2,30.23L3962.2,30.23Z" style="fill:#D77FB4" />
<path d="M5778.2,30.23L5778.2,30.23L5808.2,30.23L5808.2,30.23Z" style="fill:#D77FB4" />
<path d="M7624.1,30.23L7624.1,30.23L7654.1,30.23L7654.1,30.23Z" style="fill:#D77FB4" />
<path d="M9470,30.23L9470,30.23L9500,30.23L9500,30.23Z" style="fill:#D77FB4" />
<path d="M270.42,30.23L270.42,30.23L300.42,30.23L300.42,30.23Z" style="fill:#F15A60" />
<path d="M2116.3,30.23L2116.3,5421.8L2146.3,5421.8L2146.3,30.23Z" style="fill:#F15A60" />
<path d="M3962.2,30.23L3962.2,30.23L3992.2,30.23L3992.2,30.23Z" style="fill:#F15A60" />
<path d="M5808.2,30.23L5808.2,30.23L5838.2,30.23L5838.2,30.23Z" style="fill:#F15A60" />
<path d="M7654.1,30.23L7654.1,30.23L7684.1,30.23L7684.1,30.23Z" style="fill:#F15A60" />
<path d="M9500,30.23L9500,30.23L9530,30.23L9530,30.23Z" style="fill:#F15A60" />
<path d="M300.42,30.23L300.42,30.23L330.42,30.23L330.42,30.23Z" style="fill:#7AC36A" />
<path d="M2146.3,30.23L2146.3,30.23L2176.3,30.23L2176.3,30.23Z" style="fill:#7AC36A" />
<path d="M3992.2,30.23L3992.2,5421.8L4022.2,5421.8L4022.2,30.23Z" style="fill:#7AC36A" />
<path d="M5838.2,30.23L5838.2,30.23L5868.2,30.23L5868.2,30.23Z" style="fill:#7AC36A" />
<path d="M7684.1,30.23L7684.1,30.23L7714.1,30.23L7714.1,30.23Z" style="fill:#7AC36A" />
<path d="M9530,30.23L9530,30.23L9560,30.23L9560,30.23Z" style="fill:#7AC36A" />
<path d="M330.42,30.23L330.42,30.23L360.42,30.23L360.42,30.23Z" style="fill:#5A9BD4" />
<path d="M2176.3,30.23L2176.3,30.23L2206.3,30.23L2206.3,30.23Z" style="fill:#5A9BD4" />
<path d="M4022.2,30.23L4022.2,30.23L4052.2,30.23L4052.2,30.23Z" style="fill:#5A9BD4" />
<path d="M5868.2,30.23L5868.2,5421.8L5898.2,5421.8L5898.2,30.23Z" style="fill:#5A9BD4" />
<path d="M7714.1,30.23L7714.1,30.23L7744.1,30.23L7744.1,30.23Z" style="fill:#5A9BD4" />
<path d="M9560,30.23L9560,30.23L9590,30.23L9590,30.23Z" style="fill:#5A9BD4" />
<path d="M360.42,30.23L360.42,30.23L390.42,30.23L390.42,30.23Z" style="fill:#FAA75B" />
<path d="M2206.3,30.23L2206.3,30.23L2236.3,30.23L2236.3,30.23Z" style="fill:#FAA75B" />
<path d="M4052.2,30.23L4052.2,30.23L4082.2,30.23L4082.2,30.23Z" style="fill:#FAA75B" />
<path d="M5898.2,30.23L5898.2,30.23L5928.2,30.23L5928.2,30.23Z" style="fill:#FAA75B" />
<path d="M7744.1,30.23L7744.1,5421.8L7774.1,5421.8L7774.1,30.23Z" style="fill:#FAA75B" />
<path d="M9590,30.23L9590,30.23L9620,30.23L9620,30.23Z" style="fill:#FAA75B" />
<path d="M390.42,30.23L390.42,30.23L420.42,30.23L420.42,30.23Z" style="fill:#9E67AB" />
<path d="M2236.3,30.23L2236.3,30.23L2266.3,30.23L2266.3,30.23Z" style="fill:#9E67AB" />
<path d="M4082.2,30.23L4082.2,30.23L4112.2,30.23L4112.2,30.23Z" style="fill:#9E67AB" />
<path d="M5928.2,30.23L5928.2,30.23L5958.2,30.23L5958.2,30.23Z" style="fill:#9E67AB" />
<path d="M7774.1,30.23L7774.1,30.23L7804.1,30.23L7804.1,30.23Z" style="fill:#9E67AB" />
<path d="M9620,30.23L9620,5421.8L9650,5421.8L9650,30.23Z" style="fill:#9E67AB" />
<path d="M420.42,30.23L420.42,5421.8L450.42,5421.8L450.42,30.23Z" style="fill:#CE7058" />
<path d="M2266.3,30.23L2266.3,30.23L2296.3,30.23L2296.3,30.23Z" style="fill:#CE7058" />
<path d="M4112.2,30.23L4112.2,30.23L4142.2,30.23L4142.2,30.23Z" style="fill:#CE7058" />
<path d="M5958.2,30.23L5958.2,30.23L5988.2,30.23L5988.2,30.23Z" style="fill:#CE7058" />
<path d="M7804.1,30.23L7804.1,30.23L7834.1,30.23L7834.1,30.23Z" style="fill:#CE7058" />
<path d="M9650,30.23L9650,30.23L9680,30.23L9680,30.23Z" style="fill:#CE7058" />
<path d="M450.42,30.23L450.42,30.23L480.42,30.23L480.42,30.23Z" style="fill:#D77FB4" />
<path d="M2296.3,30.23L2296.3,5421.8L2326.3,5421.8L2326.3,30.23Z" style="fill:#D77FB4" />
<path d="M4142.2,30.23L4142.2,30.23L4172.2,30.23L4172.2,30.23Z" style="fill:#D77FB4" />
<path d="M5988.2,30.23L5988.2,30.23L6018.2,30.23L6018.2,30.23Z" style="fill:#D77FB4" />
<path d="M7834.1,30.23L7834.1,30.23L7864.1,30.23L7864.1,30.23Z" style="fill:#D77FB4" />
<path d="M9680,30.23L9680,30.23L9710,30.23L9710,30.23Z" style="fill:#D77FB4" />
<path d="M480.42,30.23L480.42,30.23L510.42,30.23L510.42,30.23Z" style="fill:#F15A60" />
<path d="M2326.3,30.23L2326.3,30.23L2356.3,30.23L2356.3,30.23Z" style="fill:#F15A60" />
<path d="M4172.2,30.23L4172.2,5421.8L4202.2,5421.8L4202.2,30.23Z" style="fill:#F15A60" />
<path d="M6018.2,30.23L6018.2,30.23L6048.2,30.23L6048.2,30.23Z" style="fill:#F15A60" />
<path d="M7864.1,30.23L7864.1,30.23L7894.1,30.23L7894.1,30.23Z" style="fill:#F15A60" />
<path d="M9710,30.23L9710,30.23L9740,30.23L9740,30.23Z" style="fill:#F15A60" />
<path d="M510.42,30.23L510.42,30.23L540.42,30.23L540.42,30.23Z" style="fill:#7AC36A" />
<path d="M2356.3,30.23L2356.3,30.23L2386.3,30.23L2386.3,30.23Z" style="fill:#7AC36A" />
<path d="M4202.2,30.23L4202.2,30.23L4232.2,30.23L4232.2,30.23Z" style="fill:#7AC36A" />
<path d="M6048.2,30.23L6048.2,5421.8L6078.2,5421.8L6078.2,30.23Z" style="fill:#7AC36A" />
<path d="M7894.1,30.23L7894.1,30.23L7924.1,30.23L7924.1,30.23Z" style="fill:#7AC36A" />
<path d="M9740,30.23L9740,30.23L9770,30.23L9770,30.23Z" style="fill:#7AC36A" />
<path d="M540.42,30.23L540.42,30.23L570.42,30.23L570.42,30.23Z" style="fill:#5A9BD4" />
<path d="M2386.3,30.23L2386.3,30.23L2416.3,30.23L2416.3,30.23Z" style="fill:#5A9BD4" />
<path d="M4232.2,30.23L4232.2,30.23L4262.2,30.23L4262.2,30.23Z" style="fill:#5A9BD4" />
<path d="M6078.2,30.23L6078.2,30.23L6108.2,30.23L6108.2,30.23Z" style="fill:#5A9BD4" />
<path d="M7924.1,30.23L7924.1,5421.8L7954.1,5421.8L7954.1,30.23Z" style="fill:#5A9BD4" />
<path d="M9770,30.23L9770,30.23L9800,30.23L9800,30.23Z" style="fill:#5A9BD4" />
<path d="M570.42,30.23L570.42,30.23L600.42,30.23L600.42,30.23Z" style="fill:#FAA75B" />
<path d="M2416.3,30.23L2416.3,30.23L2446.3,30.23L2446.3,30.23Z" style="fill:#FAA75B" />
<path d="M4262.2,30.23L4262.2,30.23L4292.2,30.23L4292.2,30.23Z" style="fill:#FAA75B" />
<path d="M6108.2,30.23L6108.2,30.23L6138.2,30.23L6138.2,30.23Z" style="fill:#FAA75B" />
<path d="M7954.1,30.23L7954.1,30.23L7984.1,30.23L7984.1,30.23Z" style="fill:#FAA75B" />
<path d="M9800,30.23L9800,5421.8L9830,5421.8L9830,30.23Z" style="fill:#FAA75B" />
<path d="M600.42,30.23L600.42,5227.7L630.42,5227.7L630.42,30.23Z" style="fill:#9E67AB" />
<path d="M2446.3,30.23L2446.3,30.23L2476.3,30.23L2476.3,30.23Z" style="fill:#9E67AB" />
<path d="M4292.2,30.23L4292.2,30.23L4322.2,30.23L4322.2,30.23Z" style="fill:#9E67AB" />
<path d="M6138.2,30.23L6138.2,30.23L6168.2,30.23L6168.2,30.23Z" style="fill:#9E67AB" />
<path d="M7984.1,30.23L7984.1,30.23L8014.1,30.23L8014.1,30.23Z" style="fill:#9E67AB" />
<path d="M9830,30.23L9830,30.23L9860,30.23L9860,30.23Z" style="fill:#9E67AB" />
<path d="M630.42,30.23L630.42,30.23L660.42,30.23L660.42,30.23Z" style="fill:#CE7058" />
<path d="M2476.3,30.23L2476.3,5378.6L2506.3,5378.6L2506.3,30.23Z" style="fill:#CE7058" />
<path d="M4322.2,30.23L4322.2,30.23L4352.2,30.23L4352.2,30.23Z" style="fill:#CE7058" />
<path d="M6168.2,30.23L6168.2,30.23L6198.2,30.23L6198.2,30.23Z" style="fill:#CE7058" />
<path d="M8014.1,30.23L8014.1,30.23L8044.1,30.23L8044.1,30.23Z" style="fill:#CE7058" />
<path d="M9860,30.23L9860,30.23L9890,30.23L9890,30.23Z" style="fill:#CE7058" />
<path d="M660.42,30.23L660.42,30.23L690.42,30.23L690.42,30.23Z" style="fill:#D77FB4" />
<path d="M2506.3,30.23L2506.3,30.23L2536.3,30.23L2536.3,30.23Z" style="fill:#D77FB4" />
<path d="M4352.2,30.23L4352.2,5384L4382.2,5384L4382.2,30.23Z" style="fill:#D77FB4" />
<path d="M6198.2,30.23L6198.2,30.23L6228.2,30.23L6228.2,30.23Z" style="fill:#D77FB4" />
<path d="M8044.1,30.23L8044.1,30.23L8074.1,30.23L8074.1,30.23Z" style="fill:#D77FB4" />
<path d="M9890,30.23L9890,30.23L9920,30.23L9920,30.23Z" style="fill:#D77FB4" />
<path d="M690.42,30.23L690.42,30.23L720.42,30.23L720.42,30.23Z" style="fill:#F15A60" />
<path d="M2536.3,30.23L2536.3,30.23L2566.3,30.23L2566.3,30.23Z" style="fill:#F15A60" />
<path d="M4382.2,30.23L4382.2,30.23L4412.2,30.23L4412.2,30.23Z" style="fill:#F15A60" />
<path d="M6228.2,30.23L6228.2,5416.4L6258.2,5416.4L6258.2,30.23Z" style="fill:#F15A60" />
<path d="M8074.1,30.23L8074.1,30.23L8104.1,30.23L8104.1,30.23Z" style="fill:#F15A60" />
<path d="M9920,30.23L9920,30.23L9950,30.23L9950,30.23Z" style="fill:#F15A60" />
<path d="M720.42,30.23L720.42,30.23L750.42,30.23L750.42,30.23Z" style="fill:#7AC36A" />
<path d="M2566.3,30.23L2566.3,30.23L2596.3,30.23L2596.3,30.23Z" style="fill:#7AC36A" />
<path d="M4412.2,30.23L4412.2,30.23L4442.2,30.23L4442.2,30.23Z" style="fill:#7AC36A" />
<path d="M6258.2,30.23L6258.2,30.23L6288.2,30.23L6288.2,30.23Z" style="fill:#7AC36A" />
<path d="M8104.1,30.23L8104.1,5421.8L8134.1,5421.8L8134.1,30.23Z" style="fill:#7AC36A" />
<path d="M9950,30.23L9950,30.23L9980,30.23L9980,30.23Z" style="fill:#7AC36A" />
<path d="M750.42,30.23L750.42,30.23L780.42,30.23L780.42,30.23Z" style="fill:#5A9BD4" />
<path d="M2596.3,30.23L2596.3,30.23L2626.3,30.23L2626.3,30.23Z" style="fill:#5A9BD4" />
<path d="M4442.2,30.23L4442.2,30.23L4472.2,30.23L4472.2,30.23Z" style="fill:#5A9BD4" />
<path d="M6288.2,30.23L6288.2,30.23L6318.2,30.23L6318.2,30.23Z" style="fill:#5A9BD4" />
<path d="M8134.1,30.23L8134.1,30.23L8164.1,30.23L8164.1,30.23Z" style="fill:#5A9BD4" />
<path d="M9980,30.23L9980,5421.8L10010,5421.8L10010,30.23Z" style="fill:#5A9BD4" />
<path d="M780.42,30.23L780.42,5421.8L810.42,5421.8L810.42,30.23Z" style="fill:#FAA75B" />
<path d="M2626.3,30.23L2626.3,30.23L2656.3,30.23L2656.3,30.23Z" style="fill:#FAA75B" />
<path d="M4472.2,30.23L4472.2,30.23L4502.2,30.23L4502.2,30.23Z" style="fill:#FAA75B" />
<path d="M6318.2,30.23L6318.2,30.23L6348.2,30.23L6348.2,30.23Z" style="fill:#FAA75B" />
<path d="M8164.1,30.23L8164.1,30.23L8194.1,30.23L8194.1,30.23Z" style="fill:#FAA75B" />
<path d="M10010,30.23L10010,30.23L10040,30.23L10040,30.23Z" style="fill:#FAA75B" />
<path d="M810.42,30.23L810.42,30.23L840.42,30.23L840.42,30.23Z" style="fill:#9E67AB" />
<path d="M2656.3,30.23L2656.3,5421.8L2686.3,5421.8L2686.3,30.23Z" style="fill:#9E67AB" />
<path d="M4502.2,30.23L4502.2,30.23L4532.2,30.23L4532.2,30.23Z" style="fill:#9E67AB" />
<path d="M6348.2,30.23L6348.2,30.23L6378.2,30.23L6378.2,30.23Z" style="fill:#9E67AB" />
<path d="M8194.1,30.23L8194.1,30.23L8224.1,30.23L8224.1,30.23Z" style="fill:#9E67AB" />
<path d="M10040,30.23L10040,30.23L10070,30.23L10070,30.23Z" style="fill:#9E67AB" />
<path d="M840.42,30.23L840.42,30.23L870.42,30.23L870.42,30.23Z" style="fill:#CE7058" />
<path d="M2686.3,30.23L2686.3,30.23L2716.3,30.23L2716.3,30.23Z" style="fill:#CE7058" />
<path d="M4532.2,30.23L4532.2,5421.8L4562.2,5421.8L4562.2,30.23Z" style="fill:#CE7058" />
<path d="M6378.2,30.23L6378.2,30.23L6408.2,30.23L6408.2,30.23Z" style="fill:#CE7058" />
<path d="M8224.1,30.23L8224.1,30.23L8254.1,30.23L8254.1,30.23Z" style="fill:#CE7058" />
<path d="M10070,30.23L10070,30.23L10100,30.23L10100,30.23Z" style="fill:#CE7058" />
<path d="M870.42,30.23L870.42,30.23L900.42,30.23L900.42,30.23Z" style="fill:#D77FB4" />
<path d="M2716.3,30.23L2716.3,30.23L2746.3,30.23L2746.3,30.23Z" style="fill:#D77FB4" />
<path d="M4562.2,30.23L4562.2,30.23L4592.2,30.23L4592.2,30.23Z" style="fill:#D77FB4" />
<path d="M6408.2,30.23L6408.2,5421.8L6438.2,5421.8L6438.2,30.23Z" style="fill:#D77FB4" />
<path d="M8254.1,30.23L8254.1,30.23L8284.1,30.23L8284.1,30.23Z" style="fill:#D77FB4" />
<path d="M10100,30.23L10100,30.23L10130,30.23L10130,30.23Z" style="fill:#D77FB4" />
<path d="M900.42,30.23L900.42,30.23L930.42,30.23L930.42,30.23Z" style="fill:#F15A60" />
<path d="M2746.3,30.23L2746.3,30.23L2776.3,30.23L2776.3,30.23Z" style="fill:#F15A60" />
<path d="M4592.2,30.23L4592.2,30.23L4622.2,30.23L4622.2,30.23Z" style="fill:#F15A60" />
<path d="M6438.2,30.23L6438.2,30.23L6468.2,30.23L6468.2,30.23Z" style="fill:#F15A60" />
<path d="M8284.1,30.23L8284.1,5421.8L8314.1,5421.8L8314.1,30.23Z" style="fill:#F15A60" />
<path d="M10130,30.23L10130,30.23L10160,30.23L10160,30.23Z" style="fill:#F15A60" />
<path d="M930.42,30.23L930.42,30.23L960.42,30.23L960.42,30.23Z" style="fill:#7AC36A" />
<path d="M2776.3,30.23L2776.3,30.23L2806.3,30.23L2806.3,30.23Z" style="fill:#7AC36A" />
<path d="M4622.2,30.23L4622.2,30.23L4652.2,30.23L4652.2,30.23Z" style="fill:#7AC36A" />
<path d="M6468.2,30.23L6468.2,30.23L6498.2,30.23L6498.2,30.23Z" style="fill:#7AC36A" />
<path d="M8314.1,30.23L8314.1,30.23L8344.1,30.23L8344.1,30.23Z" style="fill:#7AC36A" />
<path d="M10160,30.23L10160,5421.8L10190,5421.8L10190,30.23Z" style="fill:#7AC36A" />
<path d="M960.42,30.23L960.42,5421.8L990.42,5421.8L990.42,30.23Z" style="fill:#5A9BD4" />
<path d="M2806.3,30.23L2806.3,30.23L2836.3,30.23L2836.3,30.23Z" style="fill:#5A9BD4" />
<path d="M4652.2,30.23L4652.2,30.23L4682.2,30.23L4682.2,30.23Z" style="fill:#5A9BD4" />
<path d="M6498.2,30.23L6498.2,30.23L6528.2,30.23L6528.2,30.23Z" style="fill:#5A9BD4" />
<path d="M8344.1,30.23L8344.1,30.23L8374.1,30.23L8374.1,30.23Z" style="fill:#5A9BD4" />
<path d="M10190,30.23L10190,30.23L10220,30.23L10220,30.23Z" style="fill:#5A9BD4" />
<path d="M990.42,30.23L990.42,30.23L1020.4,30.23L1020.4,30.23Z" style="fill:#FAA75B" />
<path d="M2836.3,30.23L2836.3,5421.8L2866.3,5421.8L2866.3,30.23Z" style="fill:#FAA75B" />
<path d="M4682.2,30.23L4682.2,30.23L4712.2,30.23L4712.2,30.23Z" style="fill:#FAA75B" />
<path d="M6528.2,30.23L6528.2,30.23L6558.2,30.23L6558.2,30.23Z" style="fill:#FAA75B" />
<path d="M8374.1,30.23L8374.1,30.23L8404.1,30.23L8404.1,30.23Z" style="fill:#FAA75B" />
<path d="M10220,30.23L10220,30.23L10250,30.23L10250,30.23Z" style="fill:#FAA75B" />
<path d="M1020.4,30.23L1020.4,30.23L1050.4,30.23L1050.4,30.23Z" style="fill:#9E67AB" />
<path d="M2866.3,30.23L2866.3,30.23L2896.3,30.23L2896.3,30.23Z" style="fill:#9E67AB" />
<path d="M4712.2,30.23L4712.2,5421.8L4742.2,5421.8L4742.2,30.23Z" style="fill:#9E67AB" />
<path d="M6558.2,30.23L6558.2,30.23L6588.2,30.23L6588.2,30.23Z" style="fill:#9E67AB" />
<path d="M8404.1,30.23L8404.1,30.23L8434.1,30.23L8434.1,30.23Z" style="fill:#9E67AB" />
<path d="M10250,30.23L10250,30.23L10280,30.23L10280,30.23Z" style="fill:#9E67AB" />
<path d="M1050.4,30.23L1050.4,30.23L1080.4,30.23L1080.4,30.23Z" style="fill:#CE7058" />
<path d="M2896.3,30.23L2896.3,30.23L2926.3,30.23L2926.3,30.23Z" style="fill:#CE7058" />
<path d="M4742.2,30.23L4742.2,30.23L4772.2,30.23L4772.2,30.23Z" style="fill:#CE7058" />
<path d="M6588.2,30.23L6588.2,5421.8L6618.2,5421.8L6618.2,30.23Z" style="fill:#CE7058" />
<path d="M8434.1,30.23L8434.1,30.23L8464.1,30.23L8464.1,30.23Z" style="fill:#CE7058" />
<path d="M10280,30.23L10280,30.23L10310,30.23L10310,30.23Z" style="fill:#CE7058" />
<path d="M1080.4,30.23L1080.4,30.23L1110.4,30.23L1110.4,30.23Z" style="fill:#D77FB4" />
<path d="M2926.3,30.23L2926.3,30.23L2956.3,30.23L2956.3,30.23Z" style="fill:#D77FB4" />
<path d="M4772.2,30.23L4772.2,30.23L4802.2,30.23L4802.2,30.23Z" style="fill:#D77FB4" />
<path d="M6618.2,30.23L6618.2,30.23L6648.2,30.23L6648.2,30.23Z" style="fill:#D77FB4" />
<path d="M8464.1,30.23L8464.1,5421.8L8494.1,5421.8L8494.1,30.23Z" style="fill:#D77FB4" />
<path d="M10310,30.23L10310,30.23L10340,30.23L10340,30.23Z" style="fill:#D77FB4" />
<path d="M1110.4,30.23L1110.4,30.23L1140.4,30.23L1140.4,30.23Z" style="fill:#F15A60" />
<path d="M2956.3,30.23L2956.3,30.23L2986.3,30.23L2986.3,30.23Z" style="fill:#F15A60" />
<path d="M4802.2,30.23L4802.2,30.23L4832.2,30.23L4832.2,30.23Z" style="fill:#F15A60" />
<path d="M6648.2,30.23L6648.2,30.23L6678.2,30.23L6678.2,30.23Z" style="fill:#F15A60" />
<path d="M8494.1,30.23L8494.1,30.23L8524.1,30.23L8524.1,30.23Z" style="fill:#F15A60" />
<path d="M10340,30.23L10340,5421.8L10370,5421.8L10370,30.23Z" style="fill:#F15A60" />
<path d="M1140.4,30.23L1140.4,5421.8L1170.4,5421.8L1170.4,30.23Z" style="fill:#7AC36A" />
<path d="M2986.3,30.23L2986.3,30.23L3016.3,30.23L3016.3,30.23Z" style="fill:#7AC36A" />
<path d="M4832.2,30.23L4832.2,30.23L4862.2,30.23L4862.2,30.23Z" style="fill:#7AC36A" />
<path d="M6678.2,30.23L6678.2,30.23L6708.2,30.23L6708.2,30.23Z" style="fill:#7AC36A" />
<path d="M8524.1,30.23L8524.1,30.23L8554.1,30.23L8554.1,30.23Z" style="fill:#7AC36A" />
<path d="M10370,30.23L10370,30.23L10400,30.23L10400,30.23Z" style="fill:#7AC36A" />
<path d="M1170.4,30.23L1170.4,30.23L1200.4,30.23L1200.4,30.23Z" style="fill:#5A9BD4" />
<path d="M3016.3,30.23L3016.3,5421.8L3046.3,5421.8L3046.3,30.23Z" style="fill:#5A9BD4" />
<path d="M4862.2,30.23L4862.2,30.23L4892.2,30.23L4892.2,30.23Z" style="fill:#5A9BD4" />
<path d="M6708.2,30.23L6708.2,30.23L6738.2,30.23L6738.2,30.23Z" style="fill:#5A9BD4" />
<path d="M8554.1,30.23L8554.1,30.23L8584.1,30.23L8584.1,30.23Z" style="fill:#5A9BD4" />
<path d="M10400,30.23L10400,30.23L10430,30.23L10430,30.23Z" style="fill:#5A9BD4" />
<path d="M1200.4,30.23L1200.4,30.23L1230.4,30.23L1230.4,30.23Z" style="fill:#FAA75B" />
<path d="M3046.3,30.23L3046.3,30.23L3076.3,30.23L3076.3,30.23Z" style="fill:#FAA75B" />
<path d="M4892.2,30.23L4892.2,5168.4L4922.2,5168.4L4922.2,30.23Z" style="fill:#FAA75B" />
<path d="M6738.2,30.23L6738.2,30.23L6768.2,30.23L6768.2,30.23Z" style="fill:#FAA75B" />
<path d="M8584.1,30.23L8584.1,30.23L8614.1,30.23L8614.1,30.23Z" style="fill:#FAA75B" />
<path d="M10430,30.23L10430,30.23L10460,30.23L10460,30.23Z" style="fill:#FAA75B" />
<path d="M1230.4,30.23L1230.4,30.23L1260.4,30.23L1260.4,30.23Z" style="fill:#9E67AB" />
<path d="M3076.3,30.23L3076.3,30.23L3106.3,30.23L3106.3,30.23Z" style="fill:#9E67AB" />
<path d="M4922.2,30.23L4922.2,30.23L4952.2,30.23L4952.2,30.23Z" style="fill:#9E67AB" />
<path d="M6768.2,30.23L6768.2,5421.8L6798.2,5421.8L6798.2,30.23Z" style="fill:#9E67AB" />
<path d="M8614.1,30.23L8614.1,30.23L8644.1,30.23L8644.1,30.23Z" style="fill:#9E67AB" />
<path d="M10460,30.23L10460,30.23L10490,30.23L10490,30.23Z" style="fill:#9E67AB" />
<path d="M1260.4,30.23L1260.4,30.23L1290.4,30.23L1290.4,30.23Z" style="fill:#CE7058" />
<path d="M3106.3,30.23L3106.3,30.23L3136.3,30.23L3136.3,30.23Z" style="fill:#CE7058" />
<path d="M4952.2,30.23L4952.2,30.23L4982.2,30.23L4982.2,30.23Z" style="fill:#CE7058" />
<path d="M6798.2,30.23L6798.2,30.23L6828.2,30.23L6828.2,30.23Z" style="fill:#CE7058" />
<path d="M8644.1,30.23L8644.1,5421.8L8674.1,5421.8L8674.1,30.23Z" style="fill:#CE7058" />
<path d="M10490,30.23L10490,30.23L10520,30.23L10520,30.23Z" style="fill:#CE7058" />
<path d="M1290.4,30.23L1290.4,30.23L1320.4,30.23L1320.4,30.23Z" style="fill:#D77FB4" />
<path d="M3136.3,30.23L3136.3,30.23L3166.3,30.23L3166.3,30.23Z" style="fill:#D77FB4" />
<path d="M4982.2,30.23L4982.2,30.23L5012.2,30.23L5012.2,30.23Z" style="fill:#D77FB4" />
<path d="M6828.2,30.23L6828.2,30.23L6858.2,30.23L6858.2,30.23Z" style="fill:#D77FB4" />
<path d="M8674.1,30.23L8674.1,30.23L8704.1,30.23L8704.1,30.23Z" style="fill:#D77FB4" />
<path d="M10520,30.23L10520,5421.8L10550,5421.8L10550,30.23Z" style="fill:#D77FB4" />
<path d="M1320.4,30.23L1320.4,5529.6L1350.4,5529.6L1350.4,30.23Z" style="fill:#F15A60" />
<path d="M3166.3,30.23L3166.3,30.23L3196.3,30.23L3196.3,30.23Z" style="fill:#F15A60" />
<path d="M5012.2,30.23L5012.2,30.23L5042.2,30.23L5042.2,30.23Z" style="fill:#F15A60" />
<path d="M6858.2,30.23L6858.2,30.23L6888.2,30.23L6888.2,30.23Z" style="fill:#F15A60" />
<path d="M8704.1,30.23L8704.1,30.23L8734.1,30.23L8734.1,30.23Z" style="fill:#F15A60" />
<path d="M10550,30.23L10550,30.23L10580,30.23L10580,30.23Z" style="fill:#F15A60" />
<path d="M1350.4,30.23L1350.4,30.23L1380.4,30.23L1380.4,30.23Z" style="fill:#7AC36A" />
<path d="M3196.3,30.23L3196.3,5421.8L3226.3,5421.8L3226.3,30.23Z" style="fill:#7AC36A" />
<path d="M5042.2,30.23L5042.2,30.23L5072.2,30.23L5072.2,30.23Z" style="fill:#7AC36A" />
<path d="M6888.2,30.23L6888.2,30.23L6918.2,30.23L6918.2,30.23Z" style="fill:#7AC36A" />
<path d="M8734.1,30.23L8734.1,30.23L8764.1,30.23L8764.1,30.23Z" style="fill:#7AC36A" />
<path d="M10580,30.23L10580,30.23L10610,30.23L10610,30.23Z" style="fill:#7AC36A" />
<path d="M1380.4,30.23L1380.4,30.23L1410.4,30.23L1410.4,30.23Z" style="fill:#5A9BD4" />
<path d="M3226.3,30.23L3226.3,30.23L3256.3,30.23L3256.3,30.23Z" style="fill:#5A9BD4" />
<path d="M5072.2,30.23L5072.2,164.48L5102.2,164.48L5102.2,30.23Z" style="fill:#5A9BD4" />
<path d="M6918.2,30.23L6918.2,30.23L6948.2,30.23L6948.2,30.23Z" style="fill:#5A9BD4" />
<path d="M8764.1,30.23L8764.1,30.23L8794.1,30.23L8794.1,30.23Z" style="fill:#5A9BD4" />
<path d="M10610,30.23L10610,30.23L10640,30.23L10640,30.23Z" style="fill:#5A9BD4" />
<path d="M1410.4,30.23L1410.4,30.23L1440.4,30.23L1440.4,30.23Z" style="fill:#FAA75B" />
<path d="M3256.3,30.23L3256.3,30.23L3286.3,30.23L3286.3,30.23Z" style="fill:#FAA75B" />
<path d="M5102.2,30.23L5102.2,30.23L5132.2,30.23L5132.2,30.23Z" style="fill:#FAA75B" />
<path d="M6948.2,30.23L6948.2,5405.6L6978.2,5405.6L6978.2,30.23Z" style="fill:#FAA75B" />
<path d="M8794.1,30.23L8794.1,30.23L8824.1,30.23L8824.1,30.23Z" style="fill:#FAA75B" />
<path d="M10640,30.23L10640,30.23L10670,30.23L10670,30.23Z" style="fill:#FAA75B" />
<path d="M1440.4,30.23L1440.4,30.23L1470.4,30.23L1470.4,30.23Z" style="fill:#9E67AB" />
<path d="M3286.3,30.23L3286.3,30.23L3316.3,30.23L3316.3,30.23Z" style="fill:#9E67AB" />
<path d="M5132.2,30.23L5132.2,30.23L5162.2,30.23L5162.2,30.23Z" style="fill:#9E67AB" />
<path d="M6978.2,30.23L6978.2,30.23L7008.2,30.23L7008.2,30.23Z" style="fill:#9E67AB" />
<path d="M8824.1,30.23L8824.1,5389.4L8854.1,5389.4L8854.1,30.23Z" style="fill:#9E67AB" />
<path d="M10670,30.23L10670,30.23L10700,30.23L10700,30.23Z" style="fill:#9E67AB" />
<path d="M1470.4,30.23L1470.4,30.23L1500.4,30.23L1500.4,30.23Z" style="fill:#CE7058" />
<path d="M3316.3,30.23L3316.3,30.23L3346.3,30.23L3346.3,30.23Z" style="fill:#CE7058" />
<path d="M5162.2,30.23L5162.2,30.23L5192.2,30.23L5192.2,30.23Z" style="fill:#CE7058" />
<path d="M7008.2,30.23L7008.2,30.23L7038.2,30.23L7038.2,30.23Z" style="fill:#CE7058" />
<path d="M8854.1,30.23L8854.1,30.23L8884.1,30.23L8884.1,30.23Z" style="fill:#CE7058" />
<path d="M10700,30.23L10700,5416.4L10730,5416.4L10730,30.23Z" style="fill:#CE7058" />
<path d="M1500.4,30.23L1500.4,5421.8L1530.4,5421.8L1530.4,30.23Z" style="fill:#D77FB4" />
<path d="M3346.3,30.23L3346.3,30.23L3376.3,30.23L3376.3,30.23Z" style="fill:#D77FB4" />
<path d="M5192.2,30.23L5192.2,30.23L5222.2,30.23L5222.2,30.23Z" style="fill:#D77FB4" />
<path d="M7038.2,30.23L7038.2,30.23L7068.2,30.23L7068.2,30.23Z" style="fill:#D77FB4" />
<path d="M8884.1,30.23L8884.1,30.23L8914.1,30.23L8914.1,30.23Z" style="fill:#D77FB4" />
<path d="M10730,30.23L10730,30.23L10760,30.23L10760,30.23Z" style="fill:#D77FB4" />
<path d="M1530.4,30.23L1530.4,30.23L1560.4,30.23L1560.4,30.23Z" style="fill:#F15A60" />
<path d="M3376.3,30.23L3376.3,5421.8L3406.3,5421.8L3406.3,30.23Z" style="fill:#F15A60" />
<path d="M5222.2,30.23L5222.2,30.23L5252.2,30.23L5252.2,30.23Z" style="fill:#F15A60" />
<path d="M7068.2,30.23L7068.2,30.23L7098.2,30.23L7098.2,30.23Z" style="fill:#F15A60" />
<path d="M8914.1,30.23L8914.1,30.23L8944.1,30.23L8944.1,30.23Z" style="fill:#F15A60" />
<path d="M10760,30.23L10760,30.23L10790,30.23L10790,30.23Z" style="fill:#F15A60" />
<path d="M1560.4,30.23L1560.4,30.23L1590.4,30.23L1590.4,30.23Z" style="fill:#7AC36A" />
<path d="M3406.3,30.23L3406.3,30.23L3436.3,30.23L3436.3,30.23Z" style="fill:#7AC36A" />
<path d="M5252.2,30.23L5252.2,5421.8L5282.2,5421.8L5282.2,30.23Z" style="fill:#7AC36A" />
<path d="M7098.2,30.23L7098.2,30.23L7128.2,30.23L7128.2,30.23Z" style="fill:#7AC36A" />
<path d="M8944.1,30.23L8944.1,30.23L8974.1,30.23L8974.1,30.23Z" style="fill:#7AC36A" />
<path d="M10790,30.23L10790,30.23L10820,30.23L10820,30.23Z" style="fill:#7AC36A" />
<path d="M1590.4,30.23L1590.4,30.23L1620.4,30.23L1620.4,30.23Z" style="fill:#5A9BD4" />
<path d="M3436.3,30.23L3436.3,30.23L3466.3,30.23L3466.3,30.23Z" style="fill:#5A9BD4" />
<path d="M5282.2,30.23L5282.2,30.23L5312.2,30.23L5312.2,30.23Z" style="fill:#5A9BD4" />
<path d="M7128.2,30.23L7128.2,3146.5L7158.2,3146.5L7158.2,30.23Z" style="fill:#5A9BD4" />
<path d="M8974.1,30.23L8974.1,30.23L9004.1,30.23L9004.1,30.23Z" style="fill:#5A9BD4" />
<path d="M10820,30.23L10820,30.23L10850,30.23L10850,30.23Z" style="fill:#5A9BD4" />
<path d="M1620.4,30.23L1620.4,30.23L1650.4,30.23L1650.4,30.23Z" style="fill:#FAA75B" />
<path d="M3466.3,30.23L3466.3,30.23L3496.3,30.23L3496.3,30.23Z" style="fill:#FAA75B" />
<path d="M5312.2,30.23L5312.2,30.23L5342.2,30.23L5342.2,30.23Z" style="fill:#FAA75B" />
<path d="M7158.2,30.23L7158.2,30.23L7188.2,30.23L7188.2,30.23Z" style="fill:#FAA75B" />
<path d="M9004.1,30.23L9004.1,5421.8L9034.1,5421.8L9034.1,30.23Z" style="fill:#FAA75B" />
<path d="M10850,30.23L10850,30.23L10880,30.23L10880,30.23Z" style="fill:#FAA75B" />
<path d="M1650.4,30.23L1650.4,30.23L1680.4,30.23L1680.4,30.23Z" style="fill:#9E67AB" />
<path d="M3496.3,30.23L3496.3,30.23L3526.3,30.23L3526.3,30.23Z" style="fill:#9E67AB" />
<path d="M5342.2,30.23L5342.2,30.23L5372.2,30.23L5372.2,30.23Z" style="fill:#9E67AB" />
<path d="M7188.2,30.23L7188.2,30.23L7218.2,30.23L7218.2,30.23Z" style="fill:#9E67AB" />
<path d="M9034.1,30.23L9034.1,30.23L9064.1,30.23L9064.1,30.23Z" style="fill:#9E67AB" />
<path d="M10880,30.23L10880,5421.8L10910,5421.8L10910,30.23Z" style="fill:#9E67AB" />
<path d="M1680.4,30.23L1680.4,5109L1710.4,5109L1710.4,30.23Z" style="fill:#CE7058" />
<path d="M3526.3,30.23L3526.3,30.23L3556.3,30.23L3556.3,30.23Z" style="fill:#CE7058" />
<path d="M5372.2,30.23L5372.2,30.23L5402.2,30.23L5402.2,30.23Z" style="fill:#CE7058" />
<path d="M7218.2,30.23L7218.2,30.23L7248.2,30.23L7248.2,30.23Z" style="fill:#CE7058" />
<path d="M9064.1,30.23L9064.1,30.23L9094.1,30.23L9094.1,30.23Z" style="fill:#CE7058" />
<path d="M10910,30.23L10910,30.23L10940,30.23L10940,30.23Z" style="fill:#CE7058" />
<path d="M1710.4,30.23L1710.4,30.23L1740.4,30.23L1740.4,30.23Z" style="fill:#D77FB4" />
<path d="M3556.3,30.23L3556.3,5400.2L3586.3,5400.2L3586.3,30.23Z" style="fill:#D77FB4" />
<path d="M5402.2,30.23L5402.2,30.23L5432.2,30.23L5432.2,30.23Z" style="fill:#D77FB4" />
<path d="M7248.2,30.23L7248.2,30.23L7278.2,30.23L7278.2,30.23Z" style="fill:#D77FB4" />
<path d="M9094.1,30.23L9094.1,30.23L9124.1,30.23L9124.1,30.23Z" style="fill:#D77FB4" />
<path d="M10940,30.23L10940,30.23L10970,30.23L10970,30.23Z" style="fill:#D77FB4" />
<path d="M1740.4,30.23L1740.4,30.23L1770.4,30.23L1770.4,30.23Z" style="fill:#F15A60" />
<path d="M3586.3,30.23L3586.3,30.23L3616.3,30.23L3616.3,30.23Z" style="fill:#F15A60" />
<path d="M5432.2,30.23L5432.2,5411L5462.2,5411L5462.2,30.23Z" style="fill:#F15A60" />
<path d="M7278.2,30.23L7278.2,30.23L7308.2,30.23L7308.2,30.23Z" style="fill:#F15A60" />
<path d="M9124.1,30.23L9124.1,30.23L9154.1,30.23L9154.1,30.23Z" style="fill:#F15A60" />
<path d="M10970,30.23L10970,30.23L11000,30.23L11000,30.23Z" style="fill:#F15A60" />
<path d="M1770.4,30.23L1770.4,30.23L1800.4,30.23L1800.4,30.23Z" style="fill:#7AC36A" />
<path d="M3616.3,30.23L3616.3,30.23L3646.3,30.23L3646.3,30.23Z" style="fill:#7AC36A" />
<path d="M5462.2,30.23L5462.2,30.23L5492.2,30.23L5492.2,30.23Z" style="fill:#7AC36A" />
<path d="M7308.2,30.23L7308.2,2208.4L7338.2,2208.4L7338.2,30.23Z" style="fill:#7AC36A" />
<path d="M9154.1,30.23L9154.1,30.23L9184.1,30.23L9184.1,30.23Z" style="fill:#7AC36A" />
<path d="M11000,30.23L11000,30.23L11030,30.23L11030,30.23Z" style="fill:#7AC36A" />
<path d="M1800.4,30.23L1800.4,30.23L1830.4,30.23L1830.4,30.23Z" style="fill:#5A9BD4" />
<path d="M3646.3,30.23L3646.3,30.23L3676.3,30.23L3676.3,30.23Z" style="fill:#5A9BD4" />
<path d="M5492.2,30.23L5492.2,30.23L5522.2,30.23L5522.2,30.23Z" style="fill:#5A9BD4" />
<path d="M7338.2,30.23L7338.2,30.23L7368.2,30.23L7368.2,30.23Z" style="fill:#5A9BD4" />
<path d="M9184.1,30.23L9184.1,5421.8L9214.1,5421.8L9214.1,30.23Z" style="fill:#5A9BD4" />
<path d="M11030,30.23L11030,30.23L11060,30.23L11060,30.23Z" style="fill:#5A9BD4" />
<path d="M1830.4,30.23L1830.4,30.23L1860.4,30.23L1860.4,30.23Z" style="fill:#FAA75B" />
<path d="M3676.3,30.23L3676.3,30.23L3706.3,30.23L3706.3,30.23Z" style="fill:#FAA75B" />
<path d="M5522.2,30.23L5522.2,30.23L5552.2,30.23L5552.2,30.23Z" style="fill:#FAA75B" />
<path d="M7368.2,30.23L7368.2,30.23L7398.2,30.23L7398.2,30.23Z" style="fill:#FAA75B" />
<path d="M9214.1,30.23L9214.1,30.23L9244.1,30.23L9244.1,30.23Z" style="fill:#FAA75B" />
<path d="M11060,30.23L11060,5421.8L11090,5421.8L11090,30.23Z" style="fill:#FAA75B" />
<path d="M11070,5517.8L11070,5529.6L11090,5529.6L11090,5517.8Z" style="fill:#F15A60" />
<text x="10854" y="-5518" transform="scale(1, -1)"
	style="font-family:Times;font-weight:normal;font-style:normal;font-size:12px">[source=linear,digest=caio,quant=0.000000]</text>
<path d="M11070,5506L11070,5517.8L11090,5517.8L11090,5506Z" style="fill:#7AC36A" />
<text x="10854" y="-5506.3" transform="scale(1, -1)"
	style="font-family:Times;font-weight:normal;font-style:normal;font-size:12px">[source=linear,digest=caio,quant=0.100000]</text>
<path d="M11070,5494.3L11070,5506L11090,5506L11090,5494.3Z" style="fill:#5A9BD4" />
<text x="10854" y="-5494.5" transform="scale(1, -1)"
	style="font-family:Times;font-weight:normal;font-style:normal;font-size:12px">[source=linear,digest=caio,quant=0.500000]</text>
<path d="M11070,5482.5L11070,5494.3L11090,5494.3L11090,5482.5Z" style="fill:#FAA75B" />
<text x="10854" y="-5482.7" transform="scale(1, -1)"
	style="font-family:Times;font-weight:normal;font-style:normal;font-size:12px">[source=linear,digest=caio,quant=0.900000]</text>
<path d="M11070,5470.7L11070,5482.5L11090,5482.5L11090,5470.7Z" style="fill:#9E67AB" />
<text x="10854" y="-5470.9" transform="scale(1, -1)"
	style="font-family:Times;font-weight:normal;font-style:normal;font-size:12px">[source=linear,digest=caio,quant=0.990000]</text>
<path d="M11070,5458.9L11070,5470.7L11090,5470.7L11090,5458.9Z" style="fill:#CE7058" />
<text x="10854" y="-5459.1" transform="scale(1, -1)"
	style="font-family:Times;font-weight:normal;font-style:normal;font-size:12px">[source=linear,digest=caio,quant=0.999000]</text>
<path d="M11070,5447.1L11070,5458.9L11090,5458.9L11090,5447.1Z" style="fill:#D77FB4" />
<text x="10825" y="-5447.4" transform="scale(1, -1)"
	style="font-family:Times;font-weight:normal;font-style:normal;font-size:12px">[source=linear,digest=segmentio,quant=0.000000]</text>
<path d="M11070,5435.4L11070,5447.1L11090,5447.1L11090,5435.4Z" style="fill:#F15A60" />
<text x="10825" y="-5435.6" transform="scale(1, -1)"
	style="font-family:Times;font-weight:normal;font-style:normal;font-size:12px">[source=linear,digest=segmentio,quant=0.100000]</text>
<path d="M11070,5423.6L11070,5435.4L11090,5435.4L11090,5423.6Z" style="fill:#7AC36A" />
<text x="10825" y="-5423.8" transform="scale(1, -1)"
	style="font-family:Times;font-weight:normal;font-style:normal;font-size:12px">[source=linear,digest=segmentio,quant=0.500000]</text>
<path d="M11070,5411.8L11070,5423.6L11090,5423.6L11090,5411.8Z" style="fill:#5A9BD4" />
<text x="10825" y="-5412" transform="scale(1, -1)"
	style="font-family:Times;font-weight:normal;font-style:normal;font-size:12px">[source=linear,digest=segmentio,quant=0.900000]</text>
<path d="M11070,5400L11070,5411.8L11090,5411.8L11090,5400Z" style="fill:#FAA75B" />
<text x="10825" y="-5400.3" transform="scale(1, -1)"
	style="font-family:Times;font-weight:normal;font-style:normal;font-size:12px">[source=linear,digest=segmentio,quant=0.990000]</text>
<path d="M11070,5388.3L11070,5400L11090,5400L11090,5388.3Z" style="fill:#9E67AB" />
<text x="10825" y="-5388.5" transform="scale(1, -1)"
	style="font-family:Times;font-weight:normal;font-style:normal;font-size:12px">[source=linear,digest=segmentio,quant=0.999000]</text>
<path d="M11070,5376.5L11070,5388.3L11090,5388.3L11090,5376.5Z" style="fill:#CE7058" />
<text x="10860" y="-5376.7" transform="scale(1, -1)"
	style="font-family:Times;font-weight:normal;font-style:normal;font-size:12px">[source=rand,digest=caio,quant=0.000000]</text>
<path d="M11070,5364.7L11070,5376.5L11090,5376.5L11090,5364.7Z" style="fill:#D77FB4" />
<text x="10860" y="-5364.9" transform="scale(1, -1)"
	style="font-family:Times;font-weight:normal;font-style:normal;font-size:12px">[source=rand,digest=caio,quant=0.100000]</text>
<path d="M11070,5352.9L11070,5364.7L11090,5364.7L11090,5352.9Z" style="fill:#F15A60" />
<text x="10860" y="-5353.1" transform="scale(1, -1)"
	style="font-family:Times;font-weight:normal;font-style:normal;font-size:12px">[source=rand,digest=caio,quant=0.500000]</text>
<path d="M11070,5341.1L11070,5352.9L11090,5352.9L11090,5341.1Z" style="fill:#7AC36A" />
<text x="10860" y="-5341.4" transform="scale(1, -1)"
	style="font-family:Times;font-weight:normal;font-style:normal;font-size:12px">[source=rand,digest=caio,quant=0.900000]</text>
<path d="M11070,5329.4L11070,5341.1L11090,5341.1L11090,5329.4Z" style="fill:#5A9BD4" />
<text x="10860" y="-5329.6" transform="scale(1, -1)"
	style="font-family:Times;font-weight:normal;font-style:normal;font-size:12px">[source=rand,digest=caio,quant=0.990000]</text>
<path d="M11070,5317.6L11070,5329.4L11090,5329.4L11090,5317.6Z" style="fill:#FAA75B" />
<text x="10860" y="-5317.8" transform="scale(1, -1)"
	style="font-family:Times;font-weight:normal;font-style:normal;font-size:12px">[source=rand,digest=caio,quant=0.999000]</text>
<path d="M11070,5305.8L11070,5317.6L11090,5317.6L11090,5305.8Z" style="fill:#9E67AB" />
<text x="10830" y="-5306" transform="scale(1, -1)"
	style="font-family:Times;font-weight:normal;font-style:normal;font-size:12px">[source=rand,digest=segmentio,quant=0.000000]</text>
<path d="M11070,5294L11070,5305.8L11090,5305.8L11090,5294Z" style="fill:#CE7058" />
<text x="10830" y="-5294.3" transform="scale(1, -1)"
	style="font-family:Times;font-weight:normal;font-style:normal;font-size:12px">[source=rand,digest=segmentio,quant=0.100000]</text>
<path d="M11070,5282.3L11070,5294L11090,5294L11090,5282.3Z" style="fill:#D77FB4" />
<text x="10830" y="-5282.5" transform="scale(1, -1)"
	style="font-family:Times;font-weight:normal;font-style:normal;font-size:12px">[source=rand,digest=segmentio,quant=0.500000]</text>
<path d="M11070,5270.5L11070,5282.3L11090,5282.3L11090,5270.5Z" style="fill:#F15A60" />
<text x="10830" y="-5270.7" transform="scale(1, -1)"
	style="font-family:Times;font-weight:normal;font-style:normal;font-size:12px">[source=rand,digest=segmentio,quant=0.900000]</text>
<path d="M11070,5258.7L11070,5270.5L11090,5270.5L11090,5258.7Z" style="fill:#7AC36A" />
<text x="10830" y="-5258.9" transform="scale(1, -1)"
	style="font-family:Times;font-weight:normal;font-style:normal;font-size:12px">[source=rand,digest=segmentio,quant=0.990000]</text>
<path d="M11070,5246.9L11070,5258.7L11090,5258.7L11090,5246.9Z" style="fill:#5A9BD4" />
<text x="10830" y="-5247.2" transform="scale(1, -1)"
	style="font-family:Times;font-weight:normal;font-style:normal;font-size:12px">[source=rand,digest=segmentio,quant=0.999000]</text>
<path d="M11070,5235.2L11070,5246.9L11090,5246.9L11090,5235.2Z" style="fill:#FAA75B" />
<text x="10830" y="-5235.4" transform="scale(1, -1)"
	style="font-family:Times;font-weight:normal;font-style:normal;font-size:12px">[source=alternating,digest=caio,quant=0.000000]</text>
<path d="M11070,5223.4L11070,5235.2L11090,5235.2L11090,5223.4Z" style="fill:#9E67AB" />
<text x="10830" y="-5223.6" transform="scale(1, -1)"
	style="font-family:Times;font-weight:normal;font-style:normal;font-size:12px">[source=alternating,digest=caio,quant=0.100000]</text>
<path d="M11070,5211.6L11070,5223.4L11090,5223.4L11090,5211.6Z" style="fill:#CE7058" />
<text x="10830" y="-5211.8" transform="scale(1, -1)"
	style="font-family:Times;font-weight:normal;font-style:normal;font-size:12px">[source=alternating,digest=caio,quant=0.500000]</text>
<path d="M11070,5199.8L11070,5211.6L11090,5211.6L11090,5199.8Z" style="fill:#D77FB4" />
<text x="10830" y="-5200" transform="scale(1, -1)"
	style="font-family:Times;font-weight:normal;font-style:normal;font-size:12px">[source=alternating,digest=caio,quant=0.900000]</text>
<path d="M11070,5188L11070,5199.8L11090,5199.8L11090,5188Z" style="fill:#F15A60" />
<text x="10830" y="-5188.3" transform="scale(1, -1)"
	style="font-family:Times;font-weight:normal;font-style:normal;font-size:12px">[source=alternating,digest=caio,quant=0.990000]</text>
<path d="M11070,5176.3L11070,5188L11090,5188L11090,5176.3Z" style="fill:#7AC36A" />
<text x="10830" y="-5176.5" transform="scale(1, -1)"
	style="font-family:Times;font-weight:normal;font-style:normal;font-size:12px">[source=alternating,digest=caio,quant=0.999000]</text>
<path d="M11070,5164.5L11070,5176.3L11090,5176.3L11090,5164.5Z" style="fill:#5A9BD4" />
<text x="10800" y="-5164.7" transform="scale(1, -1)"
	style="font-family:Times;font-weight:normal;font-style:normal;font-size:12px">[source=alternating,digest=segmentio,quant=0.000000]</text>
<path d="M11070,5152.7L11070,5164.5L11090,5164.5L11090,5152.7Z" style="fill:#FAA75B" />
<text x="10800" y="-5152.9" transform="scale(1, -1)"
	style="font-family:Times;font-weight:normal;font-style:normal;font-size:12px">[source=alternating,digest=segmentio,quant=0.100000]</text>
<path d="M11070,5140.9L11070,5152.7L11090,5152.7L11090,5140.9Z" style="fill:#9E67AB" />
<text x="10800" y="-5141.2" transform="scale(1, -1)"
	style="font-family:Times;font-weight:normal;font-style:normal;font-size:12px">[source=alternating,digest=segmentio,quant=0.500000]</text>
<path d="M11070,5129.2L11070,5140.9L11090,5140.9L11090,5129.2Z" style="fill:#CE7058" />
<text x="10800" y="-5129.4" transform="scale(1, -1)"
	style="font-family:Times;font-weight:normal;font-style:normal;font-size:12px">[source=alternating,digest=segmentio,quant=0.900000]</text>
<path d="M11070,5117.4L11070,5129.2L11090,5129.2L11090,5117.4Z" style="fill:#D77FB4" />
<text x="10800" y="-5117.6" transform="scale(1, -1)"
	style="font-family:Times;font-weight:normal;font-style:normal;font-size:12px">[source=alternating,digest=segmentio,quant=0.990000]</text>
<path d="M11070,5105.6L11070,5117.4L11090,5117.4L11090,5105.6Z" style="fill:#F15A60" />
<text x="10800" y="-5105.8" transform="scale(1, -1)"
	style="font-family:Times;font-weight:normal;font-style:normal;font-size:12px">[source=alternating,digest=segmentio,quant=0.999000]</text>
<path d="M11070,5093.8L11070,5105.6L11090,5105.6L11090,5093.8Z" style="fill:#7AC36A" />
<text x="10847" y="-5094" transform="scale(1, -1)"
	style="font-family:Times;font-weight:normal;font-style:normal;font-size:12px">[source=normal,digest=caio,quant=0.000000]</text>
<path d="M11070,5082L11070,5093.8L11090,5093.8L11090,5082Z" style="fill:#5A9BD4" />
<text x="10847" y="-5082.3" transform="scale(1, -1)"
	style="font-family:Times;font-weight:normal;font-style:normal;font-size:12px">[source=normal,digest=caio,quant=0.100000]</text>
<path d="M11070,5070.3L11070,5082L11090,5082L11090,5070.3Z" style="fill:#FAA75B" />
<text x="10847" y="-5070.5" transform="scale(1, -1)"
	style="font-family:Times;font-weight:normal;font-style:normal;font-size:12px">[source=normal,digest=caio,quant=0.500000]</text>
<path d="M11070,5058.5L11070,5070.3L11090,5070.3L11090,5058.5Z" style="fill:#9E67AB" />
<text x="10847" y="-5058.7" transform="scale(1, -1)"
	style="font-family:Times;font-weight:normal;font-style:normal;font-size:12px">[source=normal,digest=caio,quant=0.900000]</text>
<path d="M11070,5046.7L11070,5058.5L11090,5058.5L11090,5046.7Z" style="fill:#CE7058" />
<text x="10847" y="-5046.9" transform="scale(1, -1)"
	style="font-family:Times;font-weight:normal;font-style:normal;font-size:12px">[source=normal,digest=caio,quant=0.990000]</text>
<path d="M11070,5034.9L11070,5046.7L11090,5046.7L11090,5034.9Z" style="fill:#D77FB4" />
<text x="10847" y="-5035.2" transform="scale(1, -1)"
	style="font-family:Times;font-weight:normal;font-style:normal;font-size:12px">[source=normal,digest=caio,quant=0.999000]</text>
<path d="M11070,5023.2L11070,5034.9L11090,5034.9L11090,5023.2Z" style="fill:#F15A60" />
<text x="10818" y="-5023.4" transform="scale(1, -1)"
	style="font-family:Times;font-weight:normal;font-style:normal;font-size:12px">[source=normal,digest=segmentio,quant=0.000000]</text>
<path d="M11070,5011.4L11070,5023.2L11090,5023.2L11090,5011.4Z" style="fill:#7AC36A" />
<text x="10818" y="-5011.6" transform="scale(1, -1)"
	style="font-family:Times;font-weight:normal;font-style:normal;font-size:12px">[source=normal,digest=segmentio,quant=0.100000]</text>
<path d="M11070,4999.6L11070,5011.4L11090,5011.4L11090,4999.6Z" style="fill:#5A9BD4" />
<text x="10818" y="-4999.8" transform="scale(1, -1)"
	style="font-family:Times;font-weight:normal;font-style:normal;font-size:12px">[source=normal,digest=segmentio,quant=0.500000]</text>
<path d="M11070,4987.8L11070,4999.6L11090,4999.6L11090,4987.8Z" style="fill:#FAA75B" />
<text x="10818" y="-4988" transform="scale(1, -1)"
	style="font-family:Times;font-weight:normal;font-style:normal;font-size:12px">[source=normal,digest=segmentio,quant=0.900000]</text>
<path d="M11070,4976L11070,4987.8L11090,4987.8L11090,4976Z" style="fill:#9E67AB" />
<text x="10818" y="-4976.3" transform="scale(1, -1)"
	style="font-family:Times;font-weight:normal;font-style:normal;font-size:12px">[source=normal,digest=segmentio,quant=0.990000]</text>
<path d="M11070,4964.3L11070,4976L11090,4976L11090,4964.3Z" style="fill:#CE7058" />
<text x="10818" y="-4964.5" transform="scale(1, -1)"
	style="font-family:Times;font-weight:normal;font-style:normal;font-size:12px">[source=normal,digest=segmentio,quant=0.999000]</text>
<path d="M11070,4952.5L11070,4964.3L11090,4964.3L11090,4952.5Z" style="fill:#D77FB4" />
<text x="10840" y="-4952.7" transform="scale(1, -1)"
	style="font-family:Times;font-weight:normal;font-style:normal;font-size:12px">[source=tailspike,digest=caio,quant=0.000000]</text>
<path d="M11070,4940.7L11070,4952.5L11090,4952.5L11090,4940.7Z" style="fill:#F15A60" />
<text x="10840" y="-4940.9" transform="scale(1, -1)"
	style="font-family:Times;font-weight:normal;font-style:normal;font-size:12px">[source=tailspike,digest=caio,quant=0.100000]</text>
<path d="M11070,4928.9L11070,4940.7L11090,4940.7L11090,4928.9Z" style="fill:#7AC36A" />
<text x="10840" y="-4929.2" transform="scale(1, -1)"
	style="font-family:Times;font-weight:normal;font-style:normal;font-size:12px">[source=tailspike,digest=caio,quant=0.500000]</text>
<path d="M11070,4917.2L11070,4928.9L11090,4928.9L11090,4917.2Z" style="fill:#5A9BD4" />
<text x="10840" y="-4917.4" transform="scale(1, -1)"
	style="font-family:Times;font-weight:normal;font-style:normal;font-size:12px">[source=tailspike,digest=caio,quant=0.900000]</text>
<path d="M11070,4905.4L11070,4917.2L11090,4917.2L11090,4905.4Z" style="fill:#FAA75B" />
<text x="10840" y="-4905.6" transform="scale(1, -1)"
	style="font-family:Times;font-weight:normal;font-style:normal;font-size:12px">[source=tailspike,digest=caio,quant=0.990000]</text>
<path d="M11070,4893.6L11070,4905.4L11090,4905.4L11090,4893.6Z" style="fill:#9E67AB" />
<text x="10840" y="-4893.8" transform="scale(1, -1)"
	style="font-family:Times;font-weight:normal;font-style:normal;font-size:12px">[source=tailspike,digest=caio,quant=0.999000]</text>
<path d="M11070,4881.8L11070,4893.6L11090,4893.6L11090,4881.8Z" style="fill:#CE7058" />
<text x="10811" y="-4882.1" transform="scale(1, -1)"
	style="font-family:Times;font-weight:normal;font-style:normal;font-size:12px">[source=tailspike,digest=segmentio,quant=0.000000]</text>
<path d="M11070,4870.1L11070,4881.8L11090,4881.8L11090,4870.1Z" style="fill:#D77FB4" />
<text x="10811" y="-4870.3" transform="scale(1, -1)"
	style="font-family:Times;font-weight:normal;font-style:normal;font-size:12px">[source=tailspike,digest=segmentio,quant=0.100000]</text>
<path d="M11070,4858.3L11070,4870.1L11090,4870.1L11090,4858.3Z" style="fill:#F15A60" />
<text x="10811" y="-4858.5" transform="scale(1, -1)"
	style="font-family:Times;font-weight:normal;font-style:normal;font-size:12px">[source=tailspike,digest=segmentio,quant=0.500000]</text>
<path d="M11070,4846.5L11070,4858.3L11090,4858.3L11090,4846.5Z" style="fill:#7AC36A" />
<text x="10811" y="-4846.7" transform="scale(1, -1)"
	style="font-family:Times;font-weight:normal;font-style:normal;font-size:12px">[source=tailspike,digest=segmentio,quant=0.900000]</text>
<path d="M11070,4834.7L11070,4846.5L11090,4846.5L11090,4834.7Z" style="fill:#5A9BD4" />
<text x="10811" y="-4834.9" transform="scale(1, -1)"
	style="font-family:Times;font-weight:normal;font-style:normal;font-size:12px">[source=tailspike,digest=segmentio,quant=0.990000]</text>
<path d="M11070,4822.9L11070,4834.7L11090,4834.7L11090,4822.9Z" style="fill:#FAA75B" />
<text x="10811" y="-4823.2" transform="scale(1, -1)"
	style="font-family:Times;font-weight:normal;font-style:normal;font-size:12px">[source=tailspike,digest=segmentio,quant=0.999000]</text>
</g>
</svg>
