<?xml version="1.0"?>
<!-- Generated by SVGo and Plotinum VG -->
<svg width="2090pt" height="1045pt" viewBox="0 0 2090 1045"
	xmlns="http://www.w3.org/2000/svg"
	xmlns:xlink="http://www.w3.org/1999/xlink">
<g transform="scale(1, -1) translate(0, -1045)">
<path d="M0,0L2090,0L2090,1045L0,1045Z" style="fill:#FFFFFF" />
<text x="953.64" y="-1033.4" transform="scale(1, -1)"
	style="font-family:Times;font-weight:normal;font-style:normal;font-size:12px">BenchmarkCorrectness/size=1000000</text>
<text x="1076.9" y="-3.8613" transform="scale(1, -1)"
	style="font-family:Times;font-weight:normal;font-style:normal;font-size:12px">quant</text>
<text x="206.67" y="-15.602" transform="scale(1, -1)"
	style="font-family:Times;font-weight:normal;font-style:normal;font-size:10px">0.000000</text>
<text x="552.58" y="-15.602" transform="scale(1, -1)"
	style="font-family:Times;font-weight:normal;font-style:normal;font-size:10px">0.100000</text>
<text x="898.5" y="-15.602" transform="scale(1, -1)"
	style="font-family:Times;font-weight:normal;font-style:normal;font-size:10px">0.500000</text>
<text x="1244.4" y="-15.602" transform="scale(1, -1)"
	style="font-family:Times;font-weight:normal;font-style:normal;font-size:10px">0.900000</text>
<text x="1590.3" y="-15.602" transform="scale(1, -1)"
	style="font-family:Times;font-weight:normal;font-style:normal;font-size:10px">0.990000</text>
<text x="1936.2" y="-15.602" transform="scale(1, -1)"
	style="font-family:Times;font-weight:normal;font-style:normal;font-size:10px">0.999000</text>
<g transform="rotate(90)">
<text x="508.26" y="11.555" transform="scale(1, -1)"
	style="font-family:Times;font-weight:normal;font-style:normal;font-size:12px">%correct</text>
</g>
<text x="25.416" y="-25.509" transform="scale(1, -1)"
	style="font-family:Times;font-weight:normal;font-style:normal;font-size:10px">0</text>
<text x="20.416" y="-515.39" transform="scale(1, -1)"
	style="font-family:Times;font-weight:normal;font-style:normal;font-size:10px">50</text>
<text x="15.416" y="-1005.3" transform="scale(1, -1)"
	style="font-family:Times;font-weight:normal;font-style:normal;font-size:10px">100</text>
<path d="M32.916,30.23L40.916,30.23" style="fill:none;stroke:#000000;stroke-width:0.5" />
<path d="M32.916,520.11L40.916,520.11" style="fill:none;stroke:#000000;stroke-width:0.5" />
<path d="M32.916,1010L40.916,1010" style="fill:none;stroke:#000000;stroke-width:0.5" />
<path d="M36.916,128.21L40.916,128.21" style="fill:none;stroke:#000000;stroke-width:0.5" />
<path d="M36.916,226.18L40.916,226.18" style="fill:none;stroke:#000000;stroke-width:0.5" />
<path d="M36.916,324.16L40.916,324.16" style="fill:none;stroke:#000000;stroke-width:0.5" />
<path d="M36.916,422.13L40.916,422.13" style="fill:none;stroke:#000000;stroke-width:0.5" />
<path d="M36.916,618.09L40.916,618.09" style="fill:none;stroke:#000000;stroke-width:0.5" />
<path d="M36.916,716.06L40.916,716.06" style="fill:none;stroke:#000000;stroke-width:0.5" />
<path d="M36.916,814.04L40.916,814.04" style="fill:none;stroke:#000000;stroke-width:0.5" />
<path d="M36.916,912.01L40.916,912.01" style="fill:none;stroke:#000000;stroke-width:0.5" />
<path d="M40.916,30.23L40.916,1029.6" style="fill:none;stroke:#000000;stroke-width:0.5" />
<path d="M60.416,30.23L60.416,1010L90.416,1010L90.416,30.23Z" style="fill:#F15A60" />
<path d="M406.33,30.23L406.33,1010L436.33,1010L436.33,30.23Z" style="fill:#F15A60" />
<path d="M752.25,30.23L752.25,1010L782.25,1010L782.25,30.23Z" style="fill:#F15A60" />
<path d="M1098.2,30.23L1098.2,1010L1128.2,1010L1128.2,30.23Z" style="fill:#F15A60" />
<path d="M1444.1,30.23L1444.1,1010L1474.1,1010L1474.1,30.23Z" style="fill:#F15A60" />
<path d="M1790,30.23L1790,1010L1820,1010L1820,30.23Z" style="fill:#F15A60" />
<path d="M90.416,30.23L90.416,520.11L120.42,520.11L120.42,30.23Z" style="fill:#7AC36A" />
<path d="M436.33,30.23L436.33,1010L466.33,1010L466.33,30.23Z" style="fill:#7AC36A" />
<path d="M782.25,30.23L782.25,1010L812.25,1010L812.25,30.23Z" style="fill:#7AC36A" />
<path d="M1128.2,30.23L1128.2,1010L1158.2,1010L1158.2,30.23Z" style="fill:#7AC36A" />
<path d="M1474.1,30.23L1474.1,1010L1504.1,1010L1504.1,30.23Z" style="fill:#7AC36A" />
<path d="M1820,30.23L1820,1010L1850,1010L1850,30.23Z" style="fill:#7AC36A" />
<path d="M120.42,30.23L120.42,1010L150.42,1010L150.42,30.23Z" style="fill:#5A9BD4" />
<path d="M466.33,30.23L466.33,1010L496.33,1010L496.33,30.23Z" style="fill:#5A9BD4" />
<path d="M812.25,30.23L812.25,1010L842.25,1010L842.25,30.23Z" style="fill:#5A9BD4" />
<path d="M1158.2,30.23L1158.2,1010L1188.2,1010L1188.2,30.23Z" style="fill:#5A9BD4" />
<path d="M1504.1,30.23L1504.1,1010L1534.1,1010L1534.1,30.23Z" style="fill:#5A9BD4" />
<path d="M1850,30.23L1850,1010L1880,1010L1880,30.23Z" style="fill:#5A9BD4" />
<path d="M150.42,30.23L150.42,974.72L180.42,974.72L180.42,30.23Z" style="fill:#FAA75B" />
<path d="M496.33,30.23L496.33,1002.2L526.33,1002.2L526.33,30.23Z" style="fill:#FAA75B" />
<path d="M842.25,30.23L842.25,1003.1L872.25,1003.1L872.25,30.23Z" style="fill:#FAA75B" />
<path d="M1188.2,30.23L1188.2,1009L1218.2,1009L1218.2,30.23Z" style="fill:#FAA75B" />
<path d="M1534.1,30.23L1534.1,1010L1564.1,1010L1564.1,30.23Z" style="fill:#FAA75B" />
<path d="M1880,30.23L1880,1010L1910,1010L1910,30.23Z" style="fill:#FAA75B" />
<path d="M180.42,30.23L180.42,1010L210.42,1010L210.42,30.23Z" style="fill:#9E67AB" />
<path d="M526.33,30.23L526.33,1010L556.33,1010L556.33,30.23Z" style="fill:#9E67AB" />
<path d="M872.25,30.23L872.25,1010L902.25,1010L902.25,30.23Z" style="fill:#9E67AB" />
<path d="M1218.2,30.23L1218.2,1010L1248.2,1010L1248.2,30.23Z" style="fill:#9E67AB" />
<path d="M1564.1,30.23L1564.1,1010L1594.1,1010L1594.1,30.23Z" style="fill:#9E67AB" />
<path d="M1910,30.23L1910,1010L1940,1010L1940,30.23Z" style="fill:#9E67AB" />
<path d="M210.42,30.23L210.42,1010L240.42,1010L240.42,30.23Z" style="fill:#CE7058" />
<path d="M556.33,30.23L556.33,1010L586.33,1010L586.33,30.23Z" style="fill:#CE7058" />
<path d="M902.25,30.23L902.25,1010L932.25,1010L932.25,30.23Z" style="fill:#CE7058" />
<path d="M1248.2,30.23L1248.2,1010L1278.2,1010L1278.2,30.23Z" style="fill:#CE7058" />
<path d="M1594.1,30.23L1594.1,1010L1624.1,1010L1624.1,30.23Z" style="fill:#CE7058" />
<path d="M1940,30.23L1940,1010L1970,1010L1970,30.23Z" style="fill:#CE7058" />
<path d="M240.42,30.23L240.42,1010L270.42,1010L270.42,30.23Z" style="fill:#D77FB4" />
<path d="M586.33,30.23L586.33,1010L616.33,1010L616.33,30.23Z" style="fill:#D77FB4" />
<path d="M932.25,30.23L932.25,963.94L962.25,963.94L962.25,30.23Z" style="fill:#D77FB4" />
<path d="M1278.2,30.23L1278.2,1010L1308.2,1010L1308.2,30.23Z" style="fill:#D77FB4" />
<path d="M1624.1,30.23L1624.1,1010L1654.1,1010L1654.1,30.23Z" style="fill:#D77FB4" />
<path d="M1970,30.23L1970,1010L2000,1010L2000,30.23Z" style="fill:#D77FB4" />
<path d="M270.42,30.23L270.42,1029.6L300.42,1029.6L300.42,30.23Z" style="fill:#F15A60" />
<path d="M616.33,30.23L616.33,1010L646.33,1010L646.33,30.23Z" style="fill:#F15A60" />
<path d="M962.25,30.23L962.25,54.626L992.25,54.626L992.25,30.23Z" style="fill:#F15A60" />
<path d="M1308.2,30.23L1308.2,1007L1338.2,1007L1338.2,30.23Z" style="fill:#F15A60" />
<path d="M1654.1,30.23L1654.1,1004.1L1684.1,1004.1L1684.1,30.23Z" style="fill:#F15A60" />
<path d="M2000,30.23L2000,1009L2030,1009L2030,30.23Z" style="fill:#F15A60" />
<path d="M300.42,30.23L300.42,1010L330.42,1010L330.42,30.23Z" style="fill:#7AC36A" />
<path d="M646.33,30.23L646.33,1010L676.33,1010L676.33,30.23Z" style="fill:#7AC36A" />
<path d="M992.25,30.23L992.25,1010L1022.2,1010L1022.2,30.23Z" style="fill:#7AC36A" />
<path d="M1338.2,30.23L1338.2,596.53L1368.2,596.53L1368.2,30.23Z" style="fill:#7AC36A" />
<path d="M1684.1,30.23L1684.1,1010L1714.1,1010L1714.1,30.23Z" style="fill:#7AC36A" />
<path d="M2030,30.23L2030,1010L2060,1010L2060,30.23Z" style="fill:#7AC36A" />
<path d="M330.42,30.23L330.42,953.16L360.42,953.16L360.42,30.23Z" style="fill:#5A9BD4" />
<path d="M676.33,30.23L676.33,1006.1L706.33,1006.1L706.33,30.23Z" style="fill:#5A9BD4" />
<path d="M1022.2,30.23L1022.2,1008L1052.2,1008L1052.2,30.23Z" style="fill:#5A9BD4" />
<path d="M1368.2,30.23L1368.2,426.05L1398.2,426.05L1398.2,30.23Z" style="fill:#5A9BD4" />
<path d="M1714.1,30.23L1714.1,1010L1744.1,1010L1744.1,30.23Z" style="fill:#5A9BD4" />
<path d="M2060,30.23L2060,1010L2090,1010L2090,30.23Z" style="fill:#5A9BD4" />
<path d="M2070,1017.8L2070,1029.6L2090,1029.6L2090,1017.8Z" style="fill:#F15A60" />
<text x="1935.2" y="-1018" transform="scale(1, -1)"
	style="font-family:Times;font-weight:normal;font-style:normal;font-size:12px">[digest=caio,source=linear]</text>
<path d="M2070,1006L2070,1017.8L2090,1017.8L2090,1006Z" style="fill:#7AC36A" />
<text x="1905.8" y="-1006.3" transform="scale(1, -1)"
	style="font-family:Times;font-weight:normal;font-style:normal;font-size:12px">[digest=segmentio,source=linear]</text>
<path d="M2070,994.25L2070,1006L2090,1006L2090,994.25Z" style="fill:#5A9BD4" />
<text x="1941.2" y="-994.47" transform="scale(1, -1)"
	style="font-family:Times;font-weight:normal;font-style:normal;font-size:12px">[digest=caio,source=rand]</text>
<path d="M2070,982.47L2070,994.25L2090,994.25L2090,982.47Z" style="fill:#FAA75B" />
<text x="1911.8" y="-982.7" transform="scale(1, -1)"
	style="font-family:Times;font-weight:normal;font-style:normal;font-size:12px">[digest=segmentio,source=rand]</text>
<path d="M2070,970.7L2070,982.47L2090,982.47L2090,970.7Z" style="fill:#9E67AB" />
<text x="1911.2" y="-970.92" transform="scale(1, -1)"
	style="font-family:Times;font-weight:normal;font-style:normal;font-size:12px">[digest=caio,source=alternating]</text>
<path d="M2070,958.92L2070,970.7L2090,970.7L2090,958.92Z" style="fill:#CE7058" />
<text x="1881.9" y="-959.14" transform="scale(1, -1)"
	style="font-family:Times;font-weight:normal;font-style:normal;font-size:12px">[digest=segmentio,source=alternating]</text>
<path d="M2070,947.14L2070,958.92L2090,958.92L2090,947.14Z" style="fill:#D77FB4" />
<text x="1928.5" y="-947.37" transform="scale(1, -1)"
	style="font-family:Times;font-weight:normal;font-style:normal;font-size:12px">[digest=caio,source=normal]</text>
<path d="M2070,935.37L2070,947.14L2090,947.14L2090,935.37Z" style="fill:#F15A60" />
<text x="1899.2" y="-935.59" transform="scale(1, -1)"
	style="font-family:Times;font-weight:normal;font-style:normal;font-size:12px">[digest=segmentio,source=normal]</text>
<path d="M2070,923.59L2070,935.37L2090,935.37L2090,923.59Z" style="fill:#7AC36A" />
<text x="1921.8" y="-923.81" transform="scale(1, -1)"
	style="font-family:Times;font-weight:normal;font-style:normal;font-size:12px">[digest=caio,source=tailspike]</text>
<path d="M2070,911.81L2070,923.59L2090,923.59L2090,911.81Z" style="fill:#5A9BD4" />
<text x="1892.5" y="-912.03" transform="scale(1, -1)"
	style="font-family:Times;font-weight:normal;font-style:normal;font-size:12px">[digest=segmentio,source=tailspike]</text>
</g>
</svg>
